{"glyphs":{"0":{"ha":772,"x_min":0,"x_max":0,"o":"m 386 972 b 215 925 319 972 262 956 b 107 799 167 894 131 851 b 55 637 83 746 66 692 b 39 461 44 582 39 523 b 128 103 39 306 69 186 b 383 -21 187 21 272 -21 b 555 24 450 -21 507 -6 b 664 144 603 53 639 94 b 717 302 689 195 707 248 b 733 476 728 356 733 414 b 724 615 733 525 730 571 b 690 747 718 659 707 703 b 628 863 674 792 653 830 b 528 942 603 895 569 921 b 386 972 486 962 439 972 z m 386 919 b 531 878 443 919 491 906 b 622 766 572 850 602 813 b 663 625 641 719 655 672 b 675 475 671 578 675 528 b 663 324 675 422 671 372 b 620 183 654 277 640 229 b 529 71 600 136 570 99 b 383 29 488 43 440 29 b 263 56 338 29 298 38 b 180 126 228 74 201 97 b 129 227 159 154 142 188 b 103 342 116 266 107 305 b 96 458 98 379 96 418 b 172 798 96 604 121 717 b 386 919 223 879 294 919 z "},"1":{"ha":772,"x_min":0,"x_max":0,"o":"m 463 956 l 413 956 b 299 834 373 898 335 858 b 150 778 264 810 214 792 l 150 731 b 289 767 206 737 252 749 b 404 853 326 784 364 813 l 404 0 l 463 0 z "},"2":{"ha":772,"x_min":0,"x_max":0,"o":"m 701 51 l 128 51 b 156 129 133 80 143 106 b 217 199 170 152 190 176 b 278 249 245 223 265 240 b 353 301 291 259 316 276 b 519 421 425 350 481 390 b 643 552 573 463 614 507 b 686 708 672 597 686 649 b 607 900 686 788 660 852 b 394 972 554 948 483 972 b 171 888 299 972 225 944 b 85 663 117 832 88 757 b 83 633 85 651 84 642 l 140 633 b 203 844 142 721 163 791 b 392 922 243 896 306 922 b 565 864 465 922 523 903 b 629 707 608 825 629 773 b 613 621 629 677 624 649 b 576 551 601 593 589 570 b 515 487 562 532 542 510 b 451 435 488 463 467 446 l 381 385 l 294 326 b 130 181 223 278 168 230 b 64 0 91 131 69 71 l 701 0 z "},"3":{"ha":772,"x_min":0,"x_max":0,"o":"m 75 654 l 126 654 b 199 853 129 741 153 808 b 390 922 244 899 308 922 b 565 868 463 922 522 904 b 631 724 609 832 631 784 b 563 581 631 662 608 614 b 372 532 518 548 455 532 l 333 532 l 333 485 l 365 485 b 656 265 559 485 656 412 b 580 95 656 196 630 139 b 385 29 529 51 464 29 b 178 100 297 29 228 53 b 104 296 129 147 104 212 l 104 315 l 50 315 l 50 287 b 140 62 50 193 80 118 b 383 -21 200 7 281 -21 b 622 60 481 -21 561 6 b 713 271 682 113 713 184 b 652 435 713 340 692 395 b 496 511 612 476 560 501 b 633 579 550 518 596 540 b 688 725 669 618 688 667 b 606 904 688 799 660 859 b 392 972 552 950 481 972 b 161 888 294 972 217 944 b 75 654 106 832 77 754 z "},"4":{"ha":772,"x_min":0,"x_max":0,"o":"m 719 293 l 563 293 l 563 958 l 507 958 l 44 301 l 44 244 l 507 244 l 507 0 l 563 0 l 563 244 l 719 244 z m 507 293 l 93 293 l 442 788 b 508 890 446 794 469 828 b 507 769 507 855 507 815 z "},"5":{"ha":772,"x_min":0,"x_max":0,"o":"m 664 951 l 179 951 l 81 463 l 135 461 b 375 592 191 548 271 592 b 572 512 455 592 520 565 b 650 310 624 459 650 391 b 573 108 650 228 624 161 b 376 28 522 54 456 28 b 180 100 292 28 227 52 b 106 290 133 148 108 212 l 51 290 b 142 63 53 195 83 119 b 376 -21 200 7 278 -21 b 613 74 472 -21 551 11 b 707 311 676 137 707 216 b 615 547 707 406 676 485 b 383 640 554 609 477 640 b 140 524 278 640 197 601 l 219 899 l 664 899 z "},"6":{"ha":772,"x_min":0,"x_max":0,"o":"m 703 719 b 608 903 693 795 661 856 b 408 972 556 949 489 972 b 150 835 296 972 210 927 b 60 442 90 744 60 613 b 128 121 60 299 82 192 b 396 -21 188 26 277 -21 b 629 73 489 -21 567 10 b 722 307 691 135 722 213 b 632 538 722 400 692 477 b 406 631 572 600 496 631 b 224 576 335 631 275 612 b 112 424 173 539 136 488 b 118 551 112 468 114 510 b 142 683 122 591 130 635 b 192 805 155 730 172 771 b 278 890 213 839 242 867 b 407 924 315 912 358 924 b 568 866 470 924 524 904 b 646 719 612 828 638 779 z m 394 582 b 588 503 472 582 537 556 b 665 306 640 451 665 385 b 589 108 665 227 640 161 b 397 28 538 54 474 28 b 205 108 320 28 256 55 b 128 307 153 162 128 228 b 205 503 128 385 153 450 b 394 582 256 556 319 582 z "},"7":{"ha":772,"x_min":0,"x_max":0,"o":"m 693 951 l 78 951 l 78 899 l 642 899 b 346 485 522 790 424 652 b 224 0 268 317 227 156 l 283 0 b 400 473 288 154 327 311 b 693 896 473 634 571 775 z "},"8":{"ha":772,"x_min":0,"x_max":0,"o":"m 268 518 b 110 437 203 508 150 481 b 49 267 69 393 49 336 b 140 56 49 178 79 108 b 389 -21 200 5 283 -21 b 633 58 493 -21 574 5 b 722 272 693 110 722 181 b 663 440 722 341 702 397 b 506 518 623 483 570 509 b 634 592 558 530 601 555 b 683 733 667 630 683 677 b 604 909 683 808 657 867 b 386 972 551 951 479 972 b 169 908 294 972 222 951 b 89 731 116 865 89 806 b 268 518 89 617 149 546 z m 385 922 b 563 872 462 922 521 906 b 626 731 605 839 626 792 b 562 591 626 671 605 625 b 387 540 520 557 462 540 b 210 590 312 540 253 557 b 146 729 167 624 146 670 b 208 872 146 790 167 838 b 385 922 250 905 309 922 z m 383 494 b 590 435 471 494 540 475 b 664 268 639 395 664 339 b 590 92 664 194 639 135 b 387 28 541 49 474 28 b 181 92 300 28 231 49 b 107 268 132 134 107 193 b 181 434 107 338 131 394 b 383 494 230 474 297 494 z "},"9":{"ha":772,"x_min":0,"x_max":0,"o":"m 74 226 b 169 47 83 151 115 91 b 369 -21 223 2 290 -21 b 713 504 598 -21 713 154 b 638 838 713 652 688 763 b 371 972 576 927 488 972 b 140 878 278 972 201 941 b 47 644 78 816 47 738 b 138 414 47 552 78 475 b 367 322 199 353 275 322 b 658 536 506 322 604 394 l 658 483 b 584 147 658 337 634 225 b 371 29 534 68 463 29 b 210 83 308 29 254 47 b 129 226 166 118 139 166 z m 371 922 b 564 843 448 922 512 896 b 642 647 616 790 642 725 b 565 451 642 569 616 503 b 372 372 513 398 449 372 b 181 450 295 372 231 398 b 104 646 130 502 104 567 b 181 843 104 725 130 790 b 371 922 233 896 296 922 z "},"\b":{"ha":0,"x_min":0,"x_max":0,"o":""},"\t":{"ha":386,"x_min":0,"x_max":0,"o":""},"\r":{"ha":0,"x_min":0,"x_max":0,"o":""},"\u001d":{"ha":0,"x_min":0,"x_max":0,"o":""}," ":{"ha":386,"x_min":0,"x_max":0,"o":""},"!":{"ha":360,"x_min":0,"x_max":0,"o":"m 210 989 l 150 989 l 150 711 l 160 250 l 200 250 l 210 711 z m 213 136 l 147 136 l 147 0 l 213 0 z "},"\"":{"ha":438,"x_min":0,"x_max":0,"o":"m 142 569 l 149 951 l 94 951 l 101 569 z m 335 569 l 342 951 l 288 951 l 294 569 z "},"#":{"ha":772,"x_min":0,"x_max":0,"o":"m 188 0 l 242 300 l 458 300 l 403 0 l 453 0 l 508 300 l 685 300 l 685 347 l 517 347 l 564 606 l 742 606 l 742 651 l 574 651 l 631 951 l 582 951 l 524 651 l 307 651 l 365 951 l 315 951 l 258 651 l 81 651 l 81 606 l 249 606 l 201 347 l 24 347 l 24 300 l 193 300 l 138 0 z m 467 347 l 251 347 l 299 606 l 515 606 z "},"$":{"ha":772,"x_min":0,"x_max":0,"o":"m 399 1078 l 360 1078 l 360 974 b 143 901 270 972 198 948 b 61 721 88 855 61 795 b 86 610 61 678 69 641 b 159 537 103 579 127 555 b 251 496 191 519 222 505 b 360 469 281 487 317 478 l 360 25 b 151 88 270 30 200 51 b 78 272 102 126 78 187 b 78 280 78 273 78 276 b 79 290 79 284 79 288 l 22 290 l 22 278 b 360 -22 22 82 135 -18 l 360 -144 l 399 -144 l 399 -22 l 401 -22 b 645 51 503 -22 584 2 b 736 246 706 99 736 164 b 399 515 736 394 624 484 l 399 926 b 586 866 484 923 546 903 b 646 699 626 829 646 774 l 701 699 l 701 710 b 622 904 701 793 675 858 b 401 974 569 950 496 974 l 399 974 z m 360 524 b 117 725 198 543 117 610 b 181 867 117 784 138 831 b 360 925 224 902 284 921 z m 399 461 b 478 444 432 455 459 449 b 551 420 498 440 523 432 b 619 383 580 409 603 396 b 661 327 635 369 649 351 b 679 247 673 303 679 277 b 600 80 679 170 653 115 b 399 25 547 45 480 27 z "},"%":{"ha":1081,"x_min":0,"x_max":0,"o":"m 868 986 l 819 986 l 203 -33 l 253 -33 z m 800 474 b 636 403 734 474 680 450 b 571 226 593 357 571 298 b 634 49 571 154 592 95 b 799 -19 676 3 731 -19 b 963 51 866 -19 921 4 b 1026 232 1005 97 1026 158 b 962 405 1026 301 1005 359 b 800 474 919 451 865 474 z m 289 972 b 126 903 223 972 169 949 b 61 728 83 856 61 798 b 124 549 61 655 82 595 b 289 481 166 503 221 481 b 453 550 356 481 410 504 b 517 729 495 596 517 656 b 453 904 517 800 495 859 b 289 972 410 950 356 972 z m 796 431 b 925 373 848 431 891 411 b 976 228 959 334 976 286 b 926 81 976 169 959 121 b 800 22 892 42 850 22 b 672 81 748 22 705 42 b 621 231 638 119 621 169 b 672 373 621 287 638 334 b 796 431 705 411 747 431 z m 288 929 b 416 873 339 929 382 910 b 467 729 450 835 467 788 b 416 581 467 670 450 621 b 289 522 382 542 340 522 b 161 580 237 522 194 541 b 111 728 128 618 111 668 b 161 872 111 786 128 834 b 288 929 194 910 237 929 z "},"&":{"ha":824,"x_min":0,"x_max":0,"o":"m 717 408 l 664 408 b 629 240 661 353 650 297 l 393 533 b 467 585 426 556 451 573 b 529 638 484 597 504 615 b 583 712 554 662 572 686 b 600 796 594 737 600 765 b 542 929 600 850 581 894 b 394 982 503 964 454 982 b 240 929 331 982 280 964 b 181 792 200 894 181 848 b 192 727 181 770 184 749 b 228 657 199 705 211 682 b 268 602 246 632 259 614 b 315 546 277 591 293 572 b 224 490 279 525 249 507 b 144 424 199 472 172 451 b 79 338 116 398 94 369 b 57 238 64 306 57 273 b 139 53 57 163 84 101 b 349 -19 194 5 263 -19 b 636 149 471 -19 567 37 l 757 0 l 828 0 l 665 197 b 717 408 697 265 714 335 z m 362 571 b 304 640 337 600 317 624 b 259 713 291 657 276 681 b 233 793 242 744 233 771 b 278 894 233 834 248 868 b 392 935 309 921 346 935 b 501 894 435 935 472 921 b 546 792 531 866 546 832 b 362 571 546 713 485 639 z m 346 507 l 604 189 b 495 69 575 138 539 98 b 351 26 451 41 403 26 b 182 87 284 26 227 47 b 114 237 137 127 114 177 b 134 326 114 269 121 298 b 194 401 147 353 167 378 b 265 457 220 425 244 443 b 346 507 285 471 312 488 z "},"'":{"ha":283,"x_min":0,"x_max":0,"o":"m 161 569 l 168 951 l 114 951 l 121 569 z "},"(":{"ha":335,"x_min":0,"x_max":0,"o":"m 321 1000 l 272 1000 b 94 372 154 798 94 589 b 272 -256 94 162 154 -47 l 321 -256 b 150 368 207 -49 150 159 b 195 700 150 478 165 589 b 321 1000 225 811 267 911 z "},")":{"ha":335,"x_min":0,"x_max":0,"o":"m 240 372 b 63 1000 240 589 181 798 l 14 1000 b 140 700 68 911 109 811 b 185 368 170 589 185 478 b 14 -256 185 159 128 -49 l 63 -256 b 240 372 181 -47 240 162 z "},"*":{"ha":489,"x_min":0,"x_max":0,"o":"m 449 849 l 435 886 l 264 828 l 264 1008 l 224 1008 l 224 828 l 53 886 l 40 849 l 211 792 l 100 649 l 133 625 l 244 768 l 351 622 l 383 646 l 275 792 z "},"+":{"ha":833,"x_min":0,"x_max":0,"o":"m 393 40 l 442 40 l 442 353 l 757 353 l 757 399 l 442 399 l 442 710 l 393 710 l 393 399 l 78 399 l 78 353 l 393 353 z "},",":{"ha":386,"x_min":0,"x_max":0,"o":"m 228 142 l 158 142 l 158 0 l 186 0 b 139 -131 185 -68 169 -111 l 139 -178 b 210 -103 175 -162 199 -137 b 228 24 222 -69 228 -26 z "},"-":{"ha":489,"x_min":0,"x_max":0,"o":"m 393 403 l 96 403 l 96 349 l 393 349 z "},".":{"ha":386,"x_min":0,"x_max":0,"o":"m 228 142 l 158 142 l 158 0 l 228 0 z "},"/":{"ha":463,"x_min":0,"x_max":0,"o":"m 478 997 l 429 997 l -14 -12 l 36 -12 z "},":":{"ha":386,"x_min":0,"x_max":0,"o":"m 228 142 l 158 142 l 158 0 l 228 0 z m 228 711 l 158 711 l 158 569 l 228 569 z "},";":{"ha":386,"x_min":0,"x_max":0,"o":"m 228 142 l 158 142 l 158 0 l 186 0 b 139 -131 185 -68 169 -111 l 139 -178 b 210 -103 175 -162 199 -137 b 228 24 222 -69 228 -26 z m 228 711 l 158 711 l 158 569 l 228 569 z "},"<":{"ha":833,"x_min":0,"x_max":0,"o":"m 76 350 l 756 69 l 756 121 l 135 375 l 756 632 l 756 682 l 76 400 z "},"=":{"ha":833,"x_min":0,"x_max":0,"o":"m 76 476 l 756 476 l 756 522 l 76 522 z m 76 222 l 756 222 l 756 268 l 76 268 z "},">":{"ha":833,"x_min":0,"x_max":0,"o":"m 757 350 l 757 400 l 78 682 l 78 632 l 700 375 l 78 121 l 78 69 z "},"?":{"ha":721,"x_min":0,"x_max":0,"o":"m 60 682 l 114 682 b 174 878 113 759 133 824 b 360 960 216 933 277 960 b 524 903 426 960 481 941 b 588 760 566 866 588 818 b 562 663 588 727 579 695 b 513 590 545 631 528 607 b 440 519 497 574 473 550 b 349 407 394 476 364 438 b 328 264 335 375 328 328 l 328 249 l 382 249 b 397 386 382 315 387 361 b 476 483 407 411 434 444 b 542 545 509 513 531 534 b 591 601 554 557 570 575 b 633 678 612 627 626 653 b 644 761 641 703 644 731 b 566 940 644 834 618 894 b 361 1010 514 987 445 1010 b 136 916 262 1010 187 978 b 60 682 85 853 60 775 z m 386 142 l 322 142 l 322 0 l 386 0 z "},"@":{"ha":1111,"x_min":0,"x_max":0,"o":"m 983 153 b 787 51 914 106 848 72 b 579 18 725 29 656 18 b 331 71 489 18 407 36 b 147 230 256 106 194 159 b 75 475 99 301 75 382 b 230 828 75 618 127 735 b 604 968 333 922 458 968 b 906 871 722 968 822 936 b 1031 599 989 806 1031 715 b 1005 459 1031 554 1022 508 b 924 330 988 410 961 367 b 800 274 888 292 846 274 b 747 290 779 274 761 279 b 726 336 733 300 726 316 b 761 489 726 358 738 409 l 843 754 l 794 754 l 751 611 b 701 728 749 660 732 699 b 579 772 671 758 630 772 b 385 667 502 772 438 737 b 306 443 332 597 306 523 b 354 297 306 385 322 336 b 490 238 387 257 432 238 b 699 393 580 238 650 289 b 688 329 691 356 688 335 b 717 263 688 301 697 279 b 789 238 736 246 760 238 b 990 352 871 238 938 276 b 1068 597 1042 428 1068 510 b 935 895 1068 722 1024 822 b 606 1006 846 969 736 1006 b 205 858 450 1006 316 956 b 38 475 93 759 38 631 b 194 117 38 327 90 208 b 579 -18 298 27 426 -18 b 800 17 661 -18 734 -6 b 1004 125 866 40 934 76 z m 725 586 b 706 476 725 555 719 518 b 626 334 687 421 661 373 b 500 275 592 295 550 275 b 396 322 455 275 420 291 b 360 440 372 354 360 393 b 425 640 360 509 381 575 b 586 736 469 704 522 736 b 688 694 630 736 664 722 b 725 586 713 666 725 630 z "},"A":{"ha":824,"x_min":0,"x_max":0,"o":"m 447 989 l 383 989 l -18 0 l 47 0 l 174 319 l 650 319 l 774 0 l 840 0 z m 631 369 l 192 369 l 376 832 l 414 932 b 431 881 418 922 423 905 b 450 828 439 856 445 839 z "},"B":{"ha":875,"x_min":0,"x_max":0,"o":"m 86 989 l 86 0 l 468 0 b 714 56 575 0 657 19 b 829 275 791 106 829 180 b 767 442 829 343 809 398 b 606 518 726 485 672 511 b 744 595 663 528 709 554 b 796 743 778 636 796 686 b 708 926 796 824 767 885 b 493 989 650 968 578 989 z m 146 938 l 476 938 b 663 890 552 938 615 922 b 736 736 712 858 736 806 b 457 538 736 604 643 538 l 146 538 z m 146 488 l 472 488 b 769 276 670 488 769 417 b 464 53 769 127 668 53 l 146 53 z "},"C":{"ha":978,"x_min":0,"x_max":0,"o":"m 935 383 l 878 383 b 762 129 866 280 827 195 b 508 31 698 63 613 31 b 222 158 390 31 294 73 b 114 493 150 242 114 354 b 224 830 114 632 150 744 b 511 958 297 916 393 958 b 740 887 601 958 677 934 b 861 692 803 839 844 774 l 919 692 b 783 924 908 788 863 866 b 514 1013 704 983 614 1013 b 181 869 377 1013 266 965 b 54 492 97 773 54 647 b 178 119 54 337 96 213 b 507 -22 261 25 371 -22 b 803 90 625 -22 724 15 b 935 383 881 165 925 263 z "},"D":{"ha":926,"x_min":0,"x_max":0,"o":"m 89 989 l 89 0 l 424 0 b 762 140 575 0 688 47 b 872 510 835 233 872 356 b 757 861 872 659 834 776 b 422 989 680 946 569 989 z m 149 936 l 419 936 b 715 821 552 936 650 898 b 813 506 780 744 813 639 b 403 53 813 204 676 53 l 149 53 z "},"E":{"ha":778,"x_min":0,"x_max":0,"o":"m 747 989 l 81 989 l 81 0 l 753 0 l 753 53 l 140 53 l 140 488 l 710 488 l 710 540 l 140 540 l 140 936 l 747 936 z "},"F":{"ha":714,"x_min":0,"x_max":0,"o":"m 719 989 l 97 989 l 97 0 l 157 0 l 157 488 l 663 488 l 663 539 l 157 539 l 157 936 l 719 936 z "},"G":{"ha":1029,"x_min":0,"x_max":0,"o":"m 949 483 l 531 483 l 531 433 l 896 433 l 896 417 b 793 135 896 300 862 206 b 521 29 725 65 634 29 b 224 154 398 29 299 71 b 113 483 150 238 113 347 b 224 827 113 626 150 741 b 519 957 298 914 396 957 b 750 883 607 957 684 932 b 875 682 816 833 857 766 l 932 682 b 793 919 917 780 871 859 b 519 1010 715 980 624 1010 b 182 864 381 1010 268 961 b 53 483 96 767 53 640 b 182 118 53 333 96 212 b 519 -22 268 25 381 -22 b 755 47 606 -22 685 1 b 899 240 825 92 873 157 l 897 176 l 906 0 l 949 0 z "},"H":{"ha":931,"x_min":0,"x_max":0,"o":"m 843 989 l 783 989 l 783 543 l 149 543 l 149 989 l 89 989 l 89 0 l 149 0 l 149 490 l 783 490 l 783 0 l 843 0 z "},"I":{"ha":236,"x_min":0,"x_max":0,"o":"m 149 989 l 89 989 l 89 0 l 149 0 z "},"J":{"ha":668,"x_min":0,"x_max":0,"o":"m 582 989 l 522 989 l 522 272 b 475 92 522 194 506 133 b 308 29 444 50 388 29 b 137 92 225 29 168 50 b 90 283 106 134 90 198 l 90 312 l 33 312 b 32 275 32 300 32 288 b 97 53 32 177 53 103 b 308 -22 140 3 210 -22 b 582 268 491 -22 582 75 z "},"K":{"ha":851,"x_min":0,"x_max":0,"o":"m 849 989 l 769 989 l 144 421 l 144 989 l 85 989 l 85 0 l 144 0 l 144 350 l 350 538 l 800 0 l 876 0 l 393 578 z "},"L":{"ha":694,"x_min":0,"x_max":0,"o":"m 710 54 l 146 54 l 146 989 l 85 989 l 85 0 l 710 0 z "},"M":{"ha":1124,"x_min":0,"x_max":0,"o":"m 1036 989 l 954 989 b 633 236 892 844 785 593 b 564 62 604 168 581 110 l 486 256 l 171 989 l 88 989 l 88 0 l 146 0 l 146 740 b 139 931 146 761 144 824 b 185 807 168 852 183 811 l 535 0 l 593 0 l 942 817 b 964 874 947 829 955 848 b 986 933 973 901 981 920 b 978 740 981 869 978 804 l 978 0 l 1036 0 z "},"N":{"ha":942,"x_min":0,"x_max":0,"o":"m 844 989 l 785 989 l 786 260 b 790 71 786 196 788 133 b 694 219 757 125 725 175 l 151 989 l 82 989 l 82 0 l 140 0 l 140 768 b 136 919 140 844 139 894 b 222 783 157 881 186 835 l 776 0 l 844 0 z "},"O":{"ha":1029,"x_min":0,"x_max":0,"o":"m 513 1013 b 174 869 374 1013 261 965 b 44 494 88 773 44 648 b 173 119 44 339 87 214 b 513 -24 259 24 372 -24 b 854 117 653 -24 767 23 b 985 488 941 211 985 335 b 853 867 985 643 941 769 b 513 1013 766 964 652 1013 z m 513 960 b 809 829 634 960 733 916 b 924 490 885 742 924 629 b 810 157 924 353 886 242 b 513 29 734 72 635 29 b 218 158 391 29 293 72 b 106 497 143 244 106 357 b 151 724 106 580 121 655 b 292 894 182 793 229 850 b 513 960 355 938 428 960 z "},"P":{"ha":821,"x_min":0,"x_max":0,"o":"m 92 989 l 92 0 l 151 0 l 151 438 l 493 438 b 696 494 576 438 644 456 b 799 715 764 544 799 618 b 688 943 799 817 762 893 b 476 989 642 974 572 989 z m 151 936 l 467 936 b 572 930 510 936 545 934 b 651 897 598 926 625 915 b 739 713 710 859 739 798 b 635 522 739 626 704 563 b 458 489 597 500 538 489 l 151 489 z "},"Q":{"ha":1029,"x_min":0,"x_max":0,"o":"m 988 -7 l 835 103 b 944 276 882 149 919 207 b 983 497 970 345 983 419 b 853 868 983 649 940 773 b 515 1011 766 963 653 1011 b 175 866 375 1011 262 963 b 44 488 88 769 44 643 b 172 122 44 340 87 219 b 517 -22 257 26 372 -22 b 794 71 628 -22 720 9 l 957 -46 z m 789 138 l 624 256 l 592 215 l 747 106 b 517 31 682 56 606 31 b 214 162 387 31 286 74 b 106 490 142 249 106 359 b 219 828 106 629 143 742 b 515 957 294 914 393 957 b 809 829 636 957 734 914 b 922 497 884 744 922 633 b 789 138 922 355 878 235 z "},"R":{"ha":875,"x_min":0,"x_max":0,"o":"m 89 989 l 89 0 l 149 0 l 149 454 l 456 454 b 662 414 551 454 620 441 b 735 243 704 387 728 330 b 738 186 736 236 737 217 b 743 100 740 156 741 127 b 749 40 745 73 747 53 b 762 0 752 22 757 8 l 829 0 b 810 47 819 18 812 33 b 796 188 803 79 799 126 b 783 326 793 251 789 297 b 724 434 774 376 754 412 b 601 479 693 456 652 471 b 754 563 665 491 716 519 b 811 726 792 606 811 661 b 701 943 811 822 775 894 b 496 989 653 974 585 989 z m 149 938 l 476 938 b 661 899 557 938 619 925 b 751 724 721 862 751 803 b 734 629 751 688 746 656 b 689 565 722 602 707 581 b 619 528 670 550 647 537 b 538 509 592 519 564 512 b 447 504 511 506 481 504 l 149 504 z "},"S":{"ha":875,"x_min":0,"x_max":0,"o":"m 793 707 b 686 935 787 809 751 885 b 426 1010 621 985 535 1010 b 176 940 320 1010 236 986 b 85 749 115 893 85 829 b 224 542 85 652 131 583 b 428 483 257 527 325 507 b 478 472 436 481 453 478 b 535 460 504 467 523 463 b 588 445 547 457 565 452 b 643 425 612 438 630 431 b 688 399 656 419 671 410 b 727 363 705 388 718 375 b 750 317 736 350 744 334 b 760 258 756 299 760 280 b 678 90 760 186 732 130 b 450 29 623 49 547 29 b 203 103 344 29 262 54 b 112 328 145 153 114 228 l 56 328 b 160 67 56 212 91 125 b 447 -21 230 8 326 -21 b 719 54 563 -21 654 4 b 818 261 785 104 818 173 b 807 335 818 288 814 313 b 781 392 800 358 791 377 b 737 436 772 408 757 422 b 686 468 717 450 700 461 b 623 492 672 475 651 484 b 560 510 595 501 574 507 b 493 526 547 514 525 519 b 447 536 483 529 468 532 b 348 559 409 544 376 552 b 265 585 320 566 292 575 b 200 622 238 596 217 608 b 160 675 183 636 170 654 b 144 750 150 696 144 721 b 218 902 144 815 169 866 b 422 957 267 939 335 957 b 733 707 619 957 723 874 z "},"T":{"ha":721,"x_min":0,"x_max":0,"o":"m 740 989 l -21 989 l -21 936 l 331 936 l 331 0 l 390 0 l 390 936 l 740 936 z "},"U":{"ha":933,"x_min":0,"x_max":0,"o":"m 844 989 l 785 989 l 785 385 b 712 122 785 271 760 183 b 469 31 663 61 582 31 b 218 120 353 31 269 60 b 142 385 167 180 142 268 l 142 989 l 81 989 l 81 388 b 469 -21 81 115 210 -21 b 744 74 585 -21 677 11 b 844 338 811 138 844 225 z "},"V":{"ha":772,"x_min":0,"x_max":0,"o":"m 792 989 l 731 989 l 438 194 b 390 53 411 119 395 72 b 369 117 388 61 381 83 b 342 197 358 152 349 179 l 46 989 l -21 989 l 354 0 l 424 0 z "},"W":{"ha":1235,"x_min":0,"x_max":0,"o":"m 1240 989 l 1181 989 l 963 221 b 924 64 945 162 932 109 b 882 221 911 119 897 171 l 653 989 l 579 989 l 356 228 b 314 64 332 147 319 93 b 272 231 306 107 292 163 l 54 989 l -10 989 l 278 0 l 346 0 l 572 778 b 615 933 593 846 607 898 b 657 781 624 896 638 845 l 889 0 l 957 0 z "},"X":{"ha":772,"x_min":0,"x_max":0,"o":"m 775 989 l 707 989 l 385 551 l 69 989 l -3 989 l 349 508 l -24 0 l 47 0 l 385 463 l 719 0 l 793 0 l 422 508 z "},"Y":{"ha":797,"x_min":0,"x_max":0,"o":"m 828 989 l 760 989 l 442 531 l 400 464 b 356 533 387 486 372 509 l 42 989 l -31 989 l 368 413 l 368 0 l 428 0 l 428 413 z "},"Z":{"ha":746,"x_min":0,"x_max":0,"o":"m 733 989 l 38 989 l 38 935 l 581 935 b 635 935 606 935 624 935 b 668 936 647 936 658 936 l -4 60 l -4 0 l 746 0 l 746 53 l 61 53 l 733 931 z "},"[":{"ha":335,"x_min":0,"x_max":0,"o":"m 321 1001 l 131 1001 l 131 -256 l 321 -256 l 321 -210 l 185 -210 l 185 956 l 321 956 z "},"\\":{"ha":463,"x_min":0,"x_max":0,"o":"m 478 -12 l 35 997 l -14 997 l 428 -12 z "},"]":{"ha":335,"x_min":0,"x_max":0,"o":"m 206 1003 l 14 1003 l 14 956 l 151 956 l 151 -210 l 14 -210 l 14 -256 l 206 -256 z "},"^":{"ha":833,"x_min":0,"x_max":0,"o":"m 161 381 l 215 381 l 417 897 l 619 381 l 674 381 l 444 951 l 390 951 z "},"_":{"ha":694,"x_min":0,"x_max":0,"o":"m 0 -174 l 694 -174 l 694 -104 l 0 -104 z "},"`":{"ha":232,"x_min":0,"x_max":0,"o":"m 26 1022 l -46 1022 l 142 828 l 194 828 z "},"a":{"ha":694,"x_min":0,"x_max":0,"o":"m 693 50 b 657 44 678 46 666 44 b 628 50 645 44 635 46 b 612 68 620 54 615 60 b 606 90 609 76 607 84 b 606 121 606 97 606 107 l 606 489 b 605 550 606 517 605 537 b 594 601 604 563 601 580 b 565 654 588 622 578 639 b 354 731 520 705 450 731 b 158 669 271 731 206 710 b 81 493 111 629 85 570 l 133 493 b 349 683 144 620 216 683 b 499 642 414 683 464 669 b 550 519 533 614 550 573 b 540 446 550 481 547 456 b 492 416 531 431 515 421 b 314 397 469 411 409 405 b 42 179 132 382 42 310 b 103 33 42 117 62 69 b 276 -19 145 -2 202 -19 b 443 22 344 -19 400 -6 b 554 151 487 49 524 92 l 554 117 b 572 23 554 71 560 40 b 636 -3 583 6 605 -3 b 693 6 658 -3 677 0 z m 551 403 l 551 278 b 476 100 551 206 526 147 b 286 29 425 53 362 29 b 151 71 230 29 185 43 b 101 185 118 99 101 137 b 185 315 101 247 129 290 b 350 351 222 332 277 344 b 503 376 423 359 474 367 b 551 403 521 382 537 391 z "},"b":{"ha":772,"x_min":0,"x_max":0,"o":"m 136 989 l 81 989 l 81 0 l 133 0 l 133 171 b 407 -22 178 42 269 -22 b 636 81 503 -22 580 12 b 721 357 693 149 721 241 b 636 633 721 473 693 565 b 407 735 580 701 503 735 b 136 543 274 735 183 671 z m 397 686 b 593 597 480 686 545 656 b 664 354 641 538 665 457 b 592 114 664 253 640 173 b 401 25 545 55 481 25 b 208 116 321 25 256 55 b 136 358 160 177 136 257 b 208 597 136 457 160 537 b 397 686 255 656 319 686 z "},"c":{"ha":721,"x_min":0,"x_max":0,"o":"m 679 250 l 624 250 b 544 86 614 181 588 126 b 375 26 500 46 444 26 b 181 117 294 26 230 56 b 107 356 131 177 107 256 b 183 595 107 456 132 535 b 385 685 233 655 300 685 b 543 633 449 685 501 667 b 617 493 585 598 609 551 l 674 493 b 583 669 664 568 634 627 b 383 732 532 711 466 732 b 141 629 282 732 202 698 b 50 353 80 561 50 469 b 135 85 50 245 78 156 b 376 -21 192 15 273 -21 b 583 51 461 -21 529 3 b 679 250 636 98 668 165 z "},"d":{"ha":772,"x_min":0,"x_max":0,"o":"m 689 989 l 633 989 l 633 547 b 532 684 612 606 578 651 b 365 733 486 717 430 733 b 134 630 269 733 192 699 b 47 353 76 561 47 469 b 133 78 47 237 76 146 b 365 -22 190 11 267 -22 b 538 29 432 -22 489 -5 b 636 174 586 63 619 112 l 636 0 l 689 0 z m 367 685 b 567 589 456 685 522 653 b 635 356 612 525 635 447 b 563 114 635 254 611 173 b 368 25 516 55 450 25 b 176 113 287 25 222 54 b 106 353 129 171 106 251 b 176 595 106 455 129 535 b 367 685 224 655 287 685 z "},"e":{"ha":721,"x_min":0,"x_max":0,"o":"m 674 242 l 618 242 b 533 81 604 172 576 119 b 371 24 490 43 436 24 b 172 117 283 24 216 55 b 104 344 127 179 104 255 l 681 344 l 681 364 b 600 625 681 468 654 555 b 369 731 546 695 469 731 b 135 624 273 731 195 695 b 46 349 76 553 46 462 b 134 78 46 236 75 145 b 369 -24 193 10 271 -24 b 574 49 452 -24 520 1 b 674 242 627 98 661 162 z m 624 393 l 104 393 b 182 600 113 477 138 546 b 369 681 225 654 288 681 b 558 596 451 681 514 652 b 624 393 602 539 624 472 z "},"f":{"ha":335,"x_min":0,"x_max":0,"o":"m 353 990 b 294 994 325 993 306 994 b 160 945 227 994 182 978 b 128 800 139 912 128 864 l 128 711 l 4 711 l 4 663 l 128 663 l 128 0 l 183 0 l 183 663 l 332 663 l 332 711 l 183 711 l 183 772 l 183 786 b 184 835 183 808 184 825 b 190 877 184 846 187 860 b 208 914 194 894 200 906 b 242 935 216 921 227 928 b 297 944 256 941 275 944 b 353 940 305 944 323 943 z "},"g":{"ha":746,"x_min":0,"x_max":0,"o":"m 668 711 l 617 711 l 617 549 b 357 731 569 670 482 731 b 131 632 263 731 188 698 b 46 369 74 566 46 479 b 128 118 46 265 73 181 b 347 24 182 55 256 24 b 614 206 480 24 569 84 l 614 56 b 569 -140 614 -34 599 -100 b 363 -224 528 -196 459 -224 b 203 -181 297 -224 244 -209 b 136 -53 162 -152 140 -109 l 79 -53 b 160 -215 85 -123 112 -177 b 360 -271 208 -252 275 -271 b 628 -146 491 -271 581 -229 b 668 57 655 -99 668 -31 z m 358 681 b 544 599 435 681 497 653 b 614 382 591 544 614 472 b 547 162 614 294 592 221 b 354 74 503 103 438 74 b 171 156 277 74 216 101 b 103 376 125 210 103 284 b 172 598 103 469 126 543 b 358 681 219 653 281 681 z "},"h":{"ha":721,"x_min":0,"x_max":0,"o":"m 136 989 l 81 989 l 81 0 l 136 0 l 136 361 b 149 488 136 412 140 454 b 231 628 163 546 191 593 b 379 682 270 664 320 682 b 538 618 451 682 504 661 b 589 447 572 575 589 519 l 589 0 l 644 0 l 644 456 b 581 656 644 540 623 606 b 390 729 538 705 475 729 b 230 681 326 729 273 713 b 135 550 187 648 155 605 l 136 596 z "},"i":{"ha":233,"x_min":0,"x_max":0,"o":"m 144 989 l 89 989 l 89 849 l 144 849 z m 144 711 l 89 711 l 89 0 l 144 0 z "},"j":{"ha":233,"x_min":0,"x_max":0,"o":"m 146 711 l 90 711 l 90 -79 b 68 -181 90 -128 83 -162 b -22 -210 53 -200 23 -210 l -50 -210 l -50 -257 b -17 -260 -31 -259 -20 -260 b 112 -217 47 -260 90 -246 b 146 -75 135 -189 146 -142 z m 146 989 l 90 989 l 90 850 l 146 850 z "},"k":{"ha":643,"x_min":0,"x_max":0,"o":"m 650 711 l 574 711 l 192 385 b 163 359 185 379 176 371 b 135 333 151 347 141 339 l 135 989 l 79 989 l 79 0 l 135 0 l 135 269 l 296 407 l 600 0 l 671 0 l 338 446 z "},"l":{"ha":233,"x_min":0,"x_max":0,"o":"m 144 989 l 89 989 l 89 0 l 144 0 z "},"m":{"ha":1106,"x_min":0,"x_max":0,"o":"m 135 711 l 82 711 l 82 0 l 138 0 l 138 404 b 196 606 138 489 157 556 b 356 679 235 655 288 679 b 507 594 430 679 480 651 b 528 469 521 567 528 525 l 528 0 l 583 0 l 583 437 b 647 622 583 517 605 579 b 793 679 683 660 732 679 b 974 481 913 679 974 613 l 974 0 l 1029 0 l 1029 501 b 970 667 1029 570 1009 625 b 804 731 931 709 875 731 b 574 578 699 731 622 680 b 367 731 544 680 475 731 b 223 685 310 731 262 716 b 135 567 184 655 154 616 z "},"n":{"ha":721,"x_min":0,"x_max":0,"o":"m 133 711 l 79 711 l 79 0 l 135 0 l 135 368 b 175 564 135 451 148 517 b 383 681 220 642 290 681 b 590 439 521 681 590 600 l 590 0 l 646 0 l 646 467 b 580 660 646 549 624 614 b 396 731 536 707 475 731 b 133 554 273 731 185 672 z "},"o":{"ha":746,"x_min":0,"x_max":0,"o":"m 375 732 b 134 628 275 732 195 697 b 43 356 73 559 43 469 b 133 81 43 241 73 149 b 374 -21 192 13 273 -21 b 613 80 474 -21 553 13 b 703 351 673 147 703 238 b 613 628 703 467 673 559 b 375 732 553 697 474 732 z m 374 683 b 571 593 456 683 522 653 b 644 351 620 533 644 452 b 571 116 644 253 620 175 b 375 28 522 57 456 28 b 174 117 291 28 224 57 b 100 356 125 176 100 256 b 176 593 100 454 125 533 b 374 683 226 653 292 683 z "},"p":{"ha":772,"x_min":0,"x_max":0,"o":"m 139 711 l 86 711 l 86 -257 l 142 -257 l 142 161 b 238 24 159 102 191 56 b 406 -25 284 -9 340 -25 b 635 78 501 -25 578 9 b 722 351 693 147 722 238 b 635 627 722 466 693 558 b 404 731 578 696 500 731 b 139 542 274 731 185 668 z m 401 683 b 593 594 482 683 546 653 b 664 351 640 534 664 453 b 592 113 664 252 640 173 b 403 22 545 52 481 22 b 252 71 344 22 293 38 b 165 191 211 103 182 143 b 139 350 147 239 139 292 b 208 595 139 455 162 536 b 401 683 255 654 319 683 z "},"q":{"ha":772,"x_min":0,"x_max":0,"o":"m 686 711 l 633 711 l 633 544 b 368 733 585 670 497 733 b 135 630 271 733 193 699 b 49 353 78 561 49 469 b 134 81 49 239 77 148 b 362 -21 191 13 267 -21 b 631 163 495 -21 584 40 l 631 -257 l 686 -257 z m 369 685 b 562 597 451 685 515 655 b 632 353 609 538 632 456 b 560 115 632 253 608 173 b 368 26 513 56 449 26 b 176 114 287 26 224 56 b 106 351 129 172 106 251 b 176 595 106 454 129 535 b 369 685 224 655 288 685 z "},"r":{"ha":386,"x_min":0,"x_max":0,"o":"m 408 717 b 235 672 336 717 278 702 b 131 524 191 641 156 592 l 131 711 l 76 711 l 76 0 l 132 0 l 132 307 b 142 453 132 365 135 414 b 192 564 149 493 166 530 b 388 660 240 628 305 660 l 408 660 z "},"s":{"ha":668,"x_min":0,"x_max":0,"o":"m 596 504 b 523 673 595 578 571 634 b 328 731 475 711 410 731 b 137 679 246 731 183 713 b 68 538 91 645 68 598 b 73 492 68 521 70 506 b 90 454 76 478 82 465 b 113 424 97 443 105 433 b 144 400 120 416 131 407 l 179 383 b 219 369 188 379 202 374 b 260 358 237 364 250 360 b 302 349 269 356 283 353 b 340 340 321 345 334 342 b 347 340 342 340 344 340 b 353 339 349 339 351 339 l 358 336 b 413 324 383 331 402 326 b 465 306 425 321 442 315 b 515 278 487 297 504 288 b 547 240 526 269 537 256 b 561 185 556 223 561 205 b 499 71 561 138 541 100 b 339 28 458 42 405 28 b 163 81 263 28 204 45 b 101 239 122 116 101 169 l 46 239 b 124 47 46 156 72 92 b 336 -22 175 1 246 -22 b 540 35 420 -22 488 -3 b 617 188 591 74 617 125 b 599 264 617 216 611 242 b 559 316 587 286 573 303 b 493 352 545 328 523 341 b 426 376 463 364 441 372 b 353 393 412 380 387 386 b 319 400 347 394 336 396 b 284 408 302 404 290 406 b 253 417 278 410 268 413 b 222 426 238 420 228 423 b 197 437 217 428 208 432 b 172 451 185 442 177 447 b 154 467 168 455 162 460 b 138 488 147 474 141 481 b 130 513 135 495 132 503 b 126 543 128 522 126 532 b 178 644 126 586 144 619 b 319 682 213 669 260 682 b 476 640 387 682 439 668 b 539 504 512 613 533 567 z "},"t":{"ha":360,"x_min":0,"x_max":0,"o":"m 340 711 l 188 711 l 188 935 l 132 935 l 132 711 l 0 711 l 0 663 l 132 663 l 132 203 l 132 186 b 133 124 132 157 132 137 b 140 74 133 111 136 94 b 162 31 145 54 152 40 b 204 7 172 22 186 14 b 274 -4 223 0 246 -4 b 340 1 291 -4 313 -2 l 340 53 b 282 47 317 49 298 47 b 235 55 263 47 248 50 b 207 72 223 60 213 66 b 193 103 200 78 196 88 b 188 137 190 118 189 129 b 187 181 188 145 187 159 l 187 663 l 340 663 z "},"u":{"ha":721,"x_min":0,"x_max":0,"o":"m 636 711 l 581 711 l 581 325 b 519 115 581 243 560 172 b 339 28 479 57 419 28 b 132 265 201 28 132 107 l 132 711 l 76 711 l 76 253 b 140 53 76 169 98 102 b 328 -21 183 4 245 -21 b 583 150 448 -21 533 36 l 583 0 l 636 0 z "},"v":{"ha":617,"x_min":0,"x_max":0,"o":"m 621 711 l 563 711 l 376 214 b 319 56 350 144 331 91 b 293 128 315 69 306 93 b 263 211 280 164 270 192 l 58 711 l -3 711 l 286 0 l 351 0 z "},"w":{"ha":978,"x_min":0,"x_max":0,"o":"m 979 711 l 922 711 l 756 189 b 721 63 748 168 737 125 b 685 192 702 130 690 173 l 524 711 l 454 711 l 293 194 b 275 128 288 180 282 157 b 257 61 268 98 262 76 b 221 192 235 142 223 185 l 56 711 l -6 711 l 224 0 l 290 0 l 460 542 b 489 646 465 558 475 593 b 518 540 496 613 506 578 l 686 0 l 750 0 z "},"x":{"ha":617,"x_min":0,"x_max":0,"o":"m 600 711 l 533 711 l 307 414 l 85 711 l 13 711 l 272 372 l -10 0 l 57 0 l 307 333 l 556 0 l 628 0 l 343 375 z "},"y":{"ha":617,"x_min":0,"x_max":0,"o":"m 621 711 l 561 711 l 350 161 b 317 65 345 149 334 117 b 285 154 303 107 292 137 l 50 711 l -12 711 l 289 1 b 240 -114 279 -25 263 -63 b 190 -185 226 -147 210 -171 b 111 -207 171 -200 144 -207 b 65 -203 95 -207 80 -206 l 65 -253 b 119 -256 82 -255 100 -256 b 197 -244 150 -256 176 -252 b 250 -203 217 -237 235 -223 b 283 -150 265 -182 276 -165 b 314 -74 290 -135 300 -110 z "},"z":{"ha":592,"x_min":0,"x_max":0,"o":"m 557 711 l 47 711 l 47 663 l 489 663 l 13 53 l 13 0 l 578 0 l 578 49 l 75 49 l 557 665 z "},"{":{"ha":463,"x_min":0,"x_max":0,"o":"m 451 -257 l 451 -221 b 281 -125 366 -217 309 -185 b 260 28 267 -96 260 -45 l 260 85 b 258 169 260 122 259 150 b 248 242 257 189 254 213 b 222 307 242 270 233 292 b 170 349 210 322 193 336 b 86 374 147 362 119 370 b 170 399 119 377 147 386 b 222 440 193 412 210 425 b 248 506 233 455 242 477 b 258 578 254 534 257 558 b 260 663 259 597 260 625 l 260 719 b 281 872 260 793 267 844 b 451 968 309 932 366 964 l 451 1004 b 286 951 383 1004 328 987 b 234 875 263 932 246 906 b 214 794 222 844 216 816 b 211 699 212 771 211 739 l 211 601 b 172 451 211 530 198 480 b 14 392 146 423 94 403 l 14 356 b 172 296 94 344 146 325 b 211 146 198 267 211 217 l 211 49 b 214 -47 211 8 212 -24 b 234 -128 216 -69 222 -96 b 286 -204 246 -159 263 -185 b 451 -257 328 -239 383 -257 z "},"|":{"ha":308,"x_min":0,"x_max":0,"o":"m 129 -297 l 179 -297 l 179 1092 l 129 1092 z "},"}":{"ha":463,"x_min":0,"x_max":0,"o":"m 451 356 l 451 392 b 293 451 372 403 319 423 b 254 601 267 480 254 530 l 254 699 b 251 794 254 739 253 771 b 231 875 250 816 243 844 b 179 951 220 906 202 932 b 14 1004 138 987 82 1004 l 14 968 b 185 872 99 964 156 932 b 206 719 199 844 206 793 l 206 662 b 207 578 206 625 206 597 b 217 506 208 558 211 534 b 244 440 223 477 232 455 b 295 399 255 425 272 412 b 379 374 318 386 346 377 b 295 349 346 370 318 362 b 244 307 272 336 255 322 b 217 242 232 292 223 270 b 207 169 211 213 208 189 b 206 85 206 150 206 122 l 206 28 b 185 -125 206 -45 199 -96 b 14 -221 156 -185 99 -217 l 14 -257 b 179 -204 82 -257 138 -239 b 231 -128 202 -185 220 -159 b 251 -47 243 -96 250 -69 b 254 49 253 -24 254 8 l 254 146 b 293 296 254 217 267 267 b 451 356 319 325 372 344 z "},"~":{"ha":833,"x_min":0,"x_max":0,"o":"m 774 460 l 736 460 b 691 379 728 428 713 401 b 611 346 669 357 643 346 b 567 351 598 346 584 348 b 526 363 551 355 537 359 b 475 380 514 366 497 372 b 425 397 453 388 436 394 b 369 416 414 401 395 407 b 313 434 344 425 325 431 b 269 444 302 437 287 441 b 219 450 251 448 234 450 b 112 404 175 450 139 435 b 58 290 86 374 68 336 l 97 290 b 142 372 105 322 119 349 b 221 406 164 394 190 406 b 261 401 233 406 246 404 b 301 390 276 397 289 394 b 355 372 312 387 330 380 b 413 351 379 363 399 356 b 613 300 512 317 578 300 b 719 347 656 300 692 316 b 774 460 747 378 765 415 z "},"":{"ha":0,"x_min":0,"x_max":0,"o":""}," ":{"ha":386,"x_min":0,"x_max":0,"o":""},"¡":{"ha":360,"x_min":0,"x_max":0,"o":"m 144 743 l 144 600 l 215 600 l 215 743 z m 213 -256 l 213 79 l 196 482 l 163 482 l 146 79 l 146 -256 z "},"¢":{"ha":772,"x_min":0,"x_max":0,"o":"m 378 -164 l 422 -164 l 422 -17 b 608 62 496 -11 558 15 b 700 251 658 109 689 172 l 647 251 b 573 98 638 189 613 138 b 422 29 533 58 482 35 l 422 685 b 574 628 484 680 535 661 b 640 493 614 596 636 550 l 693 493 b 609 665 686 567 658 624 b 422 731 560 705 498 727 l 422 854 l 378 854 l 378 731 b 153 618 282 725 207 688 b 71 364 98 549 71 464 b 148 99 71 258 97 170 b 378 -17 199 27 276 -11 z m 378 29 b 189 128 295 35 232 68 b 124 364 145 189 124 268 b 192 583 124 447 146 520 b 378 685 237 645 299 679 z "},"£":{"ha":772,"x_min":0,"x_max":0,"o":"m 707 649 b 627 892 707 754 680 835 b 386 976 574 948 494 976 b 157 906 292 976 215 953 b 69 722 99 859 69 798 b 74 672 69 705 71 688 b 90 620 76 656 82 639 b 108 579 99 601 105 587 b 134 531 112 571 121 555 b 158 488 147 506 156 492 l 68 488 l 68 454 l 179 454 b 219 299 206 399 219 347 b 174 151 219 248 204 198 b 60 29 144 103 106 63 l 96 -21 b 258 42 154 21 208 42 b 356 24 290 42 322 36 b 389 11 358 23 369 19 b 428 -3 408 4 422 -1 b 462 -12 435 -5 447 -8 b 502 -22 477 -17 491 -20 b 538 -24 514 -23 525 -24 b 754 79 617 -24 689 11 l 724 121 b 633 53 699 93 669 71 b 533 28 598 36 565 28 b 497 32 522 28 510 29 b 465 40 483 35 472 37 b 428 52 457 42 444 46 b 396 64 411 58 400 62 b 279 89 351 81 313 89 b 129 43 238 89 188 74 b 203 122 162 75 186 102 b 251 203 219 143 235 169 b 274 307 266 236 274 271 b 239 454 274 353 262 402 l 440 454 l 440 488 l 219 488 b 182 555 215 498 202 520 b 139 643 162 590 147 619 b 126 719 131 667 126 693 b 198 869 126 781 150 831 b 385 926 246 907 308 926 b 651 649 560 926 649 834 z "},"¤":{"ha":772,"x_min":0,"x_max":0,"o":"m 81 222 l 113 190 l 201 278 b 386 208 255 231 317 208 b 572 278 454 208 516 231 l 661 189 l 693 221 l 604 310 b 674 496 650 369 674 431 b 606 682 674 560 651 622 l 693 769 l 661 803 l 572 714 b 386 782 519 759 456 782 b 200 714 319 782 256 759 l 112 803 l 79 771 l 168 682 b 100 496 123 625 100 563 b 168 310 100 429 123 367 z m 386 733 b 556 664 453 733 509 710 b 625 496 602 618 625 562 b 556 328 625 430 602 374 b 386 258 509 281 453 258 b 219 328 321 258 266 281 b 149 496 172 374 149 430 b 218 664 149 562 172 618 b 386 733 264 710 320 733 z "},"¥":{"ha":772,"x_min":0,"x_max":0,"o":"m -10 992 l 321 475 l 193 475 l 193 429 l 360 429 l 360 321 l 193 321 l 193 275 l 360 275 l 360 0 l 413 0 l 413 275 l 579 275 l 579 321 l 413 321 l 413 429 l 579 429 l 579 475 l 451 475 l 782 992 l 719 992 l 388 472 l 57 992 z "},"¦":{"ha":308,"x_min":0,"x_max":0,"o":"m 128 -124 l 181 -124 l 181 224 l 128 224 z m 128 571 l 181 571 l 181 918 l 128 918 z "},"§":{"ha":772,"x_min":0,"x_max":0,"o":"m 621 742 b 554 923 619 820 597 881 b 372 986 512 965 451 986 b 212 933 307 986 254 968 b 149 797 170 897 149 852 b 222 651 149 741 173 692 b 110 574 174 634 137 608 b 69 456 83 539 69 500 b 99 357 69 420 79 387 b 160 287 119 326 140 303 b 249 229 181 272 211 252 b 334 179 258 224 286 207 b 444 112 382 151 419 129 b 510 65 470 95 492 79 b 567 -50 548 35 567 -4 b 517 -155 567 -93 550 -128 b 388 -196 483 -182 440 -196 b 243 -143 325 -196 276 -178 b 190 12 210 -108 192 -56 l 135 12 b 201 -176 135 -68 157 -131 b 388 -244 246 -222 308 -244 b 559 -190 458 -244 515 -226 b 625 -47 603 -153 625 -106 b 542 108 625 9 597 61 b 658 186 591 125 629 151 b 700 303 686 221 700 260 b 601 476 700 365 667 423 b 358 626 563 508 482 558 b 302 658 330 642 311 653 b 258 691 293 664 279 675 b 216 741 238 707 224 724 b 204 799 208 758 204 777 b 251 899 204 839 220 873 b 371 937 282 925 322 937 b 565 742 495 937 560 872 z m 258 624 b 326 583 271 614 294 601 b 560 437 431 526 509 477 b 644 296 616 395 644 348 b 503 139 644 221 597 169 b 431 186 481 155 457 170 b 342 240 406 202 376 220 b 268 283 307 259 283 274 b 217 317 247 296 230 307 b 174 353 205 326 190 338 b 136 401 157 368 144 384 b 124 458 128 419 124 438 b 258 624 124 531 169 586 z "},"¨":{"ha":232,"x_min":0,"x_max":0,"o":"m 256 838 l 256 981 l 194 981 l 194 838 z m 36 838 l 36 981 l -25 981 l -25 838 z "},"©":{"ha":1111,"x_min":0,"x_max":0,"o":"m 556 1013 b 197 864 416 1013 296 963 b 47 504 97 765 47 645 b 196 146 47 365 97 246 b 556 -4 295 46 415 -4 b 915 144 695 -4 815 45 b 1064 504 1014 244 1064 363 b 915 863 1064 644 1014 764 b 556 1013 816 963 696 1013 z m 556 975 b 889 838 685 975 796 929 b 1028 504 981 746 1028 635 b 890 172 1028 375 982 264 b 556 33 797 79 686 33 b 224 171 427 33 316 79 b 85 504 131 263 85 374 b 222 837 85 634 131 745 b 556 975 314 929 425 975 z m 799 393 l 756 393 b 690 291 745 350 723 316 b 572 253 656 266 617 253 b 410 329 505 253 450 278 b 349 513 369 380 349 441 b 406 689 349 580 368 639 b 564 764 445 739 497 764 b 686 722 611 764 652 750 b 750 610 720 694 742 657 l 794 610 b 718 749 789 666 763 713 b 561 804 673 786 620 804 b 372 717 483 804 420 775 b 299 510 323 659 299 590 b 374 300 299 428 324 358 b 572 213 425 242 491 213 b 721 263 628 213 677 229 b 799 393 764 296 790 339 z "},"ª":{"ha":431,"x_min":0,"x_max":0,"o":"m 85 828 b 125 909 88 863 101 890 b 219 938 149 928 181 938 b 313 919 258 938 290 931 b 349 864 337 906 349 888 b 325 796 349 828 341 805 b 189 774 309 787 264 779 b 128 765 166 772 146 769 b 75 745 111 760 94 754 b 33 706 56 736 42 723 b 18 642 23 688 18 667 b 60 538 18 593 32 558 b 178 508 88 518 127 508 b 290 535 222 508 259 517 b 349 603 320 553 339 576 l 351 603 l 351 583 b 364 537 351 563 356 547 b 414 521 372 526 389 521 b 442 524 419 521 429 522 l 442 561 b 426 558 434 559 429 558 l 417 558 b 399 567 408 558 402 561 b 392 583 395 573 393 579 b 392 610 392 588 392 597 l 392 857 b 224 975 392 936 336 975 b 40 828 113 975 51 926 z m 347 692 b 342 658 347 682 345 671 b 320 611 338 645 331 630 b 266 565 309 593 291 577 b 174 546 241 552 210 546 b 92 573 139 546 112 555 b 63 642 72 591 63 614 b 185 736 63 694 103 726 b 231 740 194 737 209 738 b 280 744 252 742 268 744 b 317 753 291 745 304 748 b 347 769 331 757 341 763 z "},"«":{"ha":540,"x_min":0,"x_max":0,"o":"m 432 583 l 269 397 l 269 343 l 432 165 l 432 232 l 310 371 l 432 517 z m 251 581 l 92 400 l 92 343 l 251 165 l 251 233 l 132 371 l 251 515 z "},"¬":{"ha":833,"x_min":0,"x_max":0,"o":"m 76 476 l 708 476 l 708 222 l 756 222 l 756 522 l 76 522 z "},"­":{"ha":489,"x_min":0,"x_max":0,"o":"m 393 351 l 393 404 l 96 404 l 96 351 z "},"®":{"ha":556,"x_min":0,"x_max":0,"o":"m 276 1013 b 97 938 207 1013 147 988 b 22 758 47 889 22 829 b 97 578 22 689 47 629 b 276 503 146 528 206 503 b 456 578 346 503 406 528 b 531 758 506 628 531 688 b 456 937 531 828 506 887 b 276 1013 407 987 347 1013 z m 276 983 b 435 917 338 983 390 961 b 501 758 479 873 501 820 b 435 599 501 696 479 643 b 276 532 391 554 338 532 b 118 599 215 532 162 554 b 51 758 74 643 51 696 b 117 917 51 819 73 872 b 276 983 161 961 214 983 z m 182 894 l 182 625 l 214 625 l 214 737 l 265 737 b 336 722 300 737 324 732 b 354 657 348 711 354 689 b 361 625 354 645 356 634 l 396 625 b 388 665 390 634 388 648 b 342 751 388 708 372 737 b 390 815 374 763 390 785 b 361 874 390 841 381 861 b 290 894 342 888 318 894 z m 214 767 l 214 865 l 274 865 b 313 865 292 865 305 865 b 342 853 321 864 331 860 b 358 818 353 845 358 834 b 276 767 358 784 331 767 z "},"¯":{"ha":232,"x_min":0,"x_max":0,"o":"m 285 886 l 285 932 l -51 932 l -51 886 z "},"°":{"ha":556,"x_min":0,"x_max":0,"o":"m 278 972 b 140 915 224 972 178 953 b 82 775 101 876 82 830 b 140 637 82 721 101 675 b 278 579 178 598 224 579 b 417 637 331 579 378 598 b 475 775 456 675 475 721 b 417 915 475 830 456 876 b 278 972 379 953 332 972 z m 278 926 b 385 882 319 926 355 912 b 429 775 414 852 429 817 b 385 669 429 734 414 699 b 278 625 355 640 319 625 b 172 669 237 625 202 640 b 128 775 143 698 128 733 b 172 882 128 817 142 852 b 278 926 201 912 236 926 z "},"±":{"ha":833,"x_min":0,"x_max":0,"o":"m 388 106 l 436 106 l 436 367 l 751 367 l 751 413 l 436 413 l 436 675 l 388 675 l 388 413 l 72 413 l 72 367 l 388 367 z m 72 -6 l 751 -6 l 751 40 l 72 40 z "},"²":{"ha":463,"x_min":0,"x_max":0,"o":"m 67 419 b 85 459 70 433 76 447 b 108 490 93 472 101 482 b 141 519 115 497 126 507 b 175 544 156 531 168 540 b 218 571 182 549 197 558 b 260 597 239 584 253 593 b 388 699 314 631 357 665 b 435 811 419 732 435 769 b 379 933 435 865 416 906 b 236 975 342 961 294 975 b 33 765 108 975 41 905 l 78 765 b 236 937 84 880 137 937 b 351 901 286 937 324 925 b 390 812 377 876 390 847 b 353 720 390 779 378 748 b 262 646 328 692 297 667 b 155 580 226 625 191 603 b 62 495 119 557 88 529 b 22 382 37 461 23 424 l 439 382 l 439 419 z "},"³":{"ha":463,"x_min":0,"x_max":0,"o":"m 25 576 b 81 422 22 509 41 457 b 256 369 120 387 179 369 b 408 414 318 369 369 384 b 468 543 448 444 468 487 b 431 642 468 582 456 615 b 332 689 407 669 374 684 l 332 692 b 421 735 369 696 399 711 b 454 824 443 760 454 789 b 397 938 454 875 435 913 b 256 975 358 963 311 975 b 97 922 187 975 134 957 b 40 776 60 887 41 838 l 85 776 b 129 894 87 825 101 865 b 249 938 157 923 197 938 b 360 908 289 938 326 928 b 410 824 393 888 410 860 b 352 729 410 779 391 748 b 215 706 314 711 268 703 l 215 668 b 363 644 274 672 323 664 b 424 543 403 624 424 590 b 372 444 424 502 406 469 b 249 407 337 419 296 407 b 115 452 192 407 148 422 b 69 576 83 482 68 524 z "},"´":{"ha":232,"x_min":0,"x_max":0,"o":"m 36 819 l 88 819 l 274 1014 l 203 1014 z "},"µ":{"ha":721,"x_min":0,"x_max":0,"o":"m 585 711 l 585 336 b 572 210 585 286 581 244 b 519 110 564 175 546 142 b 343 28 473 55 414 28 b 189 91 274 28 222 49 b 139 260 156 133 139 189 l 139 711 l 82 711 l 82 -257 l 139 -257 l 139 94 b 342 -22 182 17 250 -22 b 586 147 447 -22 529 34 l 586 0 l 640 0 l 640 711 z "},"¶":{"ha":833,"x_min":0,"x_max":0,"o":"m 742 946 l 742 989 l 425 989 b 176 910 322 989 239 963 b 82 675 113 857 82 779 b 162 459 82 588 109 516 b 374 374 215 402 286 374 l 374 -231 l 424 -231 l 424 946 l 612 946 l 612 -231 l 664 -231 l 664 946 z "},"·":{"ha":386,"x_min":0,"x_max":0,"o":"m 217 493 l 147 493 l 147 351 l 217 351 z "},"¸":{"ha":232,"x_min":0,"x_max":0,"o":"m 115 0 l 38 -104 l 60 -122 b 133 -106 84 -111 108 -106 b 178 -122 149 -106 164 -111 b 200 -165 193 -132 200 -147 b 176 -217 200 -188 192 -206 b 115 -235 159 -229 139 -235 b 4 -204 84 -235 47 -225 l -11 -237 b 117 -272 25 -261 68 -272 b 253 -165 207 -272 253 -237 b 223 -93 253 -134 243 -110 b 150 -69 203 -76 179 -69 b 99 -81 132 -69 115 -73 l 96 -78 l 162 0 z "},"¹":{"ha":463,"x_min":0,"x_max":0,"o":"m 289 963 l 249 963 b 82 861 209 905 153 871 l 82 824 b 244 897 147 829 201 854 l 244 382 l 289 382 z "},"º":{"ha":464,"x_min":0,"x_max":0,"o":"m 232 546 b 101 601 175 546 131 564 b 57 742 72 638 57 685 b 101 882 57 798 72 845 b 232 938 131 919 175 938 b 362 882 289 938 333 919 b 407 742 392 845 407 798 b 362 601 407 685 392 638 b 232 546 333 564 289 546 z m 232 508 b 393 573 300 508 354 530 b 451 742 432 616 451 672 b 393 910 451 810 432 866 b 232 975 354 953 300 975 b 71 910 163 975 110 953 b 13 742 32 866 13 810 b 71 573 13 672 32 616 b 232 508 110 530 163 508 z "},"»":{"ha":540,"x_min":0,"x_max":0,"o":"m 289 581 l 289 511 l 410 375 l 289 232 l 289 165 l 449 347 l 449 401 z m 110 581 l 110 515 l 232 375 l 110 229 l 110 165 l 271 349 l 271 403 z "},"¼":{"ha":1158,"x_min":0,"x_max":0,"o":"m 890 182 l 642 182 l 888 529 l 890 529 z m 869 575 l 592 182 l 592 144 l 890 144 l 890 0 l 935 0 l 935 144 l 1033 144 l 1033 182 l 935 182 l 935 575 z m 338 963 l 297 963 b 131 861 257 905 202 871 l 131 824 b 293 897 195 829 250 854 l 293 382 l 338 382 z m 210 -33 l 265 -33 l 911 992 l 856 992 z "},"½":{"ha":1158,"x_min":0,"x_max":0,"o":"m 718 38 b 730 67 721 48 725 58 b 744 93 735 77 740 86 b 766 117 749 100 756 108 b 788 137 776 125 783 132 b 815 158 793 142 802 149 b 843 176 828 166 838 172 b 876 195 849 179 859 185 b 908 215 892 205 903 212 b 1037 317 963 250 1006 283 b 1083 429 1068 350 1083 387 b 1028 551 1083 483 1065 524 b 885 593 991 579 943 593 b 682 383 757 593 689 523 l 726 383 b 885 556 733 498 786 556 b 999 519 935 556 973 543 b 1039 431 1026 494 1039 465 b 1001 338 1039 397 1026 366 b 910 264 976 310 946 285 b 803 198 875 243 839 221 b 711 113 768 175 737 147 b 671 0 685 79 672 42 l 1087 0 l 1087 38 z m 296 963 l 256 963 b 89 861 216 905 160 871 l 89 824 b 251 897 154 829 208 854 l 251 382 l 296 382 z m 168 -33 l 224 -33 l 869 992 l 814 992 z "},"¾":{"ha":1158,"x_min":0,"x_max":0,"o":"m 932 182 l 683 182 l 929 529 l 932 529 z m 911 575 l 633 182 l 633 144 l 932 144 l 932 0 l 976 0 l 976 144 l 1075 144 l 1075 182 l 976 182 l 976 575 z m 275 -33 l 331 -33 l 976 992 l 921 992 z m 46 576 b 101 422 43 509 62 457 b 276 369 141 387 200 369 b 429 414 338 369 389 384 b 489 543 469 444 489 487 b 452 642 489 582 477 615 b 353 689 428 669 394 684 l 353 692 b 442 735 390 696 419 711 b 475 824 464 760 475 789 b 417 938 475 875 456 913 b 276 975 379 963 332 975 b 118 922 208 975 155 957 b 61 776 81 887 62 838 l 106 776 b 150 894 107 825 122 865 b 269 938 178 923 218 938 b 381 908 310 938 347 928 b 431 824 414 888 431 860 b 373 729 431 779 411 748 b 236 706 334 711 289 703 l 236 668 b 384 644 294 672 344 664 b 444 543 424 624 444 590 b 392 444 444 502 427 469 b 269 407 358 419 317 407 b 136 452 213 407 169 422 b 90 576 104 482 88 524 z "},"¿":{"ha":721,"x_min":0,"x_max":0,"o":"m 399 743 l 328 743 l 328 600 l 399 600 z m 607 58 b 542 -143 607 -25 585 -92 b 356 -219 498 -194 436 -219 b 197 -170 293 -219 240 -203 b 132 -24 153 -137 132 -88 b 154 67 132 7 139 37 b 201 139 169 96 185 120 b 269 207 218 157 241 180 b 360 327 309 245 340 285 b 392 492 381 369 392 424 l 339 492 b 328 389 339 453 335 419 b 292 309 322 359 309 333 b 252 258 275 285 262 269 b 203 212 242 248 226 233 b 155 164 179 188 163 172 b 119 119 147 156 135 141 b 88 53 104 97 93 75 b 79 -24 82 31 79 5 b 156 -208 79 -104 105 -166 b 351 -272 208 -251 273 -272 b 579 -183 450 -272 525 -242 b 660 58 633 -123 660 -43 z "},"À":{"ha":824,"x_min":0,"x_max":0,"o":"m 194 371 l 415 932 l 418 932 l 631 371 z m 382 992 l -17 0 l 49 0 l 175 318 l 650 318 l 775 0 l 840 0 l 449 992 z m 449 1083 l 282 1278 l 211 1278 l 397 1083 z "},"Á":{"ha":824,"x_min":0,"x_max":0,"o":"m 194 371 l 415 932 l 418 932 l 631 371 z m 382 992 l -17 0 l 49 0 l 175 318 l 650 318 l 775 0 l 840 0 l 449 992 z m 382 1083 l 433 1083 l 619 1278 l 549 1278 z "},"Â":{"ha":824,"x_min":0,"x_max":0,"o":"m 194 371 l 415 932 l 418 932 l 631 371 z m 382 992 l -17 0 l 49 0 l 175 318 l 650 318 l 775 0 l 840 0 l 449 992 z m 388 1278 l 228 1083 l 281 1083 l 415 1243 l 551 1083 l 604 1083 l 443 1278 z "},"Ã":{"ha":824,"x_min":0,"x_max":0,"o":"m 194 371 l 415 932 l 418 932 l 631 371 z m 382 992 l -17 0 l 49 0 l 175 318 l 650 318 l 775 0 l 840 0 l 449 992 z m 257 1110 b 322 1189 265 1163 287 1189 b 357 1182 334 1189 346 1187 b 417 1150 371 1176 391 1166 b 513 1110 460 1123 492 1110 b 587 1146 545 1110 570 1122 b 618 1235 604 1170 614 1200 l 578 1235 b 558 1179 575 1213 568 1195 b 515 1156 547 1163 533 1156 b 423 1197 498 1156 467 1170 b 324 1235 379 1224 346 1237 b 249 1197 293 1235 268 1222 b 217 1110 229 1172 219 1143 z "},"Ä":{"ha":824,"x_min":0,"x_max":0,"o":"m 194 371 l 415 932 l 418 932 l 631 371 z m 382 992 l -17 0 l 49 0 l 175 318 l 650 318 l 775 0 l 840 0 l 449 992 z m 557 1101 l 557 1244 l 496 1244 l 496 1101 z m 338 1101 l 338 1244 l 276 1244 l 276 1101 z "},"Å":{"ha":824,"x_min":0,"x_max":0,"o":"m 194 371 l 415 932 l 418 932 l 631 371 z m 382 992 l -17 0 l 49 0 l 175 318 l 650 318 l 775 0 l 840 0 l 449 992 z m 315 1181 b 344 1251 315 1208 325 1232 b 415 1281 364 1271 388 1281 b 486 1251 443 1281 467 1271 b 515 1181 506 1232 515 1208 b 486 1110 515 1153 506 1129 b 415 1081 467 1090 443 1081 b 344 1110 388 1081 364 1090 b 315 1181 325 1129 315 1153 z m 278 1181 b 317 1083 278 1142 291 1109 b 415 1043 344 1056 376 1043 b 513 1083 454 1043 487 1056 b 553 1181 540 1109 553 1142 b 513 1278 553 1219 540 1252 b 415 1318 487 1305 454 1318 b 317 1278 376 1318 344 1305 b 278 1181 291 1252 278 1219 z "},"Æ":{"ha":1208,"x_min":0,"x_max":0,"o":"m 599 406 l 254 406 l 533 939 l 599 939 z m -12 0 l 43 0 l 226 353 l 599 353 l 599 0 l 1188 0 l 1188 53 l 660 53 l 660 489 l 1146 489 l 1146 542 l 660 542 l 660 939 l 1186 939 l 1186 992 l 506 992 z "},"Ç":{"ha":978,"x_min":0,"x_max":0,"o":"m 921 696 b 914 735 921 702 919 715 b 881 814 909 754 898 781 b 815 907 863 847 841 878 b 698 983 788 936 749 961 b 522 1015 647 1004 588 1015 b 178 868 378 1015 263 966 b 50 496 93 770 50 646 b 122 203 50 386 74 288 b 322 17 169 119 236 56 b 478 -22 372 -6 424 -19 l 417 -104 l 439 -122 b 513 -106 463 -111 488 -106 b 558 -122 528 -106 543 -111 b 579 -165 572 -132 579 -147 b 555 -217 579 -188 571 -206 b 494 -235 539 -229 519 -235 b 383 -204 463 -235 426 -225 l 368 -237 b 496 -272 404 -261 447 -272 b 632 -165 587 -272 632 -237 b 602 -93 632 -134 622 -110 b 529 -69 582 -76 558 -69 b 478 -81 512 -69 494 -73 l 475 -78 l 521 -24 l 522 -24 b 803 92 631 -24 725 15 b 937 386 882 170 926 268 l 876 386 b 766 136 871 291 834 207 b 522 29 698 65 617 29 b 222 163 396 29 296 74 b 111 496 148 253 111 363 b 222 828 111 628 148 739 b 522 962 296 918 396 962 b 745 890 607 962 682 938 b 860 696 809 842 847 777 z "},"È":{"ha":778,"x_min":0,"x_max":0,"o":"m 149 53 l 149 489 l 718 489 l 718 542 l 149 542 l 149 939 l 754 939 l 754 992 l 88 992 l 88 0 l 761 0 l 761 53 z m 476 1083 l 310 1278 l 239 1278 l 425 1083 z "},"É":{"ha":778,"x_min":0,"x_max":0,"o":"m 149 53 l 149 489 l 718 489 l 718 542 l 149 542 l 149 939 l 754 939 l 754 992 l 88 992 l 88 0 l 761 0 l 761 53 z m 393 1083 l 444 1083 l 631 1278 l 560 1278 z "},"Ê":{"ha":778,"x_min":0,"x_max":0,"o":"m 149 53 l 149 489 l 718 489 l 718 542 l 149 542 l 149 939 l 754 939 l 754 992 l 88 992 l 88 0 l 761 0 l 761 53 z m 385 1278 l 225 1083 l 278 1083 l 413 1243 l 549 1083 l 601 1083 l 440 1278 z "},"Ë":{"ha":778,"x_min":0,"x_max":0,"o":"m 149 53 l 149 489 l 718 489 l 718 542 l 149 542 l 149 939 l 754 939 l 754 992 l 88 992 l 88 0 l 761 0 l 761 53 z m 563 1101 l 563 1244 l 501 1244 l 501 1101 z m 343 1101 l 343 1244 l 282 1244 l 282 1101 z "},"Ì":{"ha":236,"x_min":0,"x_max":0,"o":"m 88 0 l 149 0 l 149 992 l 88 992 z m 150 1083 l -17 1278 l -87 1278 l 99 1083 z "},"Í":{"ha":236,"x_min":0,"x_max":0,"o":"m 88 0 l 149 0 l 149 992 l 88 992 z m 89 1083 l 140 1083 l 326 1278 l 256 1278 z "},"Î":{"ha":236,"x_min":0,"x_max":0,"o":"m 88 0 l 149 0 l 149 992 l 88 992 z m 90 1278 l -69 1083 l -17 1083 l 118 1243 l 254 1083 l 307 1083 l 146 1278 z "},"Ï":{"ha":236,"x_min":0,"x_max":0,"o":"m 88 0 l 149 0 l 149 992 l 88 992 z m 258 1101 l 258 1244 l 197 1244 l 197 1101 z m 39 1101 l 39 1244 l -22 1244 l -22 1101 z "},"Ð":{"ha":926,"x_min":0,"x_max":0,"o":"m 149 550 l 149 939 l 403 939 b 503 933 439 939 472 937 b 608 900 533 928 569 918 b 710 828 648 882 682 859 b 781 698 738 798 761 755 b 810 497 800 641 810 574 b 786 320 810 431 802 372 b 724 192 770 268 750 225 b 633 111 699 159 669 132 b 527 66 598 90 563 75 b 415 53 491 57 454 53 l 149 53 l 149 504 l 515 504 l 515 550 z m 88 550 l -7 550 l -7 504 l 88 504 l 88 0 l 410 0 b 755 137 563 0 678 46 b 871 497 832 228 871 348 b 858 645 871 550 866 599 b 812 779 849 691 834 736 b 728 890 790 823 762 860 b 596 964 694 921 650 945 b 413 992 542 982 481 992 l 88 992 z "},"Ñ":{"ha":942,"x_min":0,"x_max":0,"o":"m 88 0 l 149 0 l 149 917 l 151 917 l 782 0 l 854 0 l 854 992 l 793 992 l 793 82 l 790 82 l 164 992 l 88 992 z m 326 1110 b 392 1189 335 1163 356 1189 b 426 1182 404 1189 415 1187 b 486 1150 440 1176 460 1166 b 582 1110 530 1123 562 1110 b 656 1146 614 1110 639 1122 b 687 1235 673 1170 684 1200 l 647 1235 b 627 1179 644 1213 638 1195 b 585 1156 616 1163 602 1156 b 492 1197 567 1156 536 1170 b 393 1235 448 1224 415 1237 b 318 1197 362 1235 337 1222 b 286 1110 299 1172 288 1143 z "},"Ò":{"ha":1029,"x_min":0,"x_max":0,"o":"m 104 496 b 215 828 104 628 141 739 b 515 962 289 918 389 962 b 814 828 640 962 740 918 b 925 496 888 739 925 628 b 814 163 925 363 888 253 b 515 29 740 74 640 29 b 215 163 389 29 289 74 b 104 496 141 253 104 363 z m 986 496 b 859 867 986 645 944 769 b 515 1015 774 966 660 1015 b 171 868 371 1015 256 966 b 43 496 86 770 43 646 b 171 124 43 346 86 222 b 515 -24 256 25 371 -24 b 859 124 660 -24 774 26 b 986 496 944 223 986 347 z m 557 1083 l 390 1278 l 319 1278 l 506 1083 z "},"Ó":{"ha":1029,"x_min":0,"x_max":0,"o":"m 104 496 b 215 828 104 628 141 739 b 515 962 289 918 389 962 b 814 828 640 962 740 918 b 925 496 888 739 925 628 b 814 163 925 363 888 253 b 515 29 740 74 640 29 b 215 163 389 29 289 74 b 104 496 141 253 104 363 z m 986 496 b 859 867 986 645 944 769 b 515 1015 774 966 660 1015 b 171 868 371 1015 256 966 b 43 496 86 770 43 646 b 171 124 43 346 86 222 b 515 -24 256 25 371 -24 b 859 124 660 -24 774 26 b 986 496 944 223 986 347 z m 468 1083 l 519 1083 l 706 1278 l 635 1278 z "},"Ô":{"ha":1029,"x_min":0,"x_max":0,"o":"m 104 496 b 215 828 104 628 141 739 b 515 962 289 918 389 962 b 814 828 640 962 740 918 b 925 496 888 739 925 628 b 814 163 925 363 888 253 b 515 29 740 74 640 29 b 215 163 389 29 289 74 b 104 496 141 253 104 363 z m 986 496 b 859 867 986 645 944 769 b 515 1015 774 966 660 1015 b 171 868 371 1015 256 966 b 43 496 86 770 43 646 b 171 124 43 346 86 222 b 515 -24 256 25 371 -24 b 859 124 660 -24 774 26 b 986 496 944 223 986 347 z m 489 1278 l 329 1083 l 382 1083 l 517 1243 l 653 1083 l 706 1083 l 544 1278 z "},"Õ":{"ha":1029,"x_min":0,"x_max":0,"o":"m 104 496 b 215 828 104 628 141 739 b 515 962 289 918 389 962 b 814 828 640 962 740 918 b 925 496 888 739 925 628 b 814 163 925 363 888 253 b 515 29 740 74 640 29 b 215 163 389 29 289 74 b 104 496 141 253 104 363 z m 986 496 b 859 867 986 645 944 769 b 515 1015 774 966 660 1015 b 171 868 371 1015 256 966 b 43 496 86 770 43 646 b 171 124 43 346 86 222 b 515 -24 256 25 371 -24 b 859 124 660 -24 774 26 b 986 496 944 223 986 347 z m 356 1110 b 421 1189 364 1163 386 1189 b 456 1182 433 1189 444 1187 b 515 1150 469 1176 489 1166 b 611 1110 559 1123 591 1110 b 685 1146 644 1110 668 1122 b 717 1235 703 1170 713 1200 l 676 1235 b 656 1179 674 1213 667 1195 b 614 1156 646 1163 631 1156 b 522 1197 596 1156 566 1170 b 422 1235 478 1224 444 1237 b 347 1197 392 1235 367 1222 b 315 1110 328 1172 317 1143 z "},"Ö":{"ha":1029,"x_min":0,"x_max":0,"o":"m 104 496 b 215 828 104 628 141 739 b 515 962 289 918 389 962 b 814 828 640 962 740 918 b 925 496 888 739 925 628 b 814 163 925 363 888 253 b 515 29 740 74 640 29 b 215 163 389 29 289 74 b 104 496 141 253 104 363 z m 986 496 b 859 867 986 645 944 769 b 515 1015 774 966 660 1015 b 171 868 371 1015 256 966 b 43 496 86 770 43 646 b 171 124 43 346 86 222 b 515 -24 256 25 371 -24 b 859 124 660 -24 774 26 b 986 496 944 223 986 347 z m 658 1101 l 658 1244 l 597 1244 l 597 1101 z m 439 1101 l 439 1244 l 378 1244 l 378 1101 z "},"×":{"ha":833,"x_min":0,"x_max":0,"o":"m 110 81 l 146 43 l 417 314 l 686 43 l 724 81 l 454 350 l 724 621 l 686 658 l 417 388 l 146 658 l 110 621 l 379 350 z "},"Ø":{"ha":1029,"x_min":0,"x_max":0,"o":"m 47 22 l 83 -11 l 189 106 b 515 -24 270 19 379 -24 b 859 124 660 -24 774 26 b 986 496 944 223 986 347 b 871 853 986 640 948 759 l 968 958 l 932 992 l 838 889 b 515 1015 753 973 646 1015 b 171 868 371 1015 256 966 b 43 496 86 770 43 646 b 157 142 43 356 81 238 z m 199 186 b 104 496 136 270 104 374 b 215 828 104 628 141 739 b 515 962 289 918 389 962 b 799 846 628 962 723 924 z m 831 808 b 925 496 894 722 925 618 b 814 163 925 363 888 253 b 515 29 740 74 640 29 b 229 150 400 29 304 69 z "},"Ù":{"ha":933,"x_min":0,"x_max":0,"o":"m 88 992 l 88 397 b 460 -24 88 117 212 -24 b 846 397 717 -24 846 117 l 846 992 l 785 992 l 785 397 b 710 124 785 278 760 187 b 460 29 660 61 576 29 b 317 57 405 29 358 38 b 226 124 277 75 247 98 b 176 217 205 150 188 181 b 153 312 163 254 156 286 b 149 397 150 339 149 368 l 149 992 z m 511 1083 l 344 1278 l 274 1278 l 460 1083 z "},"Ú":{"ha":933,"x_min":0,"x_max":0,"o":"m 88 992 l 88 397 b 460 -24 88 117 212 -24 b 846 397 717 -24 846 117 l 846 992 l 785 992 l 785 397 b 710 124 785 278 760 187 b 460 29 660 61 576 29 b 317 57 405 29 358 38 b 226 124 277 75 247 98 b 176 217 205 150 188 181 b 153 312 163 254 156 286 b 149 397 150 339 149 368 l 149 992 z m 406 1083 l 457 1083 l 643 1278 l 572 1278 z "},"Û":{"ha":933,"x_min":0,"x_max":0,"o":"m 88 992 l 88 397 b 460 -24 88 117 212 -24 b 846 397 717 -24 846 117 l 846 992 l 785 992 l 785 397 b 710 124 785 278 760 187 b 460 29 660 61 576 29 b 317 57 405 29 358 38 b 226 124 277 75 247 98 b 176 217 205 150 188 181 b 153 312 163 254 156 286 b 149 397 150 339 149 368 l 149 992 z m 436 1278 l 276 1083 l 329 1083 l 464 1243 l 600 1083 l 653 1083 l 492 1278 z "},"Ü":{"ha":933,"x_min":0,"x_max":0,"o":"m 88 992 l 88 397 b 460 -24 88 117 212 -24 b 846 397 717 -24 846 117 l 846 992 l 785 992 l 785 397 b 710 124 785 278 760 187 b 460 29 660 61 576 29 b 317 57 405 29 358 38 b 226 124 277 75 247 98 b 176 217 205 150 188 181 b 153 312 163 254 156 286 b 149 397 150 339 149 368 l 149 992 z m 611 1101 l 611 1244 l 550 1244 l 550 1101 z m 392 1101 l 392 1244 l 331 1244 l 331 1101 z "},"Ý":{"ha":797,"x_min":0,"x_max":0,"o":"m 399 467 l 40 992 l -29 992 l 367 415 l 367 0 l 428 0 l 428 415 l 826 992 l 758 992 z m 367 1083 l 418 1083 l 604 1278 l 533 1278 z "},"Þ":{"ha":824,"x_min":0,"x_max":0,"o":"m 149 772 l 506 772 b 624 749 552 772 591 764 b 697 688 657 733 681 713 b 728 617 712 663 722 639 b 738 550 734 594 738 572 b 679 394 738 490 718 438 b 497 328 640 350 580 328 l 149 328 z m 88 0 l 149 0 l 149 275 l 488 275 b 718 346 588 275 664 299 b 799 549 772 393 799 461 b 779 668 799 594 792 634 b 730 749 766 702 750 729 b 659 796 710 768 686 784 b 583 819 632 808 606 816 b 510 825 560 823 536 825 l 149 825 l 149 992 l 87 992 z "},"ß":{"ha":694,"x_min":0,"x_max":0,"o":"m 288 526 b 510 476 383 526 457 509 b 590 297 564 442 590 382 b 572 183 590 254 584 216 b 526 109 559 151 544 126 b 463 68 509 92 488 78 b 398 49 438 58 416 52 b 340 46 380 47 361 46 l 288 46 l 288 0 l 364 0 b 426 4 385 0 406 1 b 497 26 446 7 469 14 b 569 75 525 38 549 55 b 622 163 590 95 607 125 b 643 297 636 202 643 246 b 589 476 643 371 625 431 b 429 557 553 522 500 549 l 429 560 b 594 778 539 585 594 657 b 522 949 594 853 570 910 b 333 1008 473 989 410 1008 b 81 746 165 1008 81 921 l 81 0 l 133 0 l 133 746 b 333 963 133 890 200 963 b 483 914 394 963 443 946 b 542 778 522 881 542 836 b 469 623 542 708 518 657 b 287 572 421 589 361 572 z "},"à":{"ha":694,"x_min":0,"x_max":0,"o":"m 604 544 b 354 731 604 669 521 731 b 157 671 269 731 203 711 b 82 494 111 631 86 572 l 135 494 b 199 635 138 556 160 603 b 354 685 238 668 289 685 b 453 668 392 685 425 679 b 515 626 482 657 502 643 b 544 581 528 610 538 594 b 553 544 550 567 553 555 b 549 485 553 518 552 498 b 535 448 547 473 542 460 b 494 421 527 435 514 426 b 424 406 475 415 451 410 b 307 396 396 402 357 399 b 215 381 272 392 241 387 b 133 349 188 374 161 364 b 67 286 104 335 83 314 b 44 185 52 258 44 225 b 283 -17 44 50 124 -17 b 452 28 349 -17 405 -2 b 549 142 499 59 531 96 l 551 142 l 551 104 b 571 26 551 70 558 44 b 647 0 584 9 609 0 b 690 6 662 0 676 2 l 690 50 b 651 46 674 47 661 46 b 624 53 640 46 631 48 b 610 75 617 57 612 65 b 605 100 607 85 605 94 b 604 132 604 106 604 117 z m 551 272 b 547 232 551 261 550 248 b 526 171 544 216 537 196 b 483 103 515 146 501 123 b 404 51 465 84 438 66 b 285 29 370 37 330 29 b 145 72 224 29 177 44 b 97 185 113 101 97 138 b 146 300 97 237 113 275 b 293 350 178 325 227 342 b 390 359 311 353 343 356 b 497 374 436 362 472 367 b 551 406 521 380 539 391 z m 397 819 l 231 1014 l 160 1014 l 346 819 z "},"á":{"ha":694,"x_min":0,"x_max":0,"o":"m 604 544 b 354 731 604 669 521 731 b 157 671 269 731 203 711 b 82 494 111 631 86 572 l 135 494 b 199 635 138 556 160 603 b 354 685 238 668 289 685 b 453 668 392 685 425 679 b 515 626 482 657 502 643 b 544 581 528 610 538 594 b 553 544 550 567 553 555 b 549 485 553 518 552 498 b 535 448 547 473 542 460 b 494 421 527 435 514 426 b 424 406 475 415 451 410 b 307 396 396 402 357 399 b 215 381 272 392 241 387 b 133 349 188 374 161 364 b 67 286 104 335 83 314 b 44 185 52 258 44 225 b 283 -17 44 50 124 -17 b 452 28 349 -17 405 -2 b 549 142 499 59 531 96 l 551 142 l 551 104 b 571 26 551 70 558 44 b 647 0 584 9 609 0 b 690 6 662 0 676 2 l 690 50 b 651 46 674 47 661 46 b 624 53 640 46 631 48 b 610 75 617 57 612 65 b 605 100 607 85 605 94 b 604 132 604 106 604 117 z m 551 272 b 547 232 551 261 550 248 b 526 171 544 216 537 196 b 483 103 515 146 501 123 b 404 51 465 84 438 66 b 285 29 370 37 330 29 b 145 72 224 29 177 44 b 97 185 113 101 97 138 b 146 300 97 237 113 275 b 293 350 178 325 227 342 b 390 359 311 353 343 356 b 497 374 436 362 472 367 b 551 406 521 380 539 391 z m 304 819 l 356 819 l 542 1014 l 471 1014 z "},"â":{"ha":694,"x_min":0,"x_max":0,"o":"m 604 544 b 354 731 604 669 521 731 b 157 671 269 731 203 711 b 82 494 111 631 86 572 l 135 494 b 199 635 138 556 160 603 b 354 685 238 668 289 685 b 453 668 392 685 425 679 b 515 626 482 657 502 643 b 544 581 528 610 538 594 b 553 544 550 567 553 555 b 549 485 553 518 552 498 b 535 448 547 473 542 460 b 494 421 527 435 514 426 b 424 406 475 415 451 410 b 307 396 396 402 357 399 b 215 381 272 392 241 387 b 133 349 188 374 161 364 b 67 286 104 335 83 314 b 44 185 52 258 44 225 b 283 -17 44 50 124 -17 b 452 28 349 -17 405 -2 b 549 142 499 59 531 96 l 551 142 l 551 104 b 571 26 551 70 558 44 b 647 0 584 9 609 0 b 690 6 662 0 676 2 l 690 50 b 651 46 674 47 661 46 b 624 53 640 46 631 48 b 610 75 617 57 612 65 b 605 100 607 85 605 94 b 604 132 604 106 604 117 z m 551 272 b 547 232 551 261 550 248 b 526 171 544 216 537 196 b 483 103 515 146 501 123 b 404 51 465 84 438 66 b 285 29 370 37 330 29 b 145 72 224 29 177 44 b 97 185 113 101 97 138 b 146 300 97 237 113 275 b 293 350 178 325 227 342 b 390 359 311 353 343 356 b 497 374 436 362 472 367 b 551 406 521 380 539 391 z m 328 1014 l 168 819 l 221 819 l 356 979 l 492 819 l 544 819 l 383 1014 z "},"ã":{"ha":694,"x_min":0,"x_max":0,"o":"m 604 544 b 354 731 604 669 521 731 b 157 671 269 731 203 711 b 82 494 111 631 86 572 l 135 494 b 199 635 138 556 160 603 b 354 685 238 668 289 685 b 453 668 392 685 425 679 b 515 626 482 657 502 643 b 544 581 528 610 538 594 b 553 544 550 567 553 555 b 549 485 553 518 552 498 b 535 448 547 473 542 460 b 494 421 527 435 514 426 b 424 406 475 415 451 410 b 307 396 396 402 357 399 b 215 381 272 392 241 387 b 133 349 188 374 161 364 b 67 286 104 335 83 314 b 44 185 52 258 44 225 b 283 -17 44 50 124 -17 b 452 28 349 -17 405 -2 b 549 142 499 59 531 96 l 551 142 l 551 104 b 571 26 551 70 558 44 b 647 0 584 9 609 0 b 690 6 662 0 676 2 l 690 50 b 651 46 674 47 661 46 b 624 53 640 46 631 48 b 610 75 617 57 612 65 b 605 100 607 85 605 94 b 604 132 604 106 604 117 z m 551 272 b 547 232 551 261 550 248 b 526 171 544 216 537 196 b 483 103 515 146 501 123 b 404 51 465 84 438 66 b 285 29 370 37 330 29 b 145 72 224 29 177 44 b 97 185 113 101 97 138 b 146 300 97 237 113 275 b 293 350 178 325 227 342 b 390 359 311 353 343 356 b 497 374 436 362 472 367 b 551 406 521 380 539 391 z m 196 846 b 261 925 204 899 226 925 b 296 918 273 925 285 923 b 356 886 310 913 330 902 b 451 846 399 859 431 846 b 526 882 484 846 509 858 b 557 971 543 906 553 936 l 517 971 b 497 915 514 950 507 931 b 454 892 486 900 472 892 b 362 933 437 893 406 906 b 262 971 318 960 285 973 b 187 933 232 971 207 958 b 156 846 168 908 157 879 z "},"ä":{"ha":694,"x_min":0,"x_max":0,"o":"m 604 544 b 354 731 604 669 521 731 b 157 671 269 731 203 711 b 82 494 111 631 86 572 l 135 494 b 199 635 138 556 160 603 b 354 685 238 668 289 685 b 453 668 392 685 425 679 b 515 626 482 657 502 643 b 544 581 528 610 538 594 b 553 544 550 567 553 555 b 549 485 553 518 552 498 b 535 448 547 473 542 460 b 494 421 527 435 514 426 b 424 406 475 415 451 410 b 307 396 396 402 357 399 b 215 381 272 392 241 387 b 133 349 188 374 161 364 b 67 286 104 335 83 314 b 44 185 52 258 44 225 b 283 -17 44 50 124 -17 b 452 28 349 -17 405 -2 b 549 142 499 59 531 96 l 551 142 l 551 104 b 571 26 551 70 558 44 b 647 0 584 9 609 0 b 690 6 662 0 676 2 l 690 50 b 651 46 674 47 661 46 b 624 53 640 46 631 48 b 610 75 617 57 612 65 b 605 100 607 85 605 94 b 604 132 604 106 604 117 z m 551 272 b 547 232 551 261 550 248 b 526 171 544 216 537 196 b 483 103 515 146 501 123 b 404 51 465 84 438 66 b 285 29 370 37 330 29 b 145 72 224 29 177 44 b 97 185 113 101 97 138 b 146 300 97 237 113 275 b 293 350 178 325 227 342 b 390 359 311 353 343 356 b 497 374 436 362 472 367 b 551 406 521 380 539 391 z m 496 838 l 496 981 l 435 981 l 435 838 z m 276 838 l 276 981 l 215 981 l 215 838 z "},"å":{"ha":694,"x_min":0,"x_max":0,"o":"m 604 544 b 354 731 604 669 521 731 b 157 671 269 731 203 711 b 82 494 111 631 86 572 l 135 494 b 199 635 138 556 160 603 b 354 685 238 668 289 685 b 453 668 392 685 425 679 b 515 626 482 657 502 643 b 544 581 528 610 538 594 b 553 544 550 567 553 555 b 549 485 553 518 552 498 b 535 448 547 473 542 460 b 494 421 527 435 514 426 b 424 406 475 415 451 410 b 307 396 396 402 357 399 b 215 381 272 392 241 387 b 133 349 188 374 161 364 b 67 286 104 335 83 314 b 44 185 52 258 44 225 b 283 -17 44 50 124 -17 b 452 28 349 -17 405 -2 b 549 142 499 59 531 96 l 551 142 l 551 104 b 571 26 551 70 558 44 b 647 0 584 9 609 0 b 690 6 662 0 676 2 l 690 50 b 651 46 674 47 661 46 b 624 53 640 46 631 48 b 610 75 617 57 612 65 b 605 100 607 85 605 94 b 604 132 604 106 604 117 z m 551 272 b 547 232 551 261 550 248 b 526 171 544 216 537 196 b 483 103 515 146 501 123 b 404 51 465 84 438 66 b 285 29 370 37 330 29 b 145 72 224 29 177 44 b 97 185 113 101 97 138 b 146 300 97 237 113 275 b 293 350 178 325 227 342 b 390 359 311 353 343 356 b 497 374 436 362 472 367 b 551 406 521 380 539 391 z m 256 931 b 285 1001 256 958 265 982 b 356 1031 304 1021 328 1031 b 426 1001 383 1031 407 1021 b 456 931 446 982 456 958 b 426 860 456 903 446 879 b 356 831 407 840 383 831 b 285 860 328 831 304 840 b 256 931 265 879 256 903 z m 218 931 b 258 833 218 892 231 859 b 356 793 284 806 317 793 b 453 833 394 793 427 806 b 493 931 480 859 493 892 b 453 1028 493 969 480 1002 b 356 1068 427 1055 394 1068 b 258 1028 317 1068 284 1055 b 218 931 231 1002 218 969 z "},"æ":{"ha":1235,"x_min":0,"x_max":0,"o":"m 1189 350 b 1119 620 1198 456 1175 547 b 879 731 1064 694 984 731 b 608 549 742 731 652 670 l 606 549 b 356 731 596 670 513 731 b 158 671 273 731 207 711 b 75 490 108 631 81 571 l 128 490 b 356 685 137 620 213 685 b 513 644 426 685 478 671 b 564 518 547 618 564 575 b 556 462 566 496 563 477 b 529 428 549 447 540 435 b 483 410 518 420 503 414 b 429 401 464 405 446 402 b 366 398 413 400 391 399 b 304 393 341 397 320 395 b 44 182 131 387 44 316 b 117 33 44 116 69 67 b 300 -17 166 0 227 -17 b 479 38 369 -17 428 2 b 590 190 530 75 567 125 l 593 190 b 694 36 610 123 643 71 b 879 -17 744 1 806 -17 b 1081 51 961 -17 1028 6 b 1181 238 1134 96 1168 158 l 1128 238 b 1047 83 1118 171 1091 119 b 879 29 1003 47 947 29 b 678 122 791 29 724 60 b 618 350 633 183 613 259 z m 564 279 b 483 102 562 210 535 151 b 300 29 430 53 369 29 b 157 67 244 29 197 42 b 97 182 117 93 97 131 b 299 351 97 287 164 343 b 368 357 315 353 338 355 b 438 362 398 359 421 360 b 492 369 454 363 472 366 b 538 381 511 372 526 376 b 561 401 549 386 556 393 l 564 401 z m 617 396 b 692 603 623 479 648 548 b 879 685 735 657 798 685 b 1068 600 958 685 1021 656 b 1136 396 1115 544 1138 475 z "},"ç":{"ha":721,"x_min":0,"x_max":0,"o":"m 668 493 b 576 670 661 571 630 630 b 374 731 522 710 454 731 b 133 626 272 731 192 696 b 46 364 75 556 46 469 b 90 153 46 285 61 215 b 224 14 120 91 164 44 b 349 -15 258 -5 300 -14 l 283 -104 l 306 -122 b 379 -106 330 -111 354 -106 b 424 -122 395 -106 410 -111 b 446 -165 439 -132 446 -147 b 422 -217 446 -188 438 -206 b 361 -235 405 -229 385 -235 b 250 -204 330 -235 293 -225 l 235 -237 b 362 -272 271 -261 313 -272 b 499 -165 453 -272 499 -237 b 469 -93 499 -134 489 -110 b 396 -69 449 -76 425 -69 b 344 -81 378 -69 361 -73 l 342 -78 l 394 -15 b 482 1 425 -14 454 -9 b 611 93 534 19 577 50 b 675 251 645 137 667 189 l 622 251 b 540 91 613 186 586 132 b 374 29 495 50 439 29 b 169 121 285 29 217 60 b 99 364 122 182 99 263 b 173 590 99 451 123 526 b 374 685 222 653 289 685 b 540 635 440 685 496 668 b 615 493 585 601 610 554 z "},"è":{"ha":721,"x_min":0,"x_max":0,"o":"m 99 396 b 178 598 105 473 132 540 b 361 685 225 656 286 685 b 549 600 439 685 501 656 b 622 396 596 544 620 475 z m 675 350 b 602 622 681 458 656 549 b 361 731 548 694 468 731 b 126 617 259 731 181 693 b 46 344 71 541 44 450 b 127 87 44 242 71 156 b 361 -17 183 18 261 -17 b 569 50 447 -17 517 6 b 669 242 622 94 656 158 l 617 242 b 530 85 604 175 575 123 b 361 29 485 48 429 29 b 165 123 277 29 212 60 b 99 350 119 185 97 261 z m 404 819 l 238 1014 l 167 1014 l 353 819 z "},"é":{"ha":721,"x_min":0,"x_max":0,"o":"m 99 396 b 178 598 105 473 132 540 b 361 685 225 656 286 685 b 549 600 439 685 501 656 b 622 396 596 544 620 475 z m 675 350 b 602 622 681 458 656 549 b 361 731 548 694 468 731 b 126 617 259 731 181 693 b 46 344 71 541 44 450 b 127 87 44 242 71 156 b 361 -17 183 18 261 -17 b 569 50 447 -17 517 6 b 669 242 622 94 656 158 l 617 242 b 530 85 604 175 575 123 b 361 29 485 48 429 29 b 165 123 277 29 212 60 b 99 350 119 185 97 261 z m 331 819 l 382 819 l 568 1014 l 497 1014 z "},"ê":{"ha":721,"x_min":0,"x_max":0,"o":"m 99 396 b 178 598 105 473 132 540 b 361 685 225 656 286 685 b 549 600 439 685 501 656 b 622 396 596 544 620 475 z m 675 350 b 602 622 681 458 656 549 b 361 731 548 694 468 731 b 126 617 259 731 181 693 b 46 344 71 541 44 450 b 127 87 44 242 71 156 b 361 -17 183 18 261 -17 b 569 50 447 -17 517 6 b 669 242 622 94 656 158 l 617 242 b 530 85 604 175 575 123 b 361 29 485 48 429 29 b 165 123 277 29 212 60 b 99 350 119 185 97 261 z m 332 1014 l 172 819 l 225 819 l 360 979 l 496 819 l 549 819 l 388 1014 z "},"ë":{"ha":721,"x_min":0,"x_max":0,"o":"m 99 396 b 178 598 105 473 132 540 b 361 685 225 656 286 685 b 549 600 439 685 501 656 b 622 396 596 544 620 475 z m 675 350 b 602 622 681 458 656 549 b 361 731 548 694 468 731 b 126 617 259 731 181 693 b 46 344 71 541 44 450 b 127 87 44 242 71 156 b 361 -17 183 18 261 -17 b 569 50 447 -17 517 6 b 669 242 622 94 656 158 l 617 242 b 530 85 604 175 575 123 b 361 29 485 48 429 29 b 165 123 277 29 212 60 b 99 350 119 185 97 261 z m 500 838 l 500 981 l 439 981 l 439 838 z m 281 838 l 281 981 l 219 981 l 219 838 z "},"ì":{"ha":233,"x_min":0,"x_max":0,"o":"m 143 0 l 143 714 l 90 714 l 90 0 z m 144 819 l -22 1014 l -93 1014 l 93 819 z "},"í":{"ha":233,"x_min":0,"x_max":0,"o":"m 143 0 l 143 714 l 90 714 l 90 0 z m 89 819 l 140 819 l 326 1014 l 256 1014 z "},"î":{"ha":233,"x_min":0,"x_max":0,"o":"m 143 0 l 143 714 l 90 714 l 90 0 z m 89 1014 l -71 819 l -18 819 l 117 979 l 253 819 l 306 819 l 144 1014 z "},"ï":{"ha":233,"x_min":0,"x_max":0,"o":"m 143 0 l 143 714 l 90 714 l 90 0 z m 257 838 l 257 981 l 196 981 l 196 838 z m 38 838 l 38 981 l -24 981 l -24 838 z "},"ð":{"ha":746,"x_min":0,"x_max":0,"o":"m 203 808 l 232 778 l 388 864 b 603 603 491 783 563 696 l 600 600 b 374 703 544 669 469 703 b 133 600 272 703 191 669 b 44 346 74 531 44 447 b 128 84 44 238 72 151 b 374 -17 184 17 266 -17 b 615 85 478 -17 559 17 b 700 346 672 153 700 240 b 435 890 700 568 612 750 l 586 975 l 558 1006 l 399 917 b 249 1015 352 954 302 987 l 210 982 b 353 892 254 961 302 931 z m 374 657 b 575 566 460 657 527 627 b 647 346 623 505 647 432 b 578 119 647 255 624 180 b 374 29 531 59 463 29 b 169 122 285 29 216 60 b 97 346 121 183 97 258 b 171 566 97 432 122 505 b 374 657 220 627 288 657 z "},"ñ":{"ha":721,"x_min":0,"x_max":0,"o":"m 78 0 l 131 0 l 131 386 b 199 602 131 475 153 547 b 388 685 245 657 308 685 b 590 451 523 685 590 607 l 590 0 l 643 0 l 643 442 b 642 494 643 462 643 479 b 633 554 641 508 638 528 b 610 620 629 580 621 602 b 567 674 599 638 584 656 b 494 716 549 692 525 706 b 389 731 464 726 429 731 b 232 685 331 731 279 716 b 133 561 185 655 152 614 l 131 561 l 131 714 l 78 714 z m 204 846 b 269 925 213 899 234 925 b 304 918 281 925 293 923 b 364 886 318 913 338 902 b 460 846 407 859 439 846 b 534 882 492 846 517 858 b 565 971 551 906 562 936 l 525 971 b 505 915 522 950 516 931 b 462 892 494 900 480 892 b 370 933 445 893 414 906 b 271 971 326 960 293 973 b 196 933 240 971 215 958 b 164 846 176 908 166 879 z "},"ò":{"ha":746,"x_min":0,"x_max":0,"o":"m 97 357 b 171 589 97 448 122 525 b 372 685 220 653 287 685 b 574 589 457 685 525 653 b 647 357 623 525 647 448 b 574 125 647 266 623 189 b 372 29 525 61 457 29 b 171 125 287 29 220 61 b 97 357 122 189 97 266 z m 44 357 b 132 90 44 250 74 162 b 372 -17 190 19 270 -17 b 613 90 474 -17 554 19 b 700 357 671 162 700 250 b 613 624 700 463 671 552 b 372 731 554 695 474 731 b 132 624 270 731 190 695 b 44 357 74 552 44 463 z m 421 819 l 254 1014 l 183 1014 l 369 819 z "},"ó":{"ha":746,"x_min":0,"x_max":0,"o":"m 97 357 b 171 589 97 448 122 525 b 372 685 220 653 287 685 b 574 589 457 685 525 653 b 647 357 623 525 647 448 b 574 125 647 266 623 189 b 372 29 525 61 457 29 b 171 125 287 29 220 61 b 97 357 122 189 97 266 z m 44 357 b 132 90 44 250 74 162 b 372 -17 190 19 270 -17 b 613 90 474 -17 554 19 b 700 357 671 162 700 250 b 613 624 700 463 671 552 b 372 731 554 695 474 731 b 132 624 270 731 190 695 b 44 357 74 552 44 463 z m 340 819 l 392 819 l 578 1014 l 507 1014 z "},"ô":{"ha":746,"x_min":0,"x_max":0,"o":"m 97 357 b 171 589 97 448 122 525 b 372 685 220 653 287 685 b 574 589 457 685 525 653 b 647 357 623 525 647 448 b 574 125 647 266 623 189 b 372 29 525 61 457 29 b 171 125 287 29 220 61 b 97 357 122 189 97 266 z m 44 357 b 132 90 44 250 74 162 b 372 -17 190 19 270 -17 b 613 90 474 -17 554 19 b 700 357 671 162 700 250 b 613 624 700 463 671 552 b 372 731 554 695 474 731 b 132 624 270 731 190 695 b 44 357 74 552 44 463 z m 344 1014 l 185 819 l 238 819 l 372 979 l 508 819 l 561 819 l 400 1014 z "},"õ":{"ha":746,"x_min":0,"x_max":0,"o":"m 97 357 b 171 589 97 448 122 525 b 372 685 220 653 287 685 b 574 589 457 685 525 653 b 647 357 623 525 647 448 b 574 125 647 266 623 189 b 372 29 525 61 457 29 b 171 125 287 29 220 61 b 97 357 122 189 97 266 z m 44 357 b 132 90 44 250 74 162 b 372 -17 190 19 270 -17 b 613 90 474 -17 554 19 b 700 357 671 162 700 250 b 613 624 700 463 671 552 b 372 731 554 695 474 731 b 132 624 270 731 190 695 b 44 357 74 552 44 463 z m 213 846 b 278 925 221 899 243 925 b 313 918 290 925 301 923 b 372 886 326 913 346 902 b 468 846 416 859 448 846 b 542 882 500 846 525 858 b 574 971 559 906 570 936 l 533 971 b 513 915 531 950 524 931 b 471 892 503 900 488 892 b 378 933 453 893 422 906 b 279 971 334 960 301 973 b 204 933 249 971 224 958 b 172 846 185 908 174 879 z "},"ö":{"ha":746,"x_min":0,"x_max":0,"o":"m 97 357 b 171 589 97 448 122 525 b 372 685 220 653 287 685 b 574 589 457 685 525 653 b 647 357 623 525 647 448 b 574 125 647 266 623 189 b 372 29 525 61 457 29 b 171 125 287 29 220 61 b 97 357 122 189 97 266 z m 44 357 b 132 90 44 250 74 162 b 372 -17 190 19 270 -17 b 613 90 474 -17 554 19 b 700 357 671 162 700 250 b 613 624 700 463 671 552 b 372 731 554 695 474 731 b 132 624 270 731 190 695 b 44 357 74 552 44 463 z m 513 838 l 513 981 l 451 981 l 451 838 z m 293 838 l 293 981 l 232 981 l 232 838 z "},"÷":{"ha":833,"x_min":0,"x_max":0,"o":"m 453 511 l 453 650 l 383 650 l 383 511 z m 768 351 l 768 397 l 67 397 l 67 351 z m 453 99 l 453 238 l 383 238 l 383 99 z "},"ø":{"ha":746,"x_min":0,"x_max":0,"o":"m 713 681 l 679 713 l 603 632 b 372 731 544 698 468 731 b 132 624 270 731 190 695 b 44 357 74 552 44 463 b 114 117 44 263 68 182 l 35 32 l 68 0 l 143 79 b 372 -17 201 15 278 -17 b 613 90 474 -17 554 19 b 700 357 671 162 700 250 b 632 594 700 449 677 528 z m 594 556 b 647 357 630 502 647 436 b 574 125 647 266 623 189 b 372 29 525 61 457 29 b 179 117 293 29 228 58 z m 151 156 b 97 357 115 209 97 276 b 171 589 97 448 122 525 b 372 685 220 653 287 685 b 567 594 454 685 519 655 z "},"ù":{"ha":721,"x_min":0,"x_max":0,"o":"m 643 714 l 590 714 l 590 328 b 522 112 590 239 567 167 b 333 29 476 57 413 29 b 131 263 198 29 131 107 l 131 714 l 78 714 l 78 272 b 79 220 78 252 78 234 b 88 160 80 206 83 186 b 111 94 92 134 100 112 b 154 40 122 76 137 58 b 226 -2 172 22 196 8 b 332 -17 257 -12 292 -17 b 489 28 389 -17 442 -2 b 588 153 536 59 569 100 l 590 153 l 590 0 l 643 0 z m 413 819 l 246 1014 l 175 1014 l 361 819 z "},"ú":{"ha":721,"x_min":0,"x_max":0,"o":"m 643 714 l 590 714 l 590 328 b 522 112 590 239 567 167 b 333 29 476 57 413 29 b 131 263 198 29 131 107 l 131 714 l 78 714 l 78 272 b 79 220 78 252 78 234 b 88 160 80 206 83 186 b 111 94 92 134 100 112 b 154 40 122 76 137 58 b 226 -2 172 22 196 8 b 332 -17 257 -12 292 -17 b 489 28 389 -17 442 -2 b 588 153 536 59 569 100 l 590 153 l 590 0 l 643 0 z m 324 819 l 375 819 l 561 1014 l 490 1014 z "},"û":{"ha":721,"x_min":0,"x_max":0,"o":"m 643 714 l 590 714 l 590 328 b 522 112 590 239 567 167 b 333 29 476 57 413 29 b 131 263 198 29 131 107 l 131 714 l 78 714 l 78 272 b 79 220 78 252 78 234 b 88 160 80 206 83 186 b 111 94 92 134 100 112 b 154 40 122 76 137 58 b 226 -2 172 22 196 8 b 332 -17 257 -12 292 -17 b 489 28 389 -17 442 -2 b 588 153 536 59 569 100 l 590 153 l 590 0 l 643 0 z m 325 1014 l 165 819 l 218 819 l 353 979 l 489 819 l 542 819 l 381 1014 z "},"ü":{"ha":721,"x_min":0,"x_max":0,"o":"m 643 714 l 590 714 l 590 328 b 522 112 590 239 567 167 b 333 29 476 57 413 29 b 131 263 198 29 131 107 l 131 714 l 78 714 l 78 272 b 79 220 78 252 78 234 b 88 160 80 206 83 186 b 111 94 92 134 100 112 b 154 40 122 76 137 58 b 226 -2 172 22 196 8 b 332 -17 257 -12 292 -17 b 489 28 389 -17 442 -2 b 588 153 536 59 569 100 l 590 153 l 590 0 l 643 0 z m 494 838 l 494 981 l 433 981 l 433 838 z m 275 838 l 275 981 l 214 981 l 214 838 z "},"ý":{"ha":617,"x_min":0,"x_max":0,"o":"m 290 4 b 217 -164 256 -93 231 -149 b 158 -201 198 -182 178 -195 b 68 -210 137 -207 107 -210 l 68 -256 b 173 -250 114 -256 149 -254 b 235 -224 197 -246 217 -237 b 318 -76 257 -208 285 -159 l 624 714 l 564 714 l 319 63 l 54 714 l -8 714 z m 287 819 l 339 819 l 525 1014 l 454 1014 z "},"þ":{"ha":772,"x_min":0,"x_max":0,"o":"m 90 -256 l 143 -256 l 143 149 l 146 149 b 406 -17 187 38 273 -17 b 645 85 511 -17 591 17 b 726 356 699 152 726 243 b 644 623 726 462 699 551 b 406 731 589 695 509 731 b 233 674 335 731 278 712 b 146 550 189 637 160 595 l 143 550 l 143 992 l 90 992 z m 406 29 b 281 56 357 29 316 38 b 199 129 245 73 218 98 b 158 232 180 161 166 195 b 144 356 149 269 144 310 b 208 590 144 449 166 527 b 406 685 251 653 317 685 b 606 588 494 685 561 653 b 674 356 651 524 674 446 b 606 122 674 261 651 183 b 406 29 560 60 494 29 z "},"ÿ":{"ha":617,"x_min":0,"x_max":0,"o":"m 290 4 b 217 -164 256 -93 231 -149 b 158 -201 198 -182 178 -195 b 68 -210 137 -207 107 -210 l 68 -256 b 173 -250 114 -256 149 -254 b 235 -224 197 -246 217 -237 b 318 -76 257 -208 285 -159 l 624 714 l 564 714 l 319 63 l 54 714 l -8 714 z m 458 838 l 458 981 l 397 981 l 397 838 z m 239 838 l 239 981 l 178 981 l 178 838 z "},"Ā":{"ha":824,"x_min":0,"x_max":0,"o":"m 194 371 l 415 932 l 418 932 l 631 371 z m 382 992 l -17 0 l 49 0 l 175 318 l 650 318 l 775 0 l 840 0 l 449 992 z m 583 1150 l 583 1196 l 247 1196 l 247 1150 z "},"ā":{"ha":694,"x_min":0,"x_max":0,"o":"m 604 544 b 354 731 604 669 521 731 b 157 671 269 731 203 711 b 82 494 111 631 86 572 l 135 494 b 199 635 138 556 160 603 b 354 685 238 668 289 685 b 453 668 392 685 425 679 b 515 626 482 657 502 643 b 544 581 528 610 538 594 b 553 544 550 567 553 555 b 549 485 553 518 552 498 b 535 448 547 473 542 460 b 494 421 527 435 514 426 b 424 406 475 415 451 410 b 307 396 396 402 357 399 b 215 381 272 392 241 387 b 133 349 188 374 161 364 b 67 286 104 335 83 314 b 44 185 52 258 44 225 b 283 -17 44 50 124 -17 b 452 28 349 -17 405 -2 b 549 142 499 59 531 96 l 551 142 l 551 104 b 571 26 551 70 558 44 b 647 0 584 9 609 0 b 690 6 662 0 676 2 l 690 50 b 651 46 674 47 661 46 b 624 53 640 46 631 48 b 610 75 617 57 612 65 b 605 100 607 85 605 94 b 604 132 604 106 604 117 z m 551 272 b 547 232 551 261 550 248 b 526 171 544 216 537 196 b 483 103 515 146 501 123 b 404 51 465 84 438 66 b 285 29 370 37 330 29 b 145 72 224 29 177 44 b 97 185 113 101 97 138 b 146 300 97 237 113 275 b 293 350 178 325 227 342 b 390 359 311 353 343 356 b 497 374 436 362 472 367 b 551 406 521 380 539 391 z m 529 886 l 529 932 l 193 932 l 193 886 z "},"Ă":{"ha":824,"x_min":0,"x_max":0,"o":"m 194 371 l 415 932 l 418 932 l 631 371 z m 382 992 l -17 0 l 49 0 l 175 318 l 650 318 l 775 0 l 840 0 l 449 992 z m 558 1264 b 512 1176 552 1228 536 1199 b 421 1143 487 1154 457 1143 b 274 1264 342 1143 293 1183 l 228 1264 b 290 1142 234 1212 255 1171 b 422 1097 324 1112 369 1097 b 544 1147 469 1097 509 1114 b 604 1264 578 1179 599 1219 z "},"ă":{"ha":694,"x_min":0,"x_max":0,"o":"m 604 544 b 354 731 604 669 521 731 b 157 671 269 731 203 711 b 82 494 111 631 86 572 l 135 494 b 199 635 138 556 160 603 b 354 685 238 668 289 685 b 453 668 392 685 425 679 b 515 626 482 657 502 643 b 544 581 528 610 538 594 b 553 544 550 567 553 555 b 549 485 553 518 552 498 b 535 448 547 473 542 460 b 494 421 527 435 514 426 b 424 406 475 415 451 410 b 307 396 396 402 357 399 b 215 381 272 392 241 387 b 133 349 188 374 161 364 b 67 286 104 335 83 314 b 44 185 52 258 44 225 b 283 -17 44 50 124 -17 b 452 28 349 -17 405 -2 b 549 142 499 59 531 96 l 551 142 l 551 104 b 571 26 551 70 558 44 b 647 0 584 9 609 0 b 690 6 662 0 676 2 l 690 50 b 651 46 674 47 661 46 b 624 53 640 46 631 48 b 610 75 617 57 612 65 b 605 100 607 85 605 94 b 604 132 604 106 604 117 z m 551 272 b 547 232 551 261 550 248 b 526 171 544 216 537 196 b 483 103 515 146 501 123 b 404 51 465 84 438 66 b 285 29 370 37 330 29 b 145 72 224 29 177 44 b 97 185 113 101 97 138 b 146 300 97 237 113 275 b 293 350 178 325 227 342 b 390 359 311 353 343 356 b 497 374 436 362 472 367 b 551 406 521 380 539 391 z m 489 1000 b 442 913 482 964 467 935 b 351 879 418 890 387 879 b 204 1000 273 879 224 919 l 158 1000 b 220 878 165 948 185 907 b 353 833 255 848 299 833 b 474 883 399 833 440 850 b 535 1000 509 916 529 955 z "},"Ą":{"ha":824,"x_min":0,"x_max":0,"o":"m 840 0 l 449 992 l 382 992 l -17 0 l 49 0 l 175 318 l 650 318 l 775 0 b 633 -178 681 -63 633 -122 b 747 -272 633 -241 671 -272 b 867 -189 803 -272 843 -244 l 835 -178 b 798 -216 822 -196 809 -209 b 753 -226 786 -223 771 -226 b 712 -210 737 -226 723 -221 b 694 -168 700 -200 694 -186 b 808 0 694 -123 732 -67 z m 194 371 l 415 932 l 418 932 l 631 371 z "},"ą":{"ha":694,"x_min":0,"x_max":0,"o":"m 604 544 b 354 731 604 669 521 731 b 157 671 269 731 203 711 b 82 494 111 631 86 572 l 135 494 b 199 635 138 556 160 603 b 354 685 238 668 289 685 b 453 668 392 685 425 679 b 515 626 482 657 502 643 b 544 581 528 610 538 594 b 553 544 550 567 553 555 b 549 485 553 518 552 498 b 535 448 547 473 542 460 b 494 421 527 435 514 426 b 424 406 475 415 451 410 b 307 396 396 402 357 399 b 215 381 272 392 241 387 b 133 349 188 374 161 364 b 67 286 104 335 83 314 b 44 185 52 258 44 225 b 283 -17 44 50 124 -17 b 452 28 349 -17 405 -2 b 549 142 499 59 531 96 l 551 142 l 551 104 b 596 8 551 54 566 22 b 606 4 600 6 603 5 b 528 -54 569 -22 544 -41 b 458 -178 481 -96 458 -137 b 572 -272 458 -241 496 -272 b 692 -189 628 -272 668 -244 l 660 -178 b 623 -216 647 -196 634 -209 b 578 -226 611 -223 596 -226 b 537 -210 562 -226 548 -221 b 519 -168 525 -200 519 -186 b 633 0 519 -123 557 -67 l 647 0 b 690 6 662 0 676 2 l 690 50 b 651 46 674 47 661 46 b 624 53 640 46 631 48 b 610 75 617 57 613 65 b 605 100 607 85 605 94 b 604 132 604 106 604 117 z m 551 272 b 547 232 551 261 550 248 b 526 171 544 216 538 196 b 483 103 515 146 501 123 b 404 51 465 84 438 66 b 285 29 370 37 330 29 b 145 72 224 29 177 44 b 97 185 113 101 97 138 b 146 300 97 237 113 275 b 293 350 178 325 227 342 b 390 359 311 353 343 356 b 497 374 436 362 472 367 b 551 406 521 380 539 391 z "},"Ć":{"ha":978,"x_min":0,"x_max":0,"o":"m 921 696 b 914 735 921 702 919 715 b 881 814 909 754 898 781 b 815 907 863 847 841 878 b 698 983 788 936 749 961 b 522 1015 647 1004 588 1015 b 178 868 378 1015 263 966 b 50 496 93 770 50 646 b 178 124 50 346 93 222 b 522 -24 263 25 378 -24 b 803 92 631 -24 725 15 b 938 386 882 170 926 268 l 876 386 b 766 136 871 291 834 207 b 522 29 698 65 617 29 b 222 163 396 29 296 74 b 111 496 148 253 111 363 b 222 828 111 628 148 739 b 522 962 296 918 396 962 b 745 890 607 962 682 938 b 860 696 809 842 847 777 z m 489 1083 l 540 1083 l 726 1278 l 656 1278 z "},"ć":{"ha":721,"x_min":0,"x_max":0,"o":"m 668 493 b 576 670 661 571 630 630 b 374 731 522 710 454 731 b 133 626 272 731 192 696 b 46 364 75 556 46 469 b 128 92 46 255 73 164 b 374 -17 182 19 264 -17 b 575 55 452 -17 519 7 b 675 251 631 103 664 168 l 622 251 b 540 91 613 186 586 132 b 374 29 495 50 439 29 b 169 121 285 29 217 60 b 99 364 122 182 99 263 b 173 590 99 451 123 526 b 374 685 222 653 289 685 b 540 635 440 685 496 668 b 615 493 585 601 610 554 z m 340 819 l 392 819 l 578 1014 l 507 1014 z "},"Ĉ":{"ha":978,"x_min":0,"x_max":0,"o":"m 921 696 b 914 735 921 702 919 715 b 881 814 909 754 898 781 b 815 907 863 847 841 878 b 698 983 788 936 749 961 b 522 1015 647 1004 588 1015 b 178 868 378 1015 263 966 b 50 496 93 770 50 646 b 178 124 50 346 93 222 b 522 -24 263 25 378 -24 b 803 92 631 -24 725 15 b 938 386 882 170 926 268 l 876 386 b 766 136 871 291 834 207 b 522 29 698 65 617 29 b 222 163 396 29 296 74 b 111 496 148 253 111 363 b 222 828 111 628 148 739 b 522 962 296 918 396 962 b 745 890 607 962 682 938 b 860 696 809 842 847 777 z m 486 1278 l 326 1083 l 379 1083 l 514 1243 l 650 1083 l 703 1083 l 542 1278 z "},"ĉ":{"ha":721,"x_min":0,"x_max":0,"o":"m 668 493 b 576 670 661 571 630 630 b 374 731 522 710 454 731 b 133 626 272 731 192 696 b 46 364 75 556 46 469 b 128 92 46 255 73 164 b 374 -17 182 19 264 -17 b 575 55 452 -17 519 7 b 675 251 631 103 664 168 l 622 251 b 540 91 613 186 586 132 b 374 29 495 50 439 29 b 169 121 285 29 217 60 b 99 364 122 182 99 263 b 173 590 99 451 123 526 b 374 685 222 653 289 685 b 540 635 440 685 496 668 b 615 493 585 601 610 554 z m 347 1014 l 188 819 l 240 819 l 375 979 l 511 819 l 564 819 l 403 1014 z "},"Ċ":{"ha":978,"x_min":0,"x_max":0,"o":"m 921 696 b 914 735 921 702 919 715 b 881 814 909 754 898 781 b 815 907 863 847 841 878 b 698 983 788 936 749 961 b 522 1015 647 1004 588 1015 b 178 868 378 1015 263 966 b 50 496 93 770 50 646 b 178 124 50 346 93 222 b 522 -24 263 25 378 -24 b 803 92 631 -24 725 15 b 938 386 882 170 926 268 l 876 386 b 766 136 871 291 834 207 b 522 29 698 65 617 29 b 222 163 396 29 296 74 b 111 496 148 253 111 363 b 222 828 111 628 148 739 b 522 962 296 918 396 962 b 745 890 607 962 682 938 b 860 696 809 842 847 777 z m 550 1101 l 550 1244 l 489 1244 l 489 1101 z "},"ċ":{"ha":721,"x_min":0,"x_max":0,"o":"m 668 493 b 576 670 661 571 630 630 b 374 731 522 710 454 731 b 133 626 272 731 192 696 b 46 364 75 556 46 469 b 128 92 46 255 73 164 b 374 -17 182 19 264 -17 b 575 55 452 -17 519 7 b 675 251 631 103 664 168 l 622 251 b 540 91 613 186 586 132 b 374 29 495 50 439 29 b 169 121 285 29 217 60 b 99 364 122 182 99 263 b 173 590 99 451 123 526 b 374 685 222 653 289 685 b 540 635 440 685 496 668 b 615 493 585 601 610 554 z m 403 838 l 403 981 l 342 981 l 342 838 z "},"Č":{"ha":978,"x_min":0,"x_max":0,"o":"m 921 696 b 914 735 921 702 919 715 b 881 814 909 754 898 781 b 815 907 863 847 841 878 b 698 983 788 936 749 961 b 522 1015 647 1004 588 1015 b 178 868 378 1015 263 966 b 50 496 93 770 50 646 b 178 124 50 346 93 222 b 522 -24 263 25 378 -24 b 803 92 631 -24 725 15 b 938 386 882 170 926 268 l 876 386 b 766 136 871 291 834 207 b 522 29 698 65 617 29 b 222 163 396 29 296 74 b 111 496 148 253 111 363 b 222 828 111 628 148 739 b 522 962 296 918 396 962 b 745 890 607 962 682 938 b 860 696 809 842 847 777 z m 542 1083 l 703 1278 l 650 1278 l 514 1118 l 379 1278 l 326 1278 l 486 1083 z "},"č":{"ha":721,"x_min":0,"x_max":0,"o":"m 668 493 b 576 670 661 571 630 630 b 374 731 522 710 454 731 b 133 626 272 731 192 696 b 46 364 75 556 46 469 b 128 92 46 255 73 164 b 374 -17 182 19 264 -17 b 575 55 452 -17 519 7 b 675 251 631 103 664 168 l 622 251 b 540 91 613 186 586 132 b 374 29 495 50 439 29 b 169 121 285 29 217 60 b 99 364 122 182 99 263 b 173 590 99 451 123 526 b 374 685 222 653 289 685 b 540 635 440 685 496 668 b 615 493 585 601 610 554 z m 394 819 l 556 1014 l 503 1014 l 367 854 l 232 1014 l 179 1014 l 339 819 z "},"Ď":{"ha":926,"x_min":0,"x_max":0,"o":"m 88 0 l 410 0 b 755 137 563 0 678 46 b 871 497 832 228 871 348 b 858 645 871 550 866 599 b 812 779 849 691 834 736 b 728 890 790 823 762 860 b 596 964 694 921 650 945 b 412 992 542 982 481 992 l 87 992 z m 149 939 l 403 939 b 503 933 439 939 472 937 b 608 900 533 928 569 918 b 710 828 648 882 682 859 b 781 698 737 798 761 755 b 810 497 800 641 810 574 b 786 320 810 431 802 372 b 724 192 770 268 750 225 b 633 111 699 159 669 132 b 527 66 598 90 563 75 b 415 53 491 57 454 53 l 149 53 z m 431 1083 l 592 1278 l 539 1278 l 403 1118 l 268 1278 l 215 1278 l 375 1083 z "},"ď":{"ha":854,"x_min":0,"x_max":0,"o":"m 629 0 l 682 0 l 682 992 l 629 992 l 629 554 l 626 554 b 526 683 608 609 574 652 b 363 731 477 715 423 731 b 126 626 259 731 180 696 b 44 356 72 557 44 467 b 122 90 44 249 70 160 b 353 -17 174 19 251 -17 b 626 153 475 -17 566 40 l 629 153 z m 364 29 b 166 124 278 29 212 61 b 97 356 120 188 97 265 b 163 591 97 450 119 528 b 362 685 207 653 274 685 b 560 588 449 685 514 653 b 628 356 605 524 628 446 b 560 125 628 266 605 189 b 364 29 514 61 449 29 z m 757 797 l 797 797 l 918 992 l 847 992 z "},"Đ":{"ha":926,"x_min":0,"x_max":0,"o":"m 149 550 l 149 939 l 403 939 b 503 933 439 939 472 937 b 608 900 533 928 569 918 b 710 828 648 882 682 859 b 781 698 738 798 761 755 b 810 497 800 641 810 574 b 786 320 810 431 802 372 b 724 192 770 268 750 225 b 633 111 699 159 669 132 b 527 66 598 90 563 75 b 415 53 491 57 454 53 l 149 53 l 149 504 l 515 504 l 515 550 z m 88 550 l -7 550 l -7 504 l 88 504 l 88 0 l 410 0 b 755 137 563 0 678 46 b 871 497 832 228 871 348 b 858 645 871 550 866 599 b 812 779 849 691 834 736 b 728 890 790 823 762 860 b 596 964 694 921 650 945 b 413 992 542 982 481 992 l 88 992 z "},"đ":{"ha":786,"x_min":0,"x_max":0,"o":"m 629 0 l 682 0 l 682 838 l 786 838 l 786 883 l 682 883 l 682 992 l 629 992 l 629 883 l 422 883 l 422 838 l 629 838 l 629 554 l 626 554 b 526 683 608 609 574 652 b 363 731 477 715 423 731 b 126 626 259 731 180 696 b 44 356 72 557 44 467 b 122 90 44 249 70 160 b 353 -17 174 19 251 -17 b 626 153 475 -17 566 40 l 629 153 z m 364 29 b 166 124 278 29 212 61 b 97 356 120 188 97 265 b 163 591 97 450 119 528 b 362 685 207 653 274 685 b 560 588 449 685 514 653 b 628 356 605 524 628 446 b 560 125 628 266 605 189 b 364 29 514 61 449 29 z "},"Ē":{"ha":778,"x_min":0,"x_max":0,"o":"m 149 53 l 149 489 l 718 489 l 718 542 l 149 542 l 149 939 l 754 939 l 754 992 l 88 992 l 88 0 l 761 0 l 761 53 z m 590 1150 l 590 1196 l 254 1196 l 254 1150 z "},"ē":{"ha":721,"x_min":0,"x_max":0,"o":"m 99 396 b 178 598 105 473 132 540 b 361 685 225 656 286 685 b 549 600 439 685 501 656 b 622 396 596 544 620 475 z m 675 350 b 602 622 681 458 656 549 b 361 731 548 694 468 731 b 126 617 259 731 181 693 b 46 344 71 541 44 450 b 127 87 44 242 71 156 b 361 -17 183 18 261 -17 b 569 50 447 -17 517 6 b 669 242 622 94 656 158 l 617 242 b 530 85 604 175 575 123 b 361 29 485 48 429 29 b 165 123 277 29 212 60 b 99 350 119 185 97 261 z m 538 886 l 538 932 l 201 932 l 201 886 z "},"Ĕ":{"ha":778,"x_min":0,"x_max":0,"o":"m 149 53 l 149 489 l 718 489 l 718 542 l 149 542 l 149 939 l 754 939 l 754 992 l 88 992 l 88 0 l 761 0 l 761 53 z m 557 1264 b 510 1176 550 1228 535 1199 b 419 1143 486 1154 456 1143 b 272 1264 341 1143 292 1183 l 226 1264 b 288 1142 233 1212 253 1171 b 421 1097 323 1112 367 1097 b 542 1147 467 1097 508 1114 b 603 1264 577 1179 597 1219 z "},"ĕ":{"ha":721,"x_min":0,"x_max":0,"o":"m 99 396 b 178 598 105 473 132 540 b 361 685 225 656 286 685 b 549 600 439 685 501 656 b 622 396 596 544 620 475 z m 675 350 b 602 622 681 458 656 549 b 361 731 548 694 468 731 b 126 617 259 731 181 693 b 46 344 71 541 44 450 b 127 87 44 242 71 156 b 361 -17 183 18 261 -17 b 569 50 447 -17 517 6 b 669 242 622 94 656 158 l 617 242 b 530 85 604 175 575 123 b 361 29 485 48 429 29 b 165 123 277 29 212 60 b 99 350 119 185 97 261 z m 515 1000 b 469 913 509 964 493 935 b 378 879 444 890 414 879 b 231 1000 299 879 250 919 l 185 1000 b 247 878 191 948 212 907 b 379 833 281 848 325 833 b 501 883 425 833 466 850 b 561 1000 535 916 556 955 z "},"Ė":{"ha":778,"x_min":0,"x_max":0,"o":"m 149 53 l 149 489 l 718 489 l 718 542 l 149 542 l 149 939 l 754 939 l 754 992 l 88 992 l 88 0 l 761 0 l 761 53 z m 453 1101 l 453 1244 l 392 1244 l 392 1101 z "},"ė":{"ha":721,"x_min":0,"x_max":0,"o":"m 99 396 b 178 598 105 473 132 540 b 361 685 225 656 286 685 b 549 600 439 685 501 656 b 622 396 596 544 620 475 z m 675 350 b 602 622 681 458 656 549 b 361 731 548 694 468 731 b 126 617 259 731 181 693 b 46 344 71 541 44 450 b 127 87 44 242 71 156 b 361 -17 183 18 261 -17 b 569 50 447 -17 517 6 b 669 242 622 94 656 158 l 617 242 b 530 85 604 175 575 123 b 361 29 485 48 429 29 b 165 123 277 29 212 60 b 99 350 119 185 97 261 z m 393 838 l 393 981 l 332 981 l 332 838 z "},"Ę":{"ha":778,"x_min":0,"x_max":0,"o":"m 761 0 l 761 53 l 149 53 l 149 489 l 718 489 l 718 542 l 149 542 l 149 939 l 754 939 l 754 992 l 88 992 l 88 0 l 671 0 b 529 -178 576 -63 529 -122 b 643 -272 529 -241 567 -272 b 763 -189 699 -272 738 -244 l 731 -178 b 694 -216 718 -196 705 -209 b 649 -226 682 -223 667 -226 b 608 -210 633 -226 619 -221 b 590 -168 596 -200 590 -186 b 704 0 590 -123 628 -67 z "},"ę":{"ha":721,"x_min":0,"x_max":0,"o":"m 675 350 b 602 622 681 458 656 549 b 361 731 548 694 468 731 b 126 617 259 731 181 693 b 46 344 71 541 44 450 b 127 87 44 242 71 156 b 360 -17 183 18 261 -17 b 312 -54 344 -28 328 -40 b 243 -178 266 -96 243 -137 b 357 -272 243 -241 281 -272 b 476 -189 412 -272 452 -244 l 444 -178 b 408 -216 431 -196 419 -209 b 363 -226 396 -223 381 -226 b 322 -210 347 -226 333 -221 b 304 -168 310 -200 304 -186 b 361 -54 304 -137 323 -100 b 400 -15 372 -42 385 -29 b 568 49 469 -8 525 13 b 669 242 622 93 656 157 l 617 242 b 530 85 604 175 575 123 b 361 29 485 48 429 29 b 165 123 277 29 212 60 b 99 350 119 185 97 261 z m 99 396 b 178 598 105 473 132 540 b 361 685 225 656 286 685 b 549 600 439 685 501 656 b 622 396 596 544 620 475 z "},"Ě":{"ha":778,"x_min":0,"x_max":0,"o":"m 149 53 l 149 489 l 718 489 l 718 542 l 149 542 l 149 939 l 754 939 l 754 992 l 88 992 l 88 0 l 761 0 l 761 53 z m 443 1083 l 604 1278 l 551 1278 l 415 1118 l 281 1278 l 228 1278 l 388 1083 z "},"ě":{"ha":721,"x_min":0,"x_max":0,"o":"m 99 396 b 178 598 105 473 132 540 b 361 685 225 656 286 685 b 549 600 439 685 501 656 b 622 396 596 544 620 475 z m 675 350 b 602 622 681 458 656 549 b 361 731 548 694 468 731 b 126 617 259 731 181 693 b 46 344 71 541 44 450 b 127 87 44 242 71 156 b 361 -17 183 18 261 -17 b 569 50 447 -17 517 6 b 669 242 622 94 656 158 l 617 242 b 530 85 604 175 575 123 b 361 29 485 48 429 29 b 165 123 277 29 212 60 b 99 350 119 185 97 261 z m 390 819 l 551 1014 l 499 1014 l 363 854 l 228 1014 l 175 1014 l 335 819 z "},"Ĝ":{"ha":1029,"x_min":0,"x_max":0,"o":"m 531 486 l 531 433 l 896 433 b 801 140 901 312 870 214 b 521 29 733 66 639 29 b 219 160 390 29 290 73 b 113 490 148 248 113 358 b 221 825 113 622 149 733 b 521 963 293 917 393 963 b 747 889 611 963 686 938 b 874 685 808 840 850 772 l 932 685 b 792 926 915 786 869 866 b 519 1015 715 985 624 1015 b 178 863 376 1015 262 965 b 51 490 94 762 51 638 b 176 122 51 342 93 219 b 518 -24 259 25 373 -24 b 753 40 606 -24 684 -2 b 893 211 822 83 869 140 l 896 211 l 896 0 l 949 0 l 949 486 z m 499 1278 l 339 1083 l 392 1083 l 526 1243 l 663 1083 l 715 1083 l 554 1278 z "},"ĝ":{"ha":746,"x_min":0,"x_max":0,"o":"m 615 714 l 615 565 l 613 565 b 512 687 593 617 559 658 b 354 731 464 716 412 731 b 128 629 258 731 182 697 b 46 379 73 562 46 478 b 124 124 46 275 72 190 b 354 26 177 59 253 26 b 613 189 475 26 562 81 l 615 189 l 615 25 b 613 -20 615 9 615 -6 b 597 -83 612 -34 606 -55 b 559 -152 588 -110 575 -133 b 483 -203 543 -171 518 -188 b 361 -226 449 -219 408 -226 b 204 -183 298 -226 246 -212 b 133 -50 163 -155 139 -110 l 81 -50 b 360 -272 87 -198 180 -272 b 474 -261 402 -274 441 -270 b 556 -226 508 -252 535 -240 b 610 -172 577 -212 595 -194 b 644 -112 626 -150 637 -130 b 660 -49 651 -94 656 -73 b 667 1 665 -26 667 -9 b 668 38 668 12 668 24 l 668 714 z m 354 685 b 546 597 437 685 500 655 b 614 379 591 538 614 465 b 546 161 614 293 591 220 b 354 72 500 102 437 72 b 166 160 274 72 211 101 b 99 379 121 218 99 291 b 165 594 99 462 121 533 b 354 685 210 654 273 685 z m 356 1014 l 196 819 l 249 819 l 383 979 l 519 819 l 572 819 l 411 1014 z "},"Ğ":{"ha":1029,"x_min":0,"x_max":0,"o":"m 531 486 l 531 433 l 896 433 b 801 140 901 312 870 214 b 521 29 733 66 639 29 b 219 160 390 29 290 73 b 113 490 148 248 113 358 b 221 825 113 622 149 733 b 521 963 293 917 393 963 b 747 889 611 963 686 938 b 874 685 808 840 850 772 l 932 685 b 792 926 915 786 869 866 b 519 1015 715 985 624 1015 b 178 863 376 1015 262 965 b 51 490 94 762 51 638 b 176 122 51 342 93 219 b 518 -24 259 25 373 -24 b 753 40 606 -24 684 -2 b 893 211 822 83 869 140 l 896 211 l 896 0 l 949 0 l 949 486 z m 663 1264 b 616 1176 656 1228 641 1199 b 525 1143 591 1154 561 1143 b 378 1264 446 1143 397 1183 l 332 1264 b 394 1142 338 1212 359 1171 b 526 1097 428 1112 473 1097 b 648 1147 573 1097 613 1114 b 708 1264 683 1179 703 1219 z "},"ğ":{"ha":746,"x_min":0,"x_max":0,"o":"m 615 714 l 615 565 l 613 565 b 512 687 593 617 559 658 b 354 731 464 716 412 731 b 128 629 258 731 182 697 b 46 379 73 562 46 478 b 124 124 46 275 72 190 b 354 26 177 59 253 26 b 613 189 475 26 562 81 l 615 189 l 615 25 b 613 -20 615 9 615 -6 b 597 -83 612 -34 606 -55 b 559 -152 588 -110 575 -133 b 483 -203 543 -171 518 -188 b 361 -226 449 -219 408 -226 b 204 -183 298 -226 246 -212 b 133 -50 163 -155 139 -110 l 81 -50 b 360 -272 87 -198 180 -272 b 474 -261 402 -274 441 -270 b 556 -226 508 -252 535 -240 b 610 -172 577 -212 595 -194 b 644 -112 626 -150 637 -130 b 660 -49 651 -94 656 -73 b 667 1 665 -26 667 -9 b 668 38 668 12 668 24 l 668 714 z m 354 685 b 546 597 437 685 500 655 b 614 379 591 538 614 465 b 546 161 614 293 591 220 b 354 72 500 102 437 72 b 166 160 274 72 211 101 b 99 379 121 218 99 291 b 165 594 99 462 121 533 b 354 685 210 654 273 685 z m 514 1000 b 467 913 507 964 492 935 b 376 879 443 890 413 879 b 229 1000 298 879 249 919 l 183 1000 b 245 878 190 948 210 907 b 378 833 280 848 324 833 b 499 883 424 833 465 850 b 560 1000 534 916 554 955 z "},"Ġ":{"ha":1029,"x_min":0,"x_max":0,"o":"m 531 486 l 531 433 l 896 433 b 801 140 901 312 870 214 b 521 29 733 66 639 29 b 219 160 390 29 290 73 b 113 490 148 248 113 358 b 221 825 113 622 149 733 b 521 963 293 917 393 963 b 747 889 611 963 686 938 b 874 685 808 840 850 772 l 932 685 b 792 926 915 786 869 866 b 519 1015 715 985 624 1015 b 178 863 376 1015 262 965 b 51 490 94 762 51 638 b 176 122 51 342 93 219 b 518 -24 259 25 373 -24 b 753 40 606 -24 684 -2 b 893 211 822 83 869 140 l 896 211 l 896 0 l 949 0 l 949 486 z m 543 1101 l 543 1244 l 482 1244 l 482 1101 z "},"ġ":{"ha":746,"x_min":0,"x_max":0,"o":"m 615 714 l 615 565 l 613 565 b 512 687 593 617 559 658 b 354 731 464 716 412 731 b 128 629 258 731 182 697 b 46 379 73 562 46 478 b 124 124 46 275 72 190 b 354 26 177 59 253 26 b 613 189 475 26 562 81 l 615 189 l 615 25 b 613 -20 615 9 615 -6 b 597 -83 612 -34 606 -55 b 559 -152 588 -110 575 -133 b 483 -203 543 -171 518 -188 b 361 -226 449 -219 408 -226 b 204 -183 298 -226 246 -212 b 133 -50 163 -155 139 -110 l 81 -50 b 360 -272 87 -198 180 -272 b 474 -261 402 -274 441 -270 b 556 -226 508 -252 535 -240 b 610 -172 577 -212 595 -194 b 644 -112 626 -150 637 -130 b 660 -49 651 -94 656 -73 b 667 1 665 -26 667 -9 b 668 38 668 12 668 24 l 668 714 z m 354 685 b 546 597 437 685 500 655 b 614 379 591 538 614 465 b 546 161 614 293 591 220 b 354 72 500 102 437 72 b 166 160 274 72 211 101 b 99 379 121 218 99 291 b 165 594 99 462 121 533 b 354 685 210 654 273 685 z m 406 838 l 406 981 l 344 981 l 344 838 z "},"Ģ":{"ha":1029,"x_min":0,"x_max":0,"o":"m 531 486 l 531 433 l 896 433 b 801 140 901 312 870 214 b 521 29 733 66 639 29 b 219 160 390 29 290 73 b 113 490 148 248 113 358 b 221 825 113 622 149 733 b 521 963 293 917 393 963 b 747 889 611 963 686 938 b 874 685 808 840 850 772 l 932 685 b 792 926 915 786 869 866 b 519 1015 715 985 624 1015 b 178 863 376 1015 262 965 b 51 490 94 762 51 638 b 176 122 51 342 93 219 b 518 -24 259 25 373 -24 b 753 40 606 -24 684 -2 b 893 211 822 83 869 140 l 896 211 l 896 0 l 949 0 l 949 486 z m 465 -272 b 553 -181 524 -268 553 -237 l 553 -69 l 474 -69 l 474 -199 l 508 -199 b 465 -244 505 -224 490 -239 z "},"ģ":{"ha":746,"x_min":0,"x_max":0,"o":"m 615 714 l 615 565 l 613 565 b 512 687 593 617 559 658 b 354 731 464 716 412 731 b 128 629 258 731 182 697 b 46 379 73 562 46 478 b 124 124 46 275 72 190 b 354 26 177 59 253 26 b 613 189 475 26 562 81 l 615 189 l 615 25 b 613 -20 615 9 615 -6 b 597 -83 612 -34 606 -55 b 559 -152 588 -110 575 -133 b 483 -203 543 -171 518 -188 b 361 -226 449 -219 408 -226 b 204 -183 298 -226 246 -212 b 133 -50 163 -155 139 -110 l 81 -50 b 360 -272 87 -198 180 -272 b 474 -261 402 -274 441 -270 b 556 -226 508 -252 535 -240 b 610 -172 577 -212 595 -194 b 644 -112 626 -150 637 -130 b 660 -49 651 -94 656 -73 b 667 1 665 -26 667 -9 b 668 38 668 12 668 24 l 668 714 z m 354 685 b 546 597 437 685 500 655 b 614 379 591 538 614 465 b 546 161 614 293 591 220 b 354 72 500 102 437 72 b 166 160 274 72 211 101 b 99 379 121 218 99 291 b 165 594 99 462 121 533 b 354 685 210 654 273 685 z m 415 1065 b 328 974 357 1061 328 1030 l 328 863 l 407 863 l 407 992 l 372 992 b 415 1038 376 1017 390 1032 z "},"Ĥ":{"ha":931,"x_min":0,"x_max":0,"o":"m 782 489 l 782 0 l 843 0 l 843 992 l 782 992 l 782 542 l 149 542 l 149 992 l 88 992 l 88 0 l 149 0 l 149 489 z m 439 1278 l 279 1083 l 332 1083 l 467 1243 l 603 1083 l 656 1083 l 494 1278 z "},"ĥ":{"ha":721,"x_min":0,"x_max":0,"o":"m 78 992 l 78 0 l 131 0 l 131 386 b 199 602 131 475 153 547 b 388 685 245 657 308 685 b 590 451 523 685 590 607 l 590 0 l 643 0 l 643 442 b 642 494 643 462 643 479 b 633 554 641 508 638 528 b 610 620 629 580 621 602 b 567 674 599 638 584 656 b 494 716 549 692 525 706 b 389 731 464 726 429 731 b 232 685 331 731 279 716 b 133 561 185 655 152 614 l 131 561 l 131 992 z m 326 1278 l 167 1083 l 219 1083 l 354 1243 l 490 1083 l 543 1083 l 382 1278 z "},"Ħ":{"ha":931,"x_min":0,"x_max":0,"o":"m 782 489 l 782 0 l 843 0 l 843 992 l 782 992 l 782 714 l 149 714 l 149 992 l 88 992 l 88 0 l 149 0 l 149 489 z m 782 668 l 782 542 l 149 542 l 149 668 z "},"ħ":{"ha":728,"x_min":0,"x_max":0,"o":"m 85 992 l 85 883 l -17 883 l -17 838 l 85 838 l 85 0 l 138 0 l 138 386 b 206 602 138 475 160 547 b 394 685 252 657 315 685 b 597 451 530 685 597 607 l 597 0 l 650 0 l 650 442 b 649 494 650 462 650 479 b 640 554 648 508 645 528 b 617 620 636 580 628 602 b 574 674 606 638 591 656 b 501 716 556 692 532 706 b 396 731 471 726 436 731 b 239 685 338 731 286 716 b 140 561 192 655 159 614 l 138 561 l 138 838 l 347 838 l 347 883 l 138 883 l 138 992 z "},"Ĩ":{"ha":236,"x_min":0,"x_max":0,"o":"m 88 0 l 149 0 l 149 992 l 88 992 z m -42 1110 b 24 1189 -33 1163 -12 1189 b 58 1182 36 1189 47 1187 b 118 1150 72 1176 92 1166 b 214 1110 162 1123 194 1110 b 288 1146 246 1110 271 1122 b 319 1235 305 1170 316 1200 l 279 1235 b 259 1179 276 1213 270 1195 b 217 1156 248 1163 234 1156 b 124 1197 199 1156 168 1170 b 25 1235 80 1224 47 1237 b -50 1197 -6 1235 -31 1222 b -82 1110 -69 1172 -80 1143 z "},"ĩ":{"ha":233,"x_min":0,"x_max":0,"o":"m 143 0 l 143 714 l 90 714 l 90 0 z m -43 846 b 22 925 -35 899 -13 925 b 57 918 34 925 46 923 b 117 886 71 913 91 902 b 213 846 160 859 192 846 b 287 882 245 846 270 858 b 318 971 304 906 314 936 l 278 971 b 258 915 275 950 268 931 b 215 892 247 900 233 892 b 123 933 198 893 167 906 b 24 971 79 960 46 973 b -51 933 -7 971 -32 958 b -83 846 -71 908 -81 879 z "},"Ī":{"ha":236,"x_min":0,"x_max":0,"o":"m 88 0 l 149 0 l 149 992 l 88 992 z m 286 1150 l 286 1196 l -50 1196 l -50 1150 z "},"ī":{"ha":233,"x_min":0,"x_max":0,"o":"m 143 0 l 143 714 l 90 714 l 90 0 z m 286 886 l 286 932 l -50 932 l -50 886 z "},"Ĭ":{"ha":236,"x_min":0,"x_max":0,"o":"m 88 992 l 88 0 l 149 0 l 149 992 z m 307 1264 l 261 1264 b 215 1176 255 1228 239 1199 b 124 1143 190 1154 160 1143 b 81 1148 110 1143 95 1145 b 38 1167 66 1151 52 1157 b 1 1204 25 1176 12 1188 b -24 1264 -10 1220 -18 1240 l -69 1264 b -7 1141 -63 1211 -42 1170 b 125 1097 28 1112 72 1097 b 191 1110 148 1097 170 1102 b 247 1147 212 1119 230 1131 b 287 1200 263 1162 276 1180 b 307 1264 297 1220 304 1242 z "},"ĭ":{"ha":233,"x_min":0,"x_max":0,"o":"m 90 0 l 143 0 l 143 714 l 90 714 z m 306 1000 l 260 1000 b 213 913 253 964 238 935 b 122 879 189 890 158 879 b 79 884 108 879 94 881 b 37 903 64 887 50 894 b 0 940 23 912 11 925 b -25 1000 -11 956 -19 976 l -71 1000 b -8 877 -64 947 -44 906 b 124 833 27 848 71 833 b 190 847 147 833 169 838 b 245 883 210 855 229 867 b 285 936 261 898 275 916 b 306 1000 296 956 303 978 z "},"Į":{"ha":236,"x_min":0,"x_max":0,"o":"m 149 992 l 88 992 l 88 0 l 118 0 b -10 -178 33 -64 -10 -123 b 12 -241 -10 -205 -3 -226 b 53 -268 26 -256 40 -265 b 93 -272 66 -271 79 -272 b 201 -189 143 -272 179 -244 l 172 -178 b 139 -216 160 -196 149 -209 b 99 -226 129 -223 115 -226 b 61 -210 84 -226 71 -221 b 46 -168 51 -200 46 -186 b 149 0 46 -123 80 -67 z "},"į":{"ha":233,"x_min":0,"x_max":0,"o":"m 143 714 l 90 714 l 90 0 l 113 0 b -15 -178 27 -64 -15 -123 b 6 -241 -15 -205 -8 -226 b 47 -268 21 -256 34 -265 b 87 -272 60 -271 74 -272 b 196 -189 137 -272 174 -244 l 167 -178 b 133 -216 155 -196 144 -209 b 93 -226 123 -223 110 -226 b 56 -210 78 -226 66 -221 b 40 -168 45 -200 40 -186 b 143 0 40 -123 75 -67 z m 143 849 l 143 992 l 90 992 l 90 849 z "},"İ":{"ha":236,"x_min":0,"x_max":0,"o":"m 88 0 l 149 0 l 149 992 l 88 992 z m 149 1101 l 149 1244 l 88 1244 l 88 1101 z "},"ı":{"ha":233,"x_min":0,"x_max":0,"o":"m 143 0 l 143 714 l 90 714 l 90 0 z "},"Ĳ":{"ha":946,"x_min":0,"x_max":0,"o":"m 88 0 l 149 0 l 149 992 l 88 992 z m 306 315 b 309 222 306 278 307 247 b 328 133 311 196 318 166 b 372 51 338 99 353 72 b 455 -1 391 31 418 13 b 586 -24 491 -16 535 -24 b 688 -10 624 -24 658 -19 b 761 21 718 -2 743 9 b 809 72 780 33 796 50 b 838 128 822 93 832 112 b 852 192 844 144 849 165 b 858 252 855 220 857 240 b 858 308 858 265 858 283 l 858 992 l 797 992 l 797 329 l 797 313 l 797 267 b 795 224 797 258 797 243 b 790 179 794 204 792 189 b 778 140 787 169 784 156 b 760 103 773 123 767 111 b 733 74 753 94 744 85 b 695 49 722 63 709 54 b 644 35 681 43 664 38 b 579 29 625 31 603 29 b 463 52 533 29 494 37 b 396 118 432 67 410 89 b 369 208 382 147 373 177 b 367 315 365 239 364 275 z "},"ĳ":{"ha":479,"x_min":0,"x_max":0,"o":"m 143 849 l 143 992 l 90 992 l 90 849 z m 143 0 l 143 714 l 90 714 l 90 0 z m 389 849 l 389 992 l 336 992 l 336 849 z m 336 714 l 336 -72 b 313 -181 336 -125 328 -161 b 233 -211 298 -201 271 -211 b 199 -208 223 -211 212 -210 l 199 -254 b 221 -256 203 -255 211 -256 l 243 -256 b 358 -208 300 -256 338 -240 b 389 -76 379 -176 389 -132 l 389 714 z "},"Ĵ":{"ha":668,"x_min":0,"x_max":0,"o":"m 28 315 b 31 222 28 278 29 247 b 50 133 34 196 40 166 b 94 51 60 99 75 72 b 177 -1 113 31 141 13 b 308 -24 214 -16 257 -24 b 410 -10 346 -24 380 -19 b 483 21 441 -2 465 9 b 531 72 502 33 518 50 b 560 128 545 93 554 112 b 574 192 566 144 571 165 b 580 252 578 220 579 240 b 581 308 580 265 581 283 l 581 992 l 519 992 l 519 329 l 519 313 l 519 267 b 517 224 519 258 519 243 b 512 179 516 204 514 189 b 501 140 509 169 506 156 b 483 103 496 123 490 111 b 456 74 476 94 467 85 b 417 49 444 63 432 54 b 367 35 403 43 386 38 b 301 29 347 31 325 29 b 185 52 255 29 216 37 b 118 118 154 67 132 89 b 91 208 104 147 95 177 b 89 315 87 239 86 275 z m 517 1278 l 357 1083 l 410 1083 l 544 1243 l 681 1083 l 733 1083 l 572 1278 z "},"ĵ":{"ha":233,"x_min":0,"x_max":0,"o":"m 90 714 l 90 -72 b 67 -181 90 -125 83 -161 b -12 -211 52 -201 25 -211 b -47 -208 -23 -211 -34 -210 l -47 -254 b -25 -256 -43 -255 -35 -256 l -3 -256 b 113 -208 54 -256 92 -240 b 143 -76 133 -176 143 -132 l 143 714 z m 83 1014 l -76 819 l -24 819 l 111 979 l 247 819 l 300 819 l 139 1014 z "},"Ķ":{"ha":851,"x_min":0,"x_max":0,"o":"m 88 0 l 149 0 l 149 350 l 354 538 l 803 0 l 879 0 l 399 579 l 851 992 l 772 992 l 149 421 l 149 992 l 88 992 z m 404 -272 b 492 -181 463 -268 492 -237 l 492 -69 l 413 -69 l 413 -199 l 447 -199 b 404 -244 444 -224 429 -239 z "},"ķ":{"ha":643,"x_min":0,"x_max":0,"o":"m 81 0 l 133 0 l 133 269 l 296 407 l 600 0 l 672 0 l 338 447 l 650 714 l 574 714 l 133 335 l 133 992 l 81 992 z m 313 -272 b 400 -181 371 -268 400 -237 l 400 -69 l 321 -69 l 321 -199 l 356 -199 b 313 -244 352 -224 338 -239 z "},"ĸ":{"ha":643,"x_min":0,"x_max":0,"o":"m 78 714 l 78 0 l 131 0 l 131 258 l 293 396 l 600 0 l 672 0 l 335 436 l 650 714 l 574 714 l 131 324 l 131 714 z "},"Ĺ":{"ha":694,"x_min":0,"x_max":0,"o":"m 88 0 l 711 0 l 711 53 l 149 53 l 149 992 l 88 992 z m 90 1083 l 142 1083 l 328 1278 l 257 1278 z "},"ĺ":{"ha":233,"x_min":0,"x_max":0,"o":"m 90 992 l 90 0 l 143 0 l 143 992 z m 90 1083 l 142 1083 l 328 1278 l 257 1278 z "},"Ļ":{"ha":694,"x_min":0,"x_max":0,"o":"m 88 0 l 711 0 l 711 53 l 149 53 l 149 992 l 88 992 z m 332 -272 b 419 -181 390 -268 419 -237 l 419 -69 l 340 -69 l 340 -199 l 375 -199 b 332 -244 371 -224 357 -239 z "},"ļ":{"ha":233,"x_min":0,"x_max":0,"o":"m 90 992 l 90 0 l 143 0 l 143 992 z m 72 -272 b 160 -181 131 -268 160 -237 l 160 -69 l 81 -69 l 81 -199 l 115 -199 b 72 -244 112 -224 97 -239 z "},"Ľ":{"ha":694,"x_min":0,"x_max":0,"o":"m 88 0 l 711 0 l 711 53 l 149 53 l 149 992 l 88 992 z m 293 797 l 333 797 l 454 992 l 383 992 z "},"ľ":{"ha":317,"x_min":0,"x_max":0,"o":"m 90 992 l 90 0 l 143 0 l 143 992 z m 219 797 l 260 797 l 381 992 l 310 992 z "},"Ŀ":{"ha":694,"x_min":0,"x_max":0,"o":"m 88 0 l 711 0 l 711 53 l 149 53 l 149 992 l 88 992 z m 428 571 l 428 714 l 367 714 l 367 571 z "},"ŀ":{"ha":342,"x_min":0,"x_max":0,"o":"m 90 992 l 90 0 l 143 0 l 143 992 z m 292 571 l 292 714 l 231 714 l 231 571 z "},"Ł":{"ha":694,"x_min":0,"x_max":0,"o":"m 88 992 l 88 424 l -31 353 l -31 300 l 88 374 l 88 0 l 711 0 l 711 53 l 149 53 l 149 411 l 475 608 l 475 658 l 149 460 l 149 992 z "},"ł":{"ha":233,"x_min":0,"x_max":0,"o":"m 90 464 l 0 393 l 0 347 l 90 418 l 90 0 l 143 0 l 143 460 l 233 531 l 233 576 l 143 506 l 143 992 l 90 992 z "},"Ń":{"ha":942,"x_min":0,"x_max":0,"o":"m 88 0 l 149 0 l 149 917 l 151 917 l 782 0 l 854 0 l 854 992 l 793 992 l 793 82 l 790 82 l 164 992 l 88 992 z m 439 1083 l 490 1083 l 676 1278 l 606 1278 z "},"ń":{"ha":721,"x_min":0,"x_max":0,"o":"m 78 0 l 131 0 l 131 386 b 199 602 131 475 153 547 b 388 685 245 657 308 685 b 590 451 523 685 590 607 l 590 0 l 643 0 l 643 442 b 642 494 643 462 643 479 b 633 554 641 508 638 528 b 610 620 629 580 621 602 b 567 674 599 638 584 656 b 494 716 549 692 525 706 b 389 731 464 726 429 731 b 232 685 331 731 279 716 b 133 561 185 655 152 614 l 131 561 l 131 714 l 78 714 z m 329 819 l 381 819 l 567 1014 l 496 1014 z "},"Ņ":{"ha":942,"x_min":0,"x_max":0,"o":"m 88 0 l 149 0 l 149 917 l 151 917 l 782 0 l 854 0 l 854 992 l 793 992 l 793 82 l 790 82 l 164 992 l 88 992 z m 417 -272 b 504 -181 475 -268 504 -237 l 504 -69 l 425 -69 l 425 -199 l 460 -199 b 417 -244 456 -224 442 -239 z "},"ņ":{"ha":721,"x_min":0,"x_max":0,"o":"m 78 0 l 131 0 l 131 386 b 199 602 131 475 153 547 b 388 685 245 657 308 685 b 590 451 523 685 590 607 l 590 0 l 643 0 l 643 442 b 642 494 643 462 643 479 b 633 554 641 508 638 528 b 610 620 629 580 621 602 b 567 674 599 638 584 656 b 494 716 549 692 525 706 b 389 731 464 726 429 731 b 232 685 331 731 279 716 b 133 561 185 655 152 614 l 131 561 l 131 714 l 78 714 z m 313 -272 b 400 -181 371 -268 400 -237 l 400 -69 l 321 -69 l 321 -199 l 356 -199 b 313 -244 352 -224 338 -239 z "},"Ň":{"ha":942,"x_min":0,"x_max":0,"o":"m 88 0 l 149 0 l 149 917 l 151 917 l 782 0 l 854 0 l 854 992 l 793 992 l 793 82 l 790 82 l 164 992 l 88 992 z m 494 1083 l 656 1278 l 603 1278 l 467 1118 l 332 1278 l 279 1278 l 439 1083 z "},"ň":{"ha":721,"x_min":0,"x_max":0,"o":"m 78 0 l 131 0 l 131 386 b 199 602 131 475 153 547 b 388 685 245 657 308 685 b 590 451 523 685 590 607 l 590 0 l 643 0 l 643 442 b 642 494 643 462 643 479 b 633 554 641 508 638 528 b 610 620 629 580 621 602 b 567 674 599 638 584 656 b 494 716 549 692 525 706 b 389 731 464 726 429 731 b 232 685 331 731 279 716 b 133 561 185 655 152 614 l 131 561 l 131 714 l 78 714 z m 389 819 l 550 1014 l 497 1014 l 361 854 l 226 1014 l 174 1014 l 333 819 z "},"ŉ":{"ha":744,"x_min":0,"x_max":0,"o":"m 101 0 l 154 0 l 154 386 b 223 602 154 475 177 547 b 411 685 269 657 331 685 b 614 451 546 685 614 607 l 614 0 l 667 0 l 667 442 b 665 494 667 462 666 479 b 657 554 664 508 662 528 b 633 620 652 580 644 602 b 590 674 622 638 608 656 b 518 716 573 692 549 706 b 413 731 488 726 452 731 b 256 685 355 731 303 716 b 157 561 208 655 175 614 l 154 561 l 154 714 l 101 714 z m 39 918 b 126 1010 97 923 126 953 l 126 1121 l 47 1121 l 47 992 l 82 992 b 39 946 78 967 64 951 z "},"Ŋ":{"ha":942,"x_min":0,"x_max":0,"o":"m 793 -15 l 793 -40 b 783 -120 793 -73 790 -99 b 753 -169 777 -141 767 -157 b 700 -195 739 -181 721 -190 b 622 -203 679 -200 653 -203 b 568 -199 606 -203 588 -201 l 568 -253 b 601 -255 579 -254 590 -254 b 632 -256 613 -255 623 -256 b 803 -204 713 -256 770 -238 b 854 -28 837 -170 854 -111 l 854 992 l 793 992 l 793 82 l 790 82 l 164 992 l 88 992 l 88 0 l 149 0 l 149 917 l 151 917 z "},"ŋ":{"ha":721,"x_min":0,"x_max":0,"o":"m 590 451 l 590 -57 b 558 -177 590 -115 580 -155 b 446 -210 537 -199 500 -210 b 422 -209 439 -210 431 -209 b 394 -206 413 -209 404 -207 l 394 -253 b 424 -255 405 -254 414 -254 b 451 -256 433 -255 442 -256 b 601 -208 523 -256 572 -240 b 643 -49 629 -176 643 -123 l 643 442 b 642 494 643 456 643 474 b 633 556 641 514 638 534 b 610 619 629 577 621 598 b 567 675 600 640 585 658 b 495 715 548 692 524 705 b 389 731 466 725 431 731 b 307 719 361 731 334 727 b 233 686 280 712 255 701 b 173 633 210 671 190 653 b 133 561 156 612 143 588 l 131 561 l 131 714 l 78 714 l 78 0 l 131 0 l 131 386 b 148 506 131 430 136 470 b 199 601 159 543 176 574 b 279 662 221 627 248 648 b 388 685 311 677 347 685 b 501 658 436 685 473 676 b 562 595 528 641 548 620 b 586 518 575 571 583 545 b 590 451 589 491 590 469 z "},"Ō":{"ha":1029,"x_min":0,"x_max":0,"o":"m 104 496 b 215 828 104 628 141 739 b 515 962 289 918 389 962 b 814 828 640 962 740 918 b 925 496 888 739 925 628 b 814 163 925 363 888 253 b 515 29 740 74 640 29 b 215 163 389 29 289 74 b 104 496 141 253 104 363 z m 986 496 b 859 867 986 645 944 769 b 515 1015 774 966 660 1015 b 171 868 371 1015 256 966 b 43 496 86 770 43 646 b 171 124 43 346 86 222 b 515 -24 256 25 371 -24 b 859 124 660 -24 774 26 b 986 496 944 223 986 347 z m 685 1150 l 685 1196 l 349 1196 l 349 1150 z "},"ō":{"ha":746,"x_min":0,"x_max":0,"o":"m 97 357 b 171 589 97 448 122 525 b 372 685 220 653 287 685 b 574 589 457 685 525 653 b 647 357 623 525 647 448 b 574 125 647 266 623 189 b 372 29 525 61 457 29 b 171 125 287 29 220 61 b 97 357 122 189 97 266 z m 44 357 b 132 90 44 250 74 162 b 372 -17 190 19 270 -17 b 613 90 474 -17 554 19 b 700 357 671 162 700 250 b 613 624 700 463 671 552 b 372 731 554 695 474 731 b 132 624 270 731 190 695 b 44 357 74 552 44 463 z m 542 886 l 542 932 l 206 932 l 206 886 z "},"Ŏ":{"ha":1029,"x_min":0,"x_max":0,"o":"m 104 496 b 215 828 104 628 141 739 b 515 962 289 918 389 962 b 814 828 640 962 740 918 b 925 496 888 739 925 628 b 814 163 925 363 888 253 b 515 29 740 74 640 29 b 215 163 389 29 289 74 b 104 496 141 253 104 363 z m 986 496 b 859 867 986 645 944 769 b 515 1015 774 966 660 1015 b 171 868 371 1015 256 966 b 43 496 86 770 43 646 b 171 124 43 346 86 222 b 515 -24 256 25 371 -24 b 859 124 660 -24 774 26 b 986 496 944 223 986 347 z m 656 1264 b 609 1176 649 1228 634 1199 b 518 1143 584 1154 554 1143 b 371 1264 439 1143 390 1183 l 325 1264 b 387 1142 331 1212 352 1171 b 519 1097 422 1112 466 1097 b 641 1147 566 1097 606 1114 b 701 1264 676 1179 696 1219 z "},"ŏ":{"ha":746,"x_min":0,"x_max":0,"o":"m 97 357 b 171 589 97 448 122 525 b 372 685 220 653 287 685 b 574 589 457 685 525 653 b 647 357 623 525 647 448 b 574 125 647 266 623 189 b 372 29 525 61 457 29 b 171 125 287 29 220 61 b 97 357 122 189 97 266 z m 44 357 b 132 90 44 250 74 162 b 372 -17 190 19 270 -17 b 613 90 474 -17 554 19 b 700 357 671 162 700 250 b 613 624 700 463 671 552 b 372 731 554 695 474 731 b 132 624 270 731 190 695 b 44 357 74 552 44 463 z m 513 1000 b 466 913 506 964 491 935 b 375 879 441 890 411 879 b 228 1000 296 879 247 919 l 182 1000 b 244 878 188 948 209 907 b 376 833 278 848 323 833 b 498 883 423 833 463 850 b 558 1000 533 916 553 955 z "},"Ő":{"ha":1029,"x_min":0,"x_max":0,"o":"m 104 496 b 215 828 104 628 141 739 b 515 962 289 918 389 962 b 814 828 640 962 740 918 b 925 496 888 739 925 628 b 814 163 925 363 888 253 b 515 29 740 74 640 29 b 215 163 389 29 289 74 b 104 496 141 253 104 363 z m 986 496 b 859 867 986 645 944 769 b 515 1015 774 966 660 1015 b 171 868 371 1015 256 966 b 43 496 86 770 43 646 b 171 124 43 346 86 222 b 515 -24 256 25 371 -24 b 859 124 660 -24 774 26 b 986 496 944 223 986 347 z m 650 1085 l 836 1279 l 765 1279 l 599 1085 z m 431 1085 l 617 1279 l 546 1279 l 379 1085 z "},"ő":{"ha":746,"x_min":0,"x_max":0,"o":"m 97 357 b 171 589 97 448 122 525 b 372 685 220 653 287 685 b 574 589 457 685 525 653 b 647 357 623 525 647 448 b 574 125 647 266 623 189 b 372 29 525 61 457 29 b 171 125 287 29 220 61 b 97 357 122 189 97 266 z m 44 357 b 132 90 44 250 74 162 b 372 -17 190 19 270 -17 b 613 90 474 -17 554 19 b 700 357 671 162 700 250 b 613 624 700 463 671 552 b 372 731 554 695 474 731 b 132 624 270 731 190 695 b 44 357 74 552 44 463 z m 504 821 l 690 1015 l 619 1015 l 453 821 z m 285 821 l 471 1015 l 400 1015 l 233 821 z "},"Œ":{"ha":1467,"x_min":0,"x_max":0,"o":"m 857 939 l 1443 939 l 1443 992 l 796 992 l 796 900 b 668 985 762 937 719 966 b 511 1015 617 1005 565 1015 b 257 942 414 1015 329 991 b 96 752 185 894 131 830 b 43 492 61 674 43 587 b 165 122 43 342 84 218 b 500 -24 246 25 357 -24 b 679 10 569 -24 628 -12 b 793 92 730 32 768 59 l 796 92 l 796 0 l 1446 0 l 1446 53 l 857 53 l 857 489 l 1382 489 l 1382 542 l 857 542 z m 796 176 b 757 117 796 158 783 138 b 679 67 731 97 705 80 b 504 29 633 42 575 29 b 207 160 375 29 275 73 b 104 492 138 248 104 358 b 213 826 104 624 141 736 b 517 962 286 917 387 962 b 717 901 590 962 656 942 b 770 856 735 890 753 875 b 796 803 787 837 796 819 z "},"œ":{"ha":1235,"x_min":0,"x_max":0,"o":"m 644 396 b 708 600 643 475 664 544 b 896 685 752 656 814 685 b 1074 601 973 685 1032 657 b 1138 396 1116 545 1138 476 z m 1190 350 b 1124 619 1196 456 1174 545 b 896 731 1074 694 998 731 b 619 519 750 731 657 660 l 617 519 b 526 675 602 586 572 638 b 353 731 480 712 422 731 b 122 622 251 731 174 694 b 44 347 70 549 44 457 b 118 87 44 243 69 156 b 349 -17 167 18 244 -17 b 615 193 488 -17 577 53 l 618 193 b 710 38 631 126 662 75 b 896 -17 759 2 821 -17 b 1085 50 974 -17 1037 6 b 1185 235 1134 94 1167 156 l 1132 235 b 1050 84 1116 171 1089 121 b 896 29 1011 47 960 29 b 699 123 808 29 742 60 b 644 350 656 185 638 261 z m 350 29 b 161 120 267 29 204 59 b 97 347 119 181 97 256 b 110 466 97 389 102 428 b 151 574 119 503 133 539 b 231 655 170 608 196 635 b 351 685 265 675 305 685 b 494 635 409 685 456 668 b 571 513 531 601 557 561 b 592 347 585 464 592 409 b 581 236 592 307 588 270 b 544 135 573 202 561 168 b 469 58 528 103 503 77 b 350 29 436 39 396 29 z "},"Ŕ":{"ha":875,"x_min":0,"x_max":0,"o":"m 88 0 l 149 0 l 149 451 l 501 451 b 637 427 557 451 602 443 b 708 365 672 411 695 390 b 733 277 720 340 729 311 b 738 178 738 243 739 210 b 740 81 736 147 736 114 b 761 0 743 47 750 20 l 829 0 b 808 53 820 12 813 30 b 801 111 804 76 801 95 b 800 189 800 127 800 153 b 794 288 800 228 798 261 b 770 373 791 314 783 343 b 710 444 758 403 738 427 b 603 479 682 462 646 474 l 603 482 b 759 567 669 493 722 521 b 815 736 797 612 815 669 b 730 931 815 826 787 891 b 501 992 673 972 597 992 l 88 992 z m 149 504 l 149 939 l 501 939 b 683 888 575 939 635 922 b 754 732 730 854 754 802 b 685 560 754 655 731 598 b 501 504 640 523 578 504 z m 375 1083 l 426 1083 l 613 1278 l 542 1278 z "},"ŕ":{"ha":386,"x_min":0,"x_max":0,"o":"m 131 714 l 78 714 l 78 0 l 131 0 l 131 390 b 151 509 132 441 139 481 b 211 596 163 537 183 566 b 408 665 269 651 335 675 l 408 718 b 233 674 344 720 286 705 b 135 556 181 642 148 603 l 131 556 z m 78 819 l 129 819 l 315 1014 l 244 1014 z "},"Ŗ":{"ha":875,"x_min":0,"x_max":0,"o":"m 88 0 l 149 0 l 149 451 l 501 451 b 637 427 557 451 602 443 b 708 365 672 411 695 390 b 733 277 720 340 729 311 b 738 178 738 243 739 210 b 740 81 736 147 736 114 b 761 0 743 47 750 20 l 829 0 b 808 53 820 12 813 30 b 801 111 804 76 801 95 b 800 189 800 127 800 153 b 794 288 800 228 798 261 b 770 373 791 314 783 343 b 710 444 758 403 738 427 b 603 479 682 462 646 474 l 603 482 b 759 567 669 493 722 521 b 815 736 797 612 815 669 b 730 931 815 826 787 891 b 501 992 673 972 597 992 l 88 992 z m 149 504 l 149 939 l 501 939 b 683 888 575 939 635 922 b 754 732 730 854 754 802 b 685 560 754 655 731 598 b 501 504 640 523 578 504 z m 397 -272 b 485 -181 456 -268 485 -237 l 485 -69 l 406 -69 l 406 -199 l 440 -199 b 397 -244 437 -224 422 -239 z "},"ŗ":{"ha":386,"x_min":0,"x_max":0,"o":"m 131 714 l 78 714 l 78 0 l 131 0 l 131 390 b 151 509 132 441 139 481 b 211 596 163 537 183 566 b 408 665 269 651 335 675 l 408 718 b 233 674 344 720 286 705 b 135 556 181 642 148 603 l 131 556 z m 63 -272 b 150 -181 121 -268 150 -237 l 150 -69 l 71 -69 l 71 -199 l 106 -199 b 63 -244 102 -224 88 -239 z "},"Ř":{"ha":875,"x_min":0,"x_max":0,"o":"m 88 0 l 149 0 l 149 451 l 501 451 b 637 427 557 451 602 443 b 708 365 672 411 695 390 b 733 277 720 340 729 311 b 738 178 738 243 739 210 b 740 81 736 147 736 114 b 761 0 743 47 750 20 l 829 0 b 808 53 820 12 813 30 b 801 111 804 76 801 95 b 800 189 800 127 800 153 b 794 288 800 228 798 261 b 770 373 791 314 783 343 b 710 444 758 403 738 427 b 603 479 682 462 646 474 l 603 482 b 759 567 669 493 722 521 b 815 736 797 612 815 669 b 730 931 815 826 787 891 b 501 992 673 972 597 992 l 88 992 z m 149 504 l 149 939 l 501 939 b 683 888 575 939 635 922 b 754 732 730 854 754 802 b 685 560 754 655 731 598 b 501 504 640 523 578 504 z m 435 1083 l 596 1278 l 543 1278 l 407 1118 l 272 1278 l 219 1278 l 379 1083 z "},"ř":{"ha":386,"x_min":0,"x_max":0,"o":"m 131 714 l 78 714 l 78 0 l 131 0 l 131 390 b 151 509 132 441 139 481 b 211 596 163 537 183 566 b 408 665 269 651 335 675 l 408 718 b 233 674 344 720 286 705 b 135 556 181 642 148 603 l 131 556 z m 257 819 l 418 1014 l 365 1014 l 229 854 l 94 1014 l 42 1014 l 201 819 z "},"Ś":{"ha":875,"x_min":0,"x_max":0,"o":"m 796 708 b 685 940 790 812 753 889 b 417 1015 616 990 527 1015 b 183 949 328 1015 250 993 b 83 751 117 905 83 839 b 103 655 83 715 90 683 b 152 587 117 627 133 604 b 231 540 171 570 197 554 b 320 510 264 526 294 516 b 421 488 347 503 380 496 b 494 473 454 481 479 476 b 561 456 510 470 532 464 b 626 435 590 448 612 441 b 678 407 641 428 659 419 b 723 369 698 395 713 382 b 749 319 733 355 741 339 b 760 256 756 300 760 279 b 732 148 760 215 750 179 b 660 77 713 117 689 93 b 568 41 630 61 600 49 b 472 29 537 33 505 29 b 289 58 403 29 342 39 b 160 155 236 77 193 109 b 115 328 126 201 112 258 l 54 328 b 167 62 52 207 90 119 b 472 -24 245 5 346 -24 b 592 -8 513 -24 553 -19 b 703 38 631 2 668 17 b 788 126 738 59 766 88 b 821 256 810 163 821 206 b 801 356 821 293 814 326 b 751 427 787 385 771 409 b 674 476 732 445 706 461 b 583 508 641 490 611 501 b 482 531 556 515 522 522 b 465 533 478 531 473 532 b 369 553 430 540 398 547 b 283 580 340 560 311 569 b 210 617 254 591 230 603 b 163 673 191 632 175 650 b 144 751 150 696 144 722 b 171 853 144 790 153 824 b 240 919 188 881 211 903 b 326 952 268 934 297 945 b 417 962 356 959 386 962 b 644 897 511 962 587 941 b 735 708 701 854 731 791 z m 406 1083 l 457 1083 l 643 1278 l 572 1278 z "},"ś":{"ha":668,"x_min":0,"x_max":0,"o":"m 50 238 b 133 50 52 157 79 94 b 339 -17 186 6 255 -17 b 436 -7 373 -17 406 -13 b 524 24 467 0 496 10 b 592 85 553 38 575 58 b 618 181 609 112 618 144 b 555 324 618 248 597 296 b 365 390 513 353 450 375 b 327 399 359 391 346 394 b 288 408 308 403 295 406 b 253 417 281 409 270 412 b 219 429 237 421 226 425 b 190 443 212 433 202 437 b 163 461 177 449 168 455 b 145 484 158 468 152 475 b 131 512 138 493 134 502 b 128 547 129 523 128 534 b 189 651 128 594 148 628 b 333 685 230 673 278 685 b 487 640 397 685 448 670 b 544 503 525 609 544 564 l 597 503 b 525 675 597 581 573 638 b 333 731 477 712 413 731 b 151 687 263 731 202 716 b 75 547 100 658 75 611 b 126 422 75 494 92 452 b 248 360 159 391 200 371 b 392 331 296 350 344 340 b 515 283 440 322 481 306 b 565 181 548 259 565 225 b 544 105 565 151 558 126 b 486 58 529 84 510 69 b 414 36 462 48 438 41 b 339 29 390 31 365 29 b 174 85 273 29 218 48 b 103 237 130 122 106 173 z m 297 819 l 349 819 l 535 1014 l 464 1014 z "},"Ŝ":{"ha":875,"x_min":0,"x_max":0,"o":"m 796 708 b 685 940 790 812 753 889 b 417 1015 616 990 527 1015 b 183 949 328 1015 250 993 b 83 751 117 905 83 839 b 103 655 83 715 90 683 b 152 587 117 627 133 604 b 231 540 171 570 197 554 b 320 510 264 526 294 516 b 421 488 347 503 380 496 b 494 473 454 481 479 476 b 561 456 510 470 532 464 b 626 435 590 448 612 441 b 678 407 641 428 659 419 b 723 369 698 395 713 382 b 749 319 733 355 741 339 b 760 256 756 300 760 279 b 732 148 760 215 750 179 b 660 77 713 117 689 93 b 568 41 630 61 600 49 b 472 29 537 33 505 29 b 289 58 403 29 342 39 b 160 155 236 77 193 109 b 115 328 126 201 112 258 l 54 328 b 167 62 52 207 90 119 b 472 -24 245 5 346 -24 b 592 -8 513 -24 553 -19 b 703 38 631 2 668 17 b 788 126 738 59 766 88 b 821 256 810 163 821 206 b 801 356 821 293 814 326 b 751 427 787 385 771 409 b 674 476 732 445 706 461 b 583 508 641 490 611 501 b 482 531 556 515 522 522 b 465 533 478 531 473 532 b 369 553 430 540 398 547 b 283 580 340 560 311 569 b 210 617 254 591 230 603 b 163 673 191 632 175 650 b 144 751 150 696 144 722 b 171 853 144 790 153 824 b 240 919 188 881 211 903 b 326 952 268 934 297 945 b 417 962 356 959 386 962 b 644 897 511 962 587 941 b 735 708 701 854 731 791 z m 413 1278 l 253 1083 l 306 1083 l 440 1243 l 576 1083 l 629 1083 l 468 1278 z "},"ŝ":{"ha":668,"x_min":0,"x_max":0,"o":"m 50 238 b 133 50 52 157 79 94 b 339 -17 186 6 255 -17 b 436 -7 373 -17 406 -13 b 524 24 467 0 496 10 b 592 85 553 38 575 58 b 618 181 609 112 618 144 b 555 324 618 248 597 296 b 365 390 513 353 450 375 b 327 399 359 391 346 394 b 288 408 308 403 295 406 b 253 417 281 409 270 412 b 219 429 237 421 226 425 b 190 443 212 433 202 437 b 163 461 177 449 168 455 b 145 484 158 468 152 475 b 131 512 138 493 134 502 b 128 547 129 523 128 534 b 189 651 128 594 148 628 b 333 685 230 673 278 685 b 487 640 397 685 448 670 b 544 503 525 609 544 564 l 597 503 b 525 675 597 581 573 638 b 333 731 477 712 413 731 b 151 687 263 731 202 716 b 75 547 100 658 75 611 b 126 422 75 494 92 452 b 248 360 159 391 200 371 b 392 331 296 350 344 340 b 515 283 440 322 481 306 b 565 181 548 259 565 225 b 544 105 565 151 558 126 b 486 58 529 84 510 69 b 414 36 462 48 438 41 b 339 29 390 31 365 29 b 174 85 273 29 218 48 b 103 237 130 122 106 173 z m 317 1014 l 157 819 l 210 819 l 344 979 l 481 819 l 533 819 l 372 1014 z "},"Ş":{"ha":875,"x_min":0,"x_max":0,"o":"m 796 708 b 685 940 790 812 753 889 b 417 1015 616 990 527 1015 b 183 949 328 1015 250 993 b 83 751 117 905 83 839 b 103 655 83 715 90 683 b 152 587 117 627 133 604 b 231 540 171 570 197 554 b 320 510 264 526 294 516 b 421 488 347 503 380 496 b 494 473 454 481 479 476 b 561 456 510 470 532 464 b 626 435 590 448 612 441 b 678 407 641 428 659 419 b 723 369 698 395 713 382 b 749 319 733 355 741 339 b 760 256 756 300 760 279 b 732 148 760 215 750 179 b 660 77 713 117 689 93 b 568 41 630 61 600 49 b 472 29 537 33 505 29 b 289 58 403 29 342 39 b 160 155 236 77 193 109 b 115 328 126 201 112 258 l 54 328 b 122 108 53 237 76 164 b 308 -4 167 53 230 15 b 396 -19 339 -12 368 -17 l 333 -104 l 356 -122 b 429 -106 380 -111 404 -106 b 474 -122 445 -106 460 -111 b 496 -165 489 -132 496 -147 b 472 -217 496 -188 488 -206 b 411 -235 455 -229 435 -235 b 300 -204 380 -235 343 -225 l 285 -238 b 413 -272 321 -261 363 -272 b 549 -165 503 -272 549 -237 b 519 -93 549 -134 539 -110 b 446 -69 499 -76 475 -69 b 394 -81 428 -69 411 -73 l 392 -78 l 438 -22 b 472 -24 445 -23 456 -24 b 592 -8 513 -24 553 -19 b 703 38 631 2 668 17 b 788 126 738 59 766 88 b 821 256 810 163 821 206 b 801 356 821 293 814 326 b 751 427 787 385 771 409 b 674 476 732 445 706 461 b 583 508 641 490 611 501 b 482 531 556 515 522 522 b 465 533 478 531 473 532 b 369 553 430 540 398 547 b 283 580 340 560 311 569 b 210 617 254 591 230 603 b 163 673 191 632 175 650 b 144 751 150 696 144 722 b 171 853 144 790 153 824 b 240 919 188 881 211 903 b 326 952 268 934 297 945 b 417 962 356 959 386 962 b 644 897 511 962 587 941 b 735 708 701 854 731 791 z "},"ş":{"ha":668,"x_min":0,"x_max":0,"o":"m 50 238 b 99 85 51 177 67 127 b 225 0 130 44 172 16 b 307 -15 254 -9 281 -14 l 242 -104 l 264 -122 b 338 -106 288 -111 313 -106 b 383 -122 353 -106 368 -111 b 404 -165 397 -132 404 -147 b 380 -217 404 -188 396 -206 b 319 -235 364 -229 344 -235 b 208 -204 288 -235 251 -225 l 193 -238 b 321 -272 229 -261 272 -272 b 457 -165 412 -272 457 -237 b 427 -93 457 -134 447 -110 b 354 -69 407 -76 383 -69 b 303 -81 337 -69 319 -73 l 300 -78 l 351 -17 b 435 -7 382 -15 410 -12 b 566 53 488 2 531 22 b 618 181 601 84 618 127 b 555 324 618 248 597 296 b 365 390 513 353 450 375 b 327 399 359 391 346 394 b 288 408 308 403 295 406 b 253 417 281 409 270 412 b 219 429 237 421 226 425 b 190 443 212 433 202 437 b 163 461 177 449 168 455 b 145 484 158 468 152 475 b 131 512 138 493 134 502 b 128 547 129 523 128 534 b 189 651 128 594 148 628 b 333 685 230 673 278 685 b 487 640 397 685 448 670 b 544 503 525 609 544 564 l 597 503 b 525 675 597 581 573 638 b 333 731 477 712 413 731 b 151 687 263 731 202 716 b 75 547 100 658 75 611 b 126 422 75 494 92 452 b 248 360 159 391 200 371 b 392 331 296 350 344 340 b 515 283 440 322 481 306 b 565 181 548 259 565 225 b 544 105 565 151 558 126 b 486 58 529 84 510 69 b 414 36 462 48 438 41 b 339 29 390 31 365 29 b 174 85 273 29 218 48 b 103 237 130 122 106 173 z "},"Š":{"ha":875,"x_min":0,"x_max":0,"o":"m 796 708 b 685 940 790 812 753 889 b 417 1015 616 990 527 1015 b 183 949 328 1015 250 993 b 83 751 117 905 83 839 b 103 655 83 715 90 683 b 152 587 117 627 133 604 b 231 540 171 570 197 554 b 320 510 264 526 294 516 b 421 488 347 503 380 496 b 494 473 454 481 479 476 b 561 456 510 470 532 464 b 626 435 590 448 612 441 b 678 407 641 428 659 419 b 723 369 698 395 713 382 b 749 319 733 355 741 339 b 760 256 756 300 760 279 b 732 148 760 215 750 179 b 660 77 713 117 689 93 b 568 41 630 61 600 49 b 472 29 537 33 505 29 b 289 58 403 29 342 39 b 160 155 236 77 193 109 b 115 328 126 201 112 258 l 54 328 b 167 62 52 207 90 119 b 472 -24 245 5 346 -24 b 592 -8 513 -24 553 -19 b 703 38 631 2 668 17 b 788 126 738 59 766 88 b 821 256 810 163 821 206 b 801 356 821 293 814 326 b 751 427 787 385 771 409 b 674 476 732 445 706 461 b 583 508 641 490 611 501 b 482 531 556 515 522 522 b 465 533 478 531 473 532 b 369 553 430 540 398 547 b 283 580 340 560 311 569 b 210 617 254 591 230 603 b 163 673 191 632 175 650 b 144 751 150 696 144 722 b 171 853 144 790 153 824 b 240 919 188 881 211 903 b 326 952 268 934 297 945 b 417 962 356 959 386 962 b 644 897 511 962 587 941 b 735 708 701 854 731 791 z m 471 1083 l 632 1278 l 579 1278 l 443 1118 l 308 1278 l 256 1278 l 415 1083 z "},"š":{"ha":668,"x_min":0,"x_max":0,"o":"m 50 238 b 133 50 52 157 79 94 b 339 -17 186 6 255 -17 b 436 -7 373 -17 406 -13 b 524 24 467 0 496 10 b 592 85 553 38 575 58 b 618 181 609 112 618 144 b 555 324 618 248 597 296 b 365 390 513 353 450 375 b 327 399 359 391 346 394 b 288 408 308 403 295 406 b 253 417 281 409 270 412 b 219 429 237 421 226 425 b 190 443 212 433 202 437 b 163 461 177 449 168 455 b 145 484 158 468 152 475 b 131 512 138 493 134 502 b 128 547 129 523 128 534 b 189 651 128 594 148 628 b 333 685 230 673 278 685 b 487 640 397 685 448 670 b 544 503 525 609 544 564 l 597 503 b 525 675 597 581 573 638 b 333 731 477 712 413 731 b 151 687 263 731 202 716 b 75 547 100 658 75 611 b 126 422 75 494 92 452 b 248 360 159 391 200 371 b 392 331 296 350 344 340 b 515 283 440 322 481 306 b 565 181 548 259 565 225 b 544 105 565 151 558 126 b 486 58 529 84 510 69 b 414 36 462 48 438 41 b 339 29 390 31 365 29 b 174 85 273 29 218 48 b 103 237 130 122 106 173 z m 369 819 l 531 1014 l 478 1014 l 342 854 l 207 1014 l 154 1014 l 314 819 z "},"Ţ":{"ha":721,"x_min":0,"x_max":0,"o":"m 329 939 l 329 0 l 390 0 l 390 939 l 740 939 l 740 992 l -19 992 l -19 939 z m 317 -272 b 404 -181 375 -268 404 -237 l 404 -69 l 325 -69 l 325 -199 l 360 -199 b 317 -244 356 -224 342 -239 z "},"ţ":{"ha":360,"x_min":0,"x_max":0,"o":"m 340 714 l 185 714 l 185 936 l 132 936 l 132 714 l 0 714 l 0 668 l 132 668 l 132 169 b 145 74 130 131 134 99 b 194 22 156 50 172 32 b 260 1 216 11 238 4 b 339 0 282 -1 308 -2 l 339 46 b 220 66 283 44 244 51 b 185 169 197 81 185 116 l 185 668 l 340 668 z m 178 -272 b 265 -181 236 -268 265 -237 l 265 -69 l 186 -69 l 186 -199 l 221 -199 b 178 -244 217 -224 203 -239 z "},"Ť":{"ha":721,"x_min":0,"x_max":0,"o":"m 329 939 l 329 0 l 390 0 l 390 939 l 740 939 l 740 992 l -19 992 l -19 939 z m 388 1083 l 549 1278 l 496 1278 l 360 1118 l 225 1278 l 172 1278 l 332 1083 z "},"ť":{"ha":422,"x_min":0,"x_max":0,"o":"m 325 797 l 365 797 l 486 992 l 415 992 z m 340 714 l 185 714 l 185 936 l 132 936 l 132 714 l 0 714 l 0 668 l 132 668 l 132 169 b 145 74 130 131 134 99 b 194 22 156 50 172 32 b 260 1 216 11 238 4 b 339 0 282 -1 308 -2 l 339 46 b 220 66 283 44 244 51 b 185 169 197 81 185 116 l 185 668 l 340 668 z "},"Ŧ":{"ha":721,"x_min":0,"x_max":0,"o":"m 329 939 l 329 672 l 108 672 l 108 626 l 329 626 l 329 0 l 390 0 l 390 626 l 611 626 l 611 672 l 390 672 l 390 939 l 740 939 l 740 992 l -19 992 l -19 939 z "},"ŧ":{"ha":360,"x_min":0,"x_max":0,"o":"m 340 714 l 185 714 l 185 936 l 132 936 l 132 714 l 0 714 l 0 668 l 132 668 l 132 481 l -8 481 l -8 435 l 132 435 l 132 169 b 145 74 130 131 134 99 b 194 22 156 50 172 32 b 260 1 216 11 238 4 b 339 0 282 -1 308 -2 l 339 46 b 220 66 283 44 244 51 b 185 169 197 81 185 116 l 185 435 l 351 435 l 351 481 l 185 481 l 185 668 l 340 668 z "},"Ũ":{"ha":933,"x_min":0,"x_max":0,"o":"m 88 992 l 88 397 b 460 -24 88 117 212 -24 b 846 397 717 -24 846 117 l 846 992 l 785 992 l 785 397 b 710 124 785 278 760 187 b 460 29 660 61 576 29 b 317 57 405 29 358 38 b 226 124 277 75 247 98 b 176 217 205 150 188 181 b 153 312 163 254 156 286 b 149 397 150 339 149 368 l 149 992 z m 310 1110 b 375 1189 318 1162 340 1189 b 410 1182 387 1189 399 1187 b 469 1150 424 1176 444 1166 b 565 1110 513 1123 545 1110 b 640 1146 598 1110 622 1122 b 671 1235 657 1170 667 1200 l 631 1235 b 610 1179 628 1213 621 1195 b 568 1156 600 1163 586 1156 b 476 1197 550 1156 520 1170 b 376 1235 432 1224 399 1237 b 301 1197 346 1235 321 1222 b 269 1110 282 1172 271 1143 z "},"ũ":{"ha":721,"x_min":0,"x_max":0,"o":"m 643 714 l 590 714 l 590 328 b 522 112 590 239 567 167 b 333 29 476 57 413 29 b 131 263 198 29 131 107 l 131 714 l 78 714 l 78 272 b 79 220 78 252 78 234 b 88 160 80 206 83 186 b 111 94 92 134 100 112 b 154 40 122 76 137 58 b 226 -2 172 22 196 8 b 332 -17 257 -12 292 -17 b 489 28 389 -17 442 -2 b 588 153 536 59 569 100 l 590 153 l 590 0 l 643 0 z m 201 846 b 267 925 210 899 231 925 b 301 918 279 925 290 923 b 361 886 315 913 335 902 b 457 846 405 859 437 846 b 531 882 489 846 514 858 b 562 971 548 906 559 936 l 522 971 b 502 915 519 950 513 931 b 460 892 491 900 477 892 b 367 933 442 893 411 906 b 268 971 323 960 290 973 b 193 933 237 971 212 958 b 161 846 174 908 163 879 z "},"Ū":{"ha":933,"x_min":0,"x_max":0,"o":"m 88 992 l 88 397 b 460 -24 88 117 212 -24 b 846 397 717 -24 846 117 l 846 992 l 785 992 l 785 397 b 710 124 785 278 760 187 b 460 29 660 61 576 29 b 317 57 405 29 358 38 b 226 124 277 75 247 98 b 176 217 205 150 188 181 b 153 312 163 254 156 286 b 149 397 150 339 149 368 l 149 992 z m 635 1150 l 635 1196 l 299 1196 l 299 1150 z "},"ū":{"ha":721,"x_min":0,"x_max":0,"o":"m 643 714 l 590 714 l 590 328 b 522 112 590 239 567 167 b 333 29 476 57 413 29 b 131 263 198 29 131 107 l 131 714 l 78 714 l 78 272 b 79 220 78 252 78 234 b 88 160 80 206 83 186 b 111 94 92 134 100 112 b 154 40 122 76 137 58 b 226 -2 172 22 196 8 b 332 -17 257 -12 292 -17 b 489 28 389 -17 442 -2 b 588 153 536 59 569 100 l 590 153 l 590 0 l 643 0 z m 531 886 l 531 932 l 194 932 l 194 886 z "},"Ŭ":{"ha":933,"x_min":0,"x_max":0,"o":"m 88 992 l 88 397 b 460 -24 88 117 212 -24 b 846 397 717 -24 846 117 l 846 992 l 785 992 l 785 397 b 710 124 785 278 760 187 b 460 29 660 61 576 29 b 317 57 405 29 358 38 b 226 124 277 75 247 98 b 176 217 205 150 188 181 b 153 312 163 254 156 286 b 149 397 150 339 149 368 l 149 992 z m 607 1264 b 560 1176 600 1228 585 1199 b 469 1143 536 1154 506 1143 b 322 1264 391 1143 342 1183 l 276 1264 b 338 1142 283 1212 303 1171 b 471 1097 373 1112 417 1097 b 592 1147 517 1097 558 1114 b 653 1264 627 1179 647 1219 z "},"ŭ":{"ha":721,"x_min":0,"x_max":0,"o":"m 643 714 l 590 714 l 590 328 b 522 112 590 239 567 167 b 333 29 476 57 413 29 b 131 263 198 29 131 107 l 131 714 l 78 714 l 78 272 b 79 220 78 252 78 234 b 88 160 80 206 83 186 b 111 94 92 134 100 112 b 154 40 122 76 137 58 b 226 -2 172 22 196 8 b 332 -17 257 -12 292 -17 b 489 28 389 -17 442 -2 b 588 153 536 59 569 100 l 590 153 l 590 0 l 643 0 z m 497 1000 b 451 913 491 964 475 935 b 360 879 426 890 396 879 b 212 1000 281 879 232 919 l 167 1000 b 228 878 173 948 194 907 b 361 833 263 848 307 833 b 483 883 407 833 448 850 b 543 1000 517 916 537 955 z "},"Ů":{"ha":933,"x_min":0,"x_max":0,"o":"m 88 992 l 88 397 b 460 -24 88 117 212 -24 b 846 397 717 -24 846 117 l 846 992 l 785 992 l 785 397 b 710 124 785 278 760 187 b 460 29 660 61 576 29 b 317 57 405 29 358 38 b 226 124 277 75 247 98 b 176 217 205 150 188 181 b 153 312 163 254 156 286 b 149 397 150 339 149 368 l 149 992 z m 360 1181 b 389 1251 360 1208 369 1232 b 460 1281 408 1271 432 1281 b 531 1251 488 1281 511 1271 b 560 1181 550 1232 560 1208 b 531 1110 560 1153 550 1129 b 460 1081 511 1090 488 1081 b 389 1110 432 1081 408 1090 b 360 1181 369 1129 360 1153 z m 322 1181 b 362 1083 322 1142 335 1109 b 460 1043 388 1056 421 1043 b 558 1083 499 1043 531 1056 b 597 1181 584 1109 597 1142 b 558 1278 597 1219 584 1252 b 460 1318 531 1305 499 1318 b 362 1278 421 1318 388 1305 b 322 1181 335 1252 322 1219 z "},"ů":{"ha":721,"x_min":0,"x_max":0,"o":"m 643 714 l 590 714 l 590 328 b 522 112 590 239 567 167 b 333 29 476 57 413 29 b 131 263 198 29 131 107 l 131 714 l 78 714 l 78 272 b 79 220 78 252 78 234 b 88 160 80 206 83 186 b 111 94 92 134 100 112 b 154 40 122 76 137 58 b 226 -2 172 22 196 8 b 332 -17 257 -12 292 -17 b 489 28 389 -17 442 -2 b 588 153 536 59 569 100 l 590 153 l 590 0 l 643 0 z m 258 931 b 288 1001 258 958 268 982 b 358 1031 307 1021 331 1031 b 429 1001 386 1031 410 1021 b 458 931 449 982 458 958 b 429 860 458 903 449 879 b 358 831 410 840 386 831 b 288 860 331 831 307 840 b 258 931 268 879 258 903 z m 221 931 b 260 833 221 892 234 859 b 358 793 287 806 319 793 b 456 833 397 793 430 806 b 496 931 483 859 496 892 b 456 1028 496 969 483 1002 b 358 1068 430 1055 397 1068 b 260 1028 319 1068 287 1055 b 221 931 234 1002 221 969 z "},"Ű":{"ha":933,"x_min":0,"x_max":0,"o":"m 88 992 l 88 397 b 460 -24 88 117 212 -24 b 846 397 717 -24 846 117 l 846 992 l 785 992 l 785 397 b 710 124 785 278 760 187 b 460 29 660 61 576 29 b 317 57 405 29 358 38 b 226 124 277 75 247 98 b 176 217 205 150 188 181 b 153 312 163 254 156 286 b 149 397 150 339 149 368 l 149 992 z m 588 1085 l 774 1279 l 703 1279 l 536 1085 z m 368 1085 l 554 1279 l 483 1279 l 317 1085 z "},"ű":{"ha":721,"x_min":0,"x_max":0,"o":"m 643 714 l 590 714 l 590 328 b 522 112 590 239 567 167 b 333 29 476 57 413 29 b 131 263 198 29 131 107 l 131 714 l 78 714 l 78 272 b 79 220 78 252 78 234 b 88 160 80 206 83 186 b 111 94 92 134 100 112 b 154 40 122 76 137 58 b 226 -2 172 22 196 8 b 332 -17 257 -12 292 -17 b 489 28 389 -17 442 -2 b 588 153 536 59 569 100 l 590 153 l 590 0 l 643 0 z m 486 821 l 672 1015 l 601 1015 l 435 821 z m 267 821 l 453 1015 l 382 1015 l 215 821 z "},"Ų":{"ha":933,"x_min":0,"x_max":0,"o":"m 88 992 l 88 397 b 460 -24 88 117 212 -24 b 421 -54 450 -30 438 -40 b 351 -178 375 -96 351 -137 b 465 -272 351 -241 389 -272 b 585 -189 521 -272 561 -244 l 553 -178 b 516 -216 540 -196 528 -209 b 471 -226 504 -223 489 -226 b 430 -210 455 -226 441 -221 b 413 -168 418 -200 413 -186 b 469 -54 413 -137 431 -100 b 500 -22 482 -41 493 -31 b 644 8 557 -18 606 -7 b 846 397 779 68 846 197 l 846 992 l 785 992 l 785 397 b 710 124 785 278 760 187 b 460 29 660 61 576 29 b 317 57 405 29 358 38 b 226 124 277 75 247 98 b 176 217 205 150 188 181 b 153 312 163 254 156 286 b 149 397 150 339 149 368 l 149 992 z "},"ų":{"ha":721,"x_min":0,"x_max":0,"o":"m 643 714 l 590 714 l 590 328 b 522 112 590 239 567 167 b 333 29 476 57 413 29 b 131 263 198 29 131 107 l 131 714 l 78 714 l 78 272 b 79 220 78 252 78 234 b 88 160 80 206 83 186 b 111 94 92 134 100 112 b 154 40 122 76 137 58 b 226 -2 172 22 196 8 b 332 -17 257 -12 292 -17 l 346 -17 b 297 -54 325 -31 309 -43 b 228 -178 251 -96 228 -137 b 342 -272 228 -241 266 -272 b 461 -189 397 -272 437 -244 l 429 -178 b 392 -216 416 -196 404 -209 b 347 -226 381 -223 366 -226 b 306 -210 331 -226 318 -221 b 289 -168 295 -200 289 -186 b 346 -54 289 -137 308 -100 l 389 -11 b 401 -8 392 -11 396 -10 b 414 -6 407 -6 411 -6 b 521 53 455 6 490 25 b 588 153 551 81 574 114 l 590 153 l 590 0 l 643 0 z "},"Ŵ":{"ha":1235,"x_min":0,"x_max":0,"o":"m 278 0 l 346 0 l 614 939 l 617 939 l 889 0 l 958 0 l 1243 992 l 1178 992 l 924 65 l 921 65 l 654 992 l 578 992 l 315 65 l 313 65 l 54 992 l -8 992 z m 588 1278 l 428 1083 l 481 1083 l 615 1243 l 751 1083 l 804 1083 l 643 1278 z "},"ŵ":{"ha":978,"x_min":0,"x_max":0,"o":"m 54 714 l -3 714 l 224 0 l 290 0 l 488 647 l 490 647 l 686 0 l 751 0 l 981 714 l 922 714 l 722 61 l 719 61 l 524 714 l 453 714 l 258 61 l 256 61 z m 461 1014 l 301 819 l 354 819 l 489 979 l 625 819 l 678 819 l 517 1014 z "},"Ŷ":{"ha":797,"x_min":0,"x_max":0,"o":"m 399 467 l 40 992 l -29 992 l 367 415 l 367 0 l 428 0 l 428 415 l 826 992 l 758 992 z m 372 1278 l 213 1083 l 265 1083 l 400 1243 l 536 1083 l 589 1083 l 428 1278 z "},"ŷ":{"ha":617,"x_min":0,"x_max":0,"o":"m 290 4 b 217 -164 256 -93 231 -149 b 158 -201 198 -182 178 -195 b 68 -210 137 -207 107 -210 l 68 -256 b 173 -250 114 -256 149 -254 b 235 -224 197 -246 217 -237 b 318 -76 257 -208 285 -159 l 624 714 l 564 714 l 319 63 l 54 714 l -8 714 z m 292 1014 l 132 819 l 185 819 l 319 979 l 456 819 l 508 819 l 347 1014 z "},"Ÿ":{"ha":797,"x_min":0,"x_max":0,"o":"m 399 467 l 40 992 l -29 992 l 367 415 l 367 0 l 428 0 l 428 415 l 826 992 l 758 992 z m 539 1101 l 539 1244 l 478 1244 l 478 1101 z m 319 1101 l 319 1244 l 258 1244 l 258 1101 z "},"Ź":{"ha":746,"x_min":0,"x_max":0,"o":"m 39 939 l 668 939 l -1 53 l -1 0 l 747 0 l 747 53 l 63 53 l 735 939 l 735 992 l 39 992 z m 344 1083 l 396 1083 l 582 1278 l 511 1278 z "},"ź":{"ha":592,"x_min":0,"x_max":0,"o":"m 76 46 l 557 664 l 557 714 l 50 714 l 50 668 l 492 668 l 13 50 l 13 0 l 579 0 l 579 46 z m 265 819 l 317 819 l 503 1014 l 432 1014 z "},"Ż":{"ha":746,"x_min":0,"x_max":0,"o":"m 39 939 l 668 939 l -1 53 l -1 0 l 747 0 l 747 53 l 63 53 l 735 939 l 735 992 l 39 992 z m 410 1101 l 410 1244 l 349 1244 l 349 1101 z "},"ż":{"ha":592,"x_min":0,"x_max":0,"o":"m 76 46 l 557 664 l 557 714 l 50 714 l 50 668 l 492 668 l 13 50 l 13 0 l 579 0 l 579 46 z m 336 838 l 336 981 l 275 981 l 275 838 z "},"Ž":{"ha":746,"x_min":0,"x_max":0,"o":"m 39 939 l 668 939 l -1 53 l -1 0 l 747 0 l 747 53 l 63 53 l 735 939 l 735 992 l 39 992 z m 399 1083 l 560 1278 l 507 1278 l 371 1118 l 236 1278 l 183 1278 l 343 1083 z "},"ž":{"ha":592,"x_min":0,"x_max":0,"o":"m 76 46 l 557 664 l 557 714 l 50 714 l 50 668 l 492 668 l 13 50 l 13 0 l 579 0 l 579 46 z m 321 819 l 482 1014 l 429 1014 l 293 854 l 158 1014 l 106 1014 l 265 819 z "},"ſ":{"ha":335,"x_min":0,"x_max":0,"o":"m 0 668 l 128 668 l 128 0 l 181 0 l 181 857 b 210 937 181 897 191 923 b 285 957 230 950 255 957 b 347 950 300 957 321 955 l 347 996 b 285 1003 321 1000 300 1003 b 224 994 263 1003 243 1000 b 174 969 205 989 189 981 b 140 926 160 958 149 944 b 128 861 132 908 128 886 l 128 714 l 0 714 z "},"Ǝ":{"ha":778,"x_min":0,"x_max":0,"o":"m 782 0 l 782 992 l 108 992 l 108 939 l 721 939 l 721 503 l 151 503 l 151 450 l 721 450 l 721 53 l 115 53 l 115 0 z "},"Ə":{"ha":974,"x_min":0,"x_max":0,"o":"m 868 526 l 43 526 l 43 496 b 71 292 43 424 52 356 b 154 127 89 229 117 174 b 293 17 191 80 238 44 b 488 -24 349 -10 413 -24 b 682 17 562 -24 626 -10 b 820 127 738 44 784 80 b 903 292 857 174 884 229 b 931 496 921 356 931 424 b 903 699 931 568 921 636 b 820 865 884 763 857 818 b 682 975 784 911 738 948 b 488 1015 626 1002 562 1015 b 339 993 433 1015 383 1008 b 221 931 294 978 255 958 b 133 836 187 905 157 873 b 75 714 109 799 90 758 l 139 714 b 191 815 153 751 170 785 b 266 894 212 846 237 872 b 365 944 295 916 328 932 b 488 963 401 956 442 963 b 650 928 550 963 604 951 b 767 835 696 906 735 875 b 839 696 798 795 822 749 b 868 526 856 643 865 587 z m 488 29 b 323 63 425 29 370 41 b 206 157 276 86 237 117 b 133 297 174 197 150 243 b 104 467 117 350 107 406 l 868 467 b 840 297 866 406 857 350 b 768 157 824 243 800 197 b 651 63 737 117 697 86 b 488 29 604 41 550 29 z "},"ƒ":{"ha":772,"x_min":0,"x_max":0,"o":"m 576 594 l 408 594 l 435 736 b 484 872 445 794 461 839 b 594 921 507 904 544 921 b 667 914 607 921 631 919 l 676 964 b 593 971 649 969 621 971 b 497 953 555 971 523 965 b 435 899 471 942 450 924 b 399 826 419 875 407 850 b 376 731 391 801 384 769 l 350 594 l 199 594 l 189 549 l 342 549 l 246 49 b 240 15 245 44 243 33 b 232 -24 236 -3 234 -16 b 224 -60 230 -31 227 -43 b 212 -97 220 -76 216 -89 b 197 -129 208 -106 203 -116 b 177 -159 191 -142 184 -152 b 152 -181 170 -166 162 -173 b 119 -197 142 -188 131 -193 b 81 -201 107 -200 94 -201 b 21 -196 62 -201 42 -200 l 13 -246 b 82 -254 37 -251 60 -254 b 163 -237 113 -254 140 -248 b 219 -197 187 -225 206 -212 b 257 -132 233 -181 246 -160 b 281 -60 268 -104 276 -80 b 299 18 286 -41 292 -14 l 400 549 l 567 549 z "},"Ơ":{"ha":1075,"x_min":0,"x_max":0,"o":"m 986 496 b 917 783 986 605 963 701 b 939 781 921 781 929 781 b 992 802 959 781 977 788 b 1030 860 1008 816 1020 836 b 1051 945 1040 884 1047 912 b 1058 1050 1056 978 1058 1013 l 1014 1050 b 991 881 1014 975 1006 919 b 926 824 976 843 954 824 b 883 838 910 824 895 828 b 730 968 843 893 791 937 b 515 1015 668 1000 597 1015 b 316 975 441 1015 375 1002 b 167 865 257 948 208 911 b 75 699 127 818 96 763 b 43 496 54 636 43 568 b 75 292 43 424 54 356 b 167 127 96 229 127 174 b 316 17 208 80 257 44 b 515 -24 375 -10 441 -24 b 714 17 589 -24 656 -10 b 862 127 772 44 822 80 b 954 292 902 174 933 229 b 986 496 975 356 986 424 z m 104 496 b 132 676 104 560 113 620 b 212 824 150 733 177 782 b 342 925 248 866 291 900 b 515 962 393 950 450 962 b 688 925 580 962 638 950 b 817 824 739 900 781 866 b 897 676 852 782 879 733 b 925 496 916 620 925 560 b 897 315 925 432 916 372 b 817 167 879 259 852 209 b 688 67 781 125 739 92 b 515 29 638 42 580 29 b 342 67 450 29 393 42 b 212 167 291 92 248 125 b 132 315 177 209 150 259 b 104 496 113 372 104 432 z "},"ơ":{"ha":854,"x_min":0,"x_max":0,"o":"m 44 357 b 66 212 44 306 52 258 b 129 94 80 167 101 128 b 232 13 157 60 191 33 b 372 -17 273 -7 319 -17 b 513 13 425 -17 472 -7 b 615 94 553 33 588 60 b 678 212 643 128 664 167 b 700 357 693 258 700 306 b 671 522 700 417 690 472 b 689 513 676 519 682 516 b 713 510 695 511 703 510 b 766 531 733 510 751 517 b 803 589 781 546 794 565 b 825 674 813 613 820 641 b 832 779 830 707 832 742 l 788 779 b 765 610 788 704 780 648 b 700 553 749 572 728 553 b 667 560 687 553 676 555 b 642 581 657 566 649 572 b 533 690 615 626 579 662 b 372 731 488 717 434 731 b 232 701 319 731 273 721 b 129 619 191 681 157 654 b 66 501 101 585 80 546 b 44 357 52 456 44 408 z m 97 357 b 115 480 97 400 103 441 b 168 585 127 519 145 554 b 254 658 191 615 220 640 b 372 685 288 676 328 685 b 490 658 417 685 456 676 b 576 585 525 640 553 615 b 629 480 600 554 617 519 b 647 357 641 441 647 400 b 629 234 647 314 641 273 b 576 129 617 195 600 160 b 490 56 553 99 525 74 b 372 29 456 38 417 29 b 254 56 328 29 288 38 b 168 129 220 74 191 99 b 115 234 145 160 127 195 b 97 357 103 273 97 314 z "},"Ƣ":{"ha":944,"x_min":0,"x_max":0,"o":"m 796 939 l 796 -256 l 857 -256 l 857 992 l 671 992 b 646 997 666 993 658 994 b 605 1006 634 1000 620 1003 b 558 1013 590 1008 574 1011 b 515 1015 541 1014 527 1015 b 316 975 441 1015 375 1002 b 167 865 257 948 208 911 b 75 699 127 818 96 763 b 43 496 54 636 43 568 b 75 292 43 424 54 356 b 167 127 96 229 127 174 b 316 17 208 80 257 44 b 515 -24 375 -10 441 -24 b 564 -20 529 -24 545 -22 b 617 -13 582 -18 600 -15 b 676 0 636 -9 656 -5 l 676 939 z m 104 496 b 132 676 104 560 113 620 b 212 824 150 733 177 782 b 342 925 248 866 291 900 b 515 962 393 950 450 962 b 615 951 550 962 583 959 l 615 40 b 567 32 600 37 584 34 b 515 29 551 30 534 29 b 342 67 450 29 393 42 b 212 167 291 92 248 125 b 132 315 177 209 150 259 b 104 496 113 372 104 432 z "},"ƣ":{"ha":775,"x_min":0,"x_max":0,"o":"m 632 -224 l 685 -224 l 685 714 l 479 714 b 428 726 463 719 446 722 b 372 731 409 729 391 731 b 232 701 319 731 273 721 b 129 619 191 681 157 654 b 66 501 101 585 80 546 b 44 357 52 456 44 408 b 66 212 44 306 52 258 b 129 94 80 167 101 128 b 232 13 157 60 191 33 b 372 -17 273 -7 319 -17 b 446 -9 397 -17 422 -14 b 511 13 470 -4 492 3 l 511 661 l 632 661 z m 97 357 b 115 480 97 400 103 441 b 168 585 127 519 145 554 b 254 658 191 615 220 640 b 372 685 288 676 328 685 b 417 681 388 685 403 684 b 458 671 432 679 445 675 l 458 43 b 417 33 445 38 431 35 b 372 29 402 30 387 29 b 254 56 328 29 288 38 b 168 129 220 74 191 99 b 115 234 145 160 127 195 b 97 357 103 273 97 314 z "},"Ƨ":{"ha":875,"x_min":0,"x_max":0,"o":"m 140 708 l 79 708 b 114 849 82 763 94 810 b 195 944 134 888 161 919 b 313 998 229 968 268 986 b 458 1015 358 1009 406 1015 b 576 1001 497 1015 537 1010 b 684 955 616 991 652 976 b 762 873 716 934 742 907 b 792 751 782 839 792 799 b 762 635 792 704 782 666 b 686 562 743 605 718 581 b 578 517 655 543 619 528 b 454 487 537 506 496 496 b 330 460 412 479 370 470 b 222 422 290 451 253 438 b 144 358 190 405 164 384 b 115 256 125 331 115 297 b 144 147 115 212 125 176 b 215 78 163 119 186 95 b 308 40 243 60 274 48 b 403 29 341 33 373 29 b 543 45 452 29 499 34 b 659 97 587 56 626 73 b 736 190 692 121 718 152 b 760 328 755 227 762 273 l 821 328 b 790 165 822 264 811 210 b 700 56 768 121 738 84 b 567 -5 662 28 618 8 b 403 -24 516 -17 461 -24 b 284 -9 365 -24 325 -19 b 172 39 243 1 205 17 b 87 125 138 61 110 90 b 54 256 65 160 54 204 b 83 376 54 304 64 344 b 160 453 103 408 128 434 b 269 501 192 473 228 489 b 393 531 309 512 350 522 b 517 557 435 539 476 548 b 625 594 557 566 594 578 b 701 654 656 609 682 629 b 731 751 721 679 731 712 b 704 853 731 792 722 826 b 637 919 687 881 664 903 b 548 953 609 935 580 946 b 458 962 516 959 486 962 b 333 947 413 962 371 957 b 233 899 294 936 261 920 b 167 819 206 877 184 851 b 140 708 151 788 142 751 z "},"ƨ":{"ha":668,"x_min":0,"x_max":0,"o":"m 618 238 l 565 238 b 543 149 563 204 556 175 b 492 84 530 124 513 102 b 419 43 472 66 447 52 b 329 29 391 34 361 29 b 255 35 306 29 281 31 b 181 58 228 40 204 47 b 125 105 159 69 140 85 b 103 181 110 125 103 150 b 139 271 103 220 115 250 b 230 318 163 291 193 307 b 348 345 266 329 306 338 b 466 376 390 352 429 363 b 557 435 503 390 533 410 b 593 547 581 461 593 498 b 569 635 593 582 585 612 b 509 692 554 659 534 678 b 426 722 484 706 457 716 b 335 731 396 728 365 731 b 230 718 297 731 262 726 b 147 678 198 710 170 696 b 91 607 123 659 104 636 b 71 503 78 578 71 544 l 124 503 b 140 586 124 535 129 563 b 184 642 150 609 165 628 b 251 674 203 657 225 667 b 335 685 277 681 305 685 b 408 678 359 685 383 682 b 474 654 432 673 454 665 b 522 611 493 643 509 629 b 540 547 534 594 540 572 b 519 478 540 519 533 495 b 465 435 506 460 487 446 b 388 410 442 425 416 416 b 303 390 360 403 331 397 b 203 367 268 384 234 376 b 123 331 172 359 146 347 b 69 272 100 316 82 296 b 50 181 56 248 50 218 b 76 85 50 142 59 110 b 142 24 93 60 115 40 b 233 -8 170 9 200 -2 b 329 -17 266 -14 298 -17 b 442 -1 370 -17 408 -11 b 533 48 477 10 507 26 b 594 128 558 70 578 96 b 618 238 609 159 617 196 z "},"Ư":{"ha":1072,"x_min":0,"x_max":0,"o":"m 149 992 l 88 992 l 88 397 b 90 320 88 375 88 349 b 106 230 92 291 97 261 b 142 138 114 199 126 168 b 206 56 157 107 179 80 b 310 -1 234 33 268 13 b 460 -24 351 -16 401 -24 b 645 9 534 -24 596 -13 b 764 99 695 31 734 61 b 827 232 794 137 815 181 b 846 397 840 283 846 338 l 846 881 b 872 838 850 864 859 850 b 931 821 884 827 904 821 b 988 842 953 821 972 828 b 1026 900 1003 857 1016 876 b 1049 985 1037 924 1044 953 b 1056 1090 1053 1018 1056 1053 l 1011 1090 b 988 921 1011 1015 1003 959 b 924 864 973 883 951 864 b 869 887 900 864 881 872 b 846 950 856 902 849 923 l 846 992 l 785 992 l 785 397 b 768 244 785 341 779 290 b 713 128 757 199 739 160 b 613 55 688 97 654 72 b 460 29 572 38 521 29 b 337 48 412 29 371 35 b 251 98 303 60 275 77 b 197 169 228 119 210 142 b 165 249 183 195 173 222 b 151 329 158 277 153 303 b 149 397 150 355 149 378 z "},"ư":{"ha":871,"x_min":0,"x_max":0,"o":"m 643 665 l 643 714 l 590 714 l 590 328 b 573 208 590 284 584 244 b 522 113 561 171 544 140 b 441 51 500 87 473 66 b 333 29 409 37 373 29 b 219 56 284 29 246 38 b 159 119 193 73 172 94 b 135 195 146 143 138 169 b 131 263 132 222 131 244 l 131 714 l 78 714 l 78 272 b 79 220 78 257 78 240 b 88 158 80 200 83 180 b 110 95 92 137 100 116 b 154 39 121 74 136 56 b 226 -1 173 22 197 9 b 332 -17 255 -12 290 -17 b 414 -6 360 -17 387 -13 b 488 28 441 2 466 13 b 548 81 511 43 531 60 b 587 153 565 102 578 126 l 590 153 l 590 0 l 643 0 l 643 596 b 669 553 648 579 656 565 b 728 536 681 542 701 536 b 785 558 750 536 769 543 b 824 615 800 572 813 591 b 846 701 834 639 841 668 b 853 806 850 734 853 769 l 808 806 b 785 636 808 731 801 674 b 721 579 770 598 749 579 b 666 602 697 579 678 587 b 643 665 653 617 646 638 z "},"Ƶ":{"ha":746,"x_min":0,"x_max":0,"o":"m 83 486 l 699 486 l 699 539 l 83 539 z m 39 992 l 39 939 l 668 939 l -1 53 l -1 0 l 747 0 l 747 53 l 63 53 l 735 939 l 735 992 z "},"ƶ":{"ha":592,"x_min":0,"x_max":0,"o":"m 106 353 l 546 353 l 546 399 l 106 399 z m 579 46 l 76 46 l 557 664 l 557 714 l 50 714 l 50 668 l 492 668 l 13 50 l 13 0 l 579 0 z "},"ǀ":{"ha":308,"x_min":0,"x_max":0,"o":"m 128 1092 l 128 -297 l 181 -297 l 181 1092 z "},"ǁ":{"ha":617,"x_min":0,"x_max":0,"o":"m 128 1092 l 128 -297 l 181 -297 l 181 1092 z m 436 1092 l 436 -297 l 489 -297 l 489 1092 z "},"ǃ":{"ha":360,"x_min":0,"x_max":0,"o":"m 147 657 l 164 254 l 197 254 l 214 657 l 214 992 l 147 992 z m 144 143 l 144 0 l 215 0 l 215 143 z "},"Ǆ":{"ha":1672,"x_min":0,"x_max":0,"o":"m 88 992 l 88 0 l 410 0 b 616 38 489 0 558 13 b 760 143 674 64 722 99 b 844 301 798 188 826 240 b 871 497 862 361 871 427 b 849 681 871 560 864 621 b 775 839 835 740 810 793 b 634 950 740 885 693 922 b 413 992 575 978 501 992 z m 415 53 l 149 53 l 149 939 l 403 939 b 484 934 427 939 454 937 b 574 914 514 931 544 924 b 662 870 604 904 634 889 b 737 792 690 851 715 825 b 790 671 759 759 776 719 b 810 497 803 623 810 565 b 774 283 810 411 798 340 b 682 147 751 226 720 180 b 555 74 644 113 602 89 b 415 53 508 60 462 53 z m 965 992 l 965 939 l 1594 939 l 925 53 l 925 0 l 1674 0 l 1674 53 l 989 53 l 1661 939 l 1661 992 z m 1271 1096 l 1326 1096 l 1488 1290 l 1435 1290 l 1299 1131 l 1164 1290 l 1111 1290 z "},"ǅ":{"ha":1518,"x_min":0,"x_max":0,"o":"m 88 992 l 88 0 l 410 0 b 616 38 489 0 558 13 b 760 143 674 64 722 99 b 844 301 798 188 826 240 b 871 497 862 361 871 427 b 849 681 871 560 864 621 b 775 839 835 740 810 793 b 634 950 740 885 693 922 b 413 992 575 978 501 992 z m 415 53 l 149 53 l 149 939 l 403 939 b 484 934 427 939 454 937 b 574 914 514 931 544 924 b 662 870 604 904 634 889 b 737 792 690 851 715 825 b 790 671 759 759 776 719 b 810 497 803 623 810 565 b 774 283 810 411 798 340 b 682 147 751 226 720 180 b 555 74 644 113 602 89 b 415 53 508 60 462 53 z m 1506 46 l 1003 46 l 1483 664 l 1483 714 l 976 714 l 976 668 l 1418 668 l 939 50 l 939 0 l 1506 0 z m 1194 818 l 1250 818 l 1411 1013 l 1358 1013 l 1222 853 l 1088 1013 l 1035 1013 z "},"ǆ":{"ha":1364,"x_min":0,"x_max":0,"o":"m 629 153 l 629 0 l 682 0 l 682 992 l 629 992 l 629 554 l 626 554 b 586 629 617 582 604 607 b 524 685 569 651 548 670 b 447 719 501 700 475 711 b 362 731 419 727 391 731 b 222 701 309 731 262 721 b 123 622 182 682 149 656 b 64 503 97 589 77 549 b 44 356 51 458 44 408 b 62 215 44 306 50 259 b 118 96 75 170 93 130 b 214 14 143 62 175 34 b 353 -17 253 -6 299 -17 b 515 26 417 -17 471 -3 b 626 153 560 54 597 96 z m 364 29 b 244 56 318 29 278 38 b 162 129 211 74 184 99 b 113 234 140 160 124 195 b 97 356 103 273 97 314 b 112 479 97 398 102 439 b 159 585 122 519 137 554 b 242 658 181 615 208 640 b 362 685 275 676 315 685 b 481 657 408 685 447 675 b 564 583 515 638 543 614 b 612 477 585 552 601 516 b 628 356 622 438 628 397 b 612 235 628 315 622 275 b 563 131 601 196 585 161 b 481 57 541 100 514 75 b 364 29 448 38 409 29 z m 1351 46 l 849 46 l 1329 664 l 1329 714 l 822 714 l 822 668 l 1264 668 l 785 50 l 785 0 l 1351 0 z m 1040 818 l 1096 818 l 1257 1013 l 1204 1013 l 1068 853 l 933 1013 l 881 1013 z "},"Ǉ":{"ha":1363,"x_min":0,"x_max":0,"o":"m 88 992 l 88 0 l 711 0 l 711 53 l 149 53 l 149 992 z m 996 29 b 878 53 947 29 908 37 b 813 117 849 70 827 91 b 785 208 798 144 788 174 b 783 315 781 243 781 278 l 722 315 b 728 200 722 278 724 240 b 762 90 733 160 744 124 b 846 8 780 57 808 30 b 1003 -24 884 -13 936 -24 b 1119 -7 1049 -24 1088 -18 b 1196 37 1150 4 1175 19 b 1242 99 1216 55 1232 75 b 1266 170 1253 122 1261 146 b 1274 243 1271 195 1274 219 b 1275 308 1275 267 1275 289 l 1275 992 l 1214 992 l 1214 329 b 1212 224 1214 295 1213 260 b 1190 128 1210 189 1203 156 b 1126 57 1177 99 1156 75 b 996 29 1096 38 1052 29 z "},"ǈ":{"ha":928,"x_min":0,"x_max":0,"o":"m 88 992 l 88 0 l 711 0 l 711 53 l 149 53 l 149 992 z m 785 849 l 838 849 l 838 992 l 785 992 z m 838 714 l 785 714 l 785 -72 b 779 -140 785 -99 783 -122 b 761 -183 775 -158 769 -172 b 729 -205 753 -193 742 -201 b 682 -211 716 -209 700 -211 b 663 -210 675 -211 668 -211 b 647 -208 657 -210 652 -209 l 647 -254 b 658 -256 651 -255 655 -256 l 669 -256 l 692 -256 b 766 -241 722 -256 747 -251 b 810 -202 785 -231 800 -218 b 832 -145 821 -186 828 -167 b 838 -76 836 -123 838 -100 z "},"ǉ":{"ha":467,"x_min":0,"x_max":0,"o":"m 143 992 l 90 992 l 90 0 l 143 0 z m 324 849 l 376 849 l 376 992 l 324 992 z m 376 714 l 324 714 l 324 -72 b 318 -140 324 -99 322 -122 b 300 -183 314 -158 308 -172 b 268 -205 292 -193 281 -201 b 221 -211 255 -209 239 -211 b 201 -210 213 -211 207 -211 b 186 -208 196 -210 191 -209 l 186 -254 b 197 -256 190 -255 194 -256 l 208 -256 l 231 -256 b 305 -241 261 -256 286 -251 b 349 -202 324 -231 339 -218 b 371 -145 360 -186 367 -167 b 376 -76 375 -123 376 -100 z "},"Ǌ":{"ha":1610,"x_min":0,"x_max":0,"o":"m 88 992 l 88 0 l 149 0 l 149 917 l 151 917 l 782 0 l 854 0 l 854 992 l 793 992 l 793 82 l 790 82 l 164 992 z m 1243 29 b 1126 53 1194 29 1155 37 b 1060 117 1097 70 1075 91 b 1032 208 1045 144 1036 174 b 1031 315 1028 243 1028 278 l 969 315 b 976 200 969 278 972 240 b 1009 90 980 160 991 124 b 1093 8 1027 57 1055 30 b 1250 -24 1131 -13 1183 -24 b 1366 -7 1296 -24 1335 -18 b 1443 37 1397 4 1423 19 b 1490 99 1463 55 1479 75 b 1513 170 1500 122 1508 146 b 1522 243 1518 195 1521 219 b 1522 308 1522 267 1522 289 l 1522 992 l 1461 992 l 1461 329 b 1459 224 1461 295 1460 260 b 1438 128 1458 189 1450 156 b 1373 57 1425 99 1403 75 b 1243 29 1343 38 1300 29 z "},"ǋ":{"ha":1175,"x_min":0,"x_max":0,"o":"m 88 992 l 88 0 l 149 0 l 149 917 l 151 917 l 782 0 l 854 0 l 854 992 l 793 992 l 793 82 l 790 82 l 164 992 z m 1032 849 l 1085 849 l 1085 992 l 1032 992 z m 1085 714 l 1032 714 l 1032 -72 b 1026 -140 1032 -99 1030 -122 b 1008 -183 1023 -158 1017 -172 b 976 -205 1000 -193 989 -201 b 929 -211 963 -209 948 -211 b 910 -210 922 -211 915 -211 b 894 -208 904 -210 899 -209 l 894 -254 b 906 -256 898 -255 902 -256 l 917 -256 l 939 -256 b 1013 -241 969 -256 994 -251 b 1058 -202 1032 -231 1047 -218 b 1079 -145 1068 -186 1075 -167 b 1085 -76 1083 -123 1085 -100 z "},"ǌ":{"ha":954,"x_min":0,"x_max":0,"o":"m 78 714 l 78 0 l 131 0 l 131 386 b 148 506 131 430 136 470 b 199 601 159 543 176 574 b 279 662 221 627 248 648 b 388 685 311 677 347 685 b 501 658 436 685 473 676 b 562 595 528 641 548 620 b 586 518 575 571 583 545 b 590 451 589 491 590 469 l 590 0 l 643 0 l 643 442 b 642 494 643 456 643 474 b 633 556 641 514 638 534 b 610 619 629 577 621 598 b 567 675 600 640 585 658 b 495 715 548 692 524 705 b 389 731 466 725 431 731 b 307 719 361 731 334 727 b 233 686 280 712 255 701 b 173 633 210 671 190 653 b 133 561 156 612 143 588 l 131 561 l 131 714 z m 811 849 l 864 849 l 864 992 l 811 992 z m 864 714 l 811 714 l 811 -72 b 806 -140 811 -99 809 -122 b 788 -183 802 -158 796 -172 b 756 -205 779 -193 769 -201 b 708 -211 743 -209 727 -211 b 689 -210 701 -211 694 -211 b 674 -208 683 -210 678 -209 l 674 -254 b 685 -256 677 -255 681 -256 l 696 -256 l 718 -256 b 792 -241 749 -256 773 -251 b 837 -202 811 -231 826 -218 b 858 -145 847 -186 855 -167 b 864 -76 862 -123 864 -100 z "},"Ǎ":{"ha":824,"x_min":0,"x_max":0,"o":"m 382 992 l -17 0 l 49 0 l 175 318 l 650 318 l 775 0 l 840 0 l 449 992 z m 631 371 l 194 371 l 415 932 l 418 932 z m 383 1083 l 439 1083 l 600 1278 l 547 1278 l 411 1118 l 276 1278 l 224 1278 z "},"ǎ":{"ha":694,"x_min":0,"x_max":0,"o":"m 551 142 l 551 104 b 555 63 551 89 553 76 b 568 31 557 51 562 40 b 597 8 575 21 584 14 b 647 0 609 3 626 0 b 690 6 662 0 676 2 l 690 50 b 651 46 674 47 661 46 b 624 53 639 46 630 48 b 610 74 617 59 613 65 b 605 101 607 82 605 91 b 604 132 604 112 604 122 l 604 547 b 545 680 604 602 584 646 b 357 731 506 714 443 731 b 158 672 271 731 204 711 b 82 494 111 632 86 573 l 135 494 b 199 637 138 558 160 606 b 354 685 239 669 290 685 b 446 674 390 685 421 681 b 507 643 471 666 491 656 b 542 599 523 630 534 615 b 553 544 549 582 553 564 b 549 482 553 519 551 499 b 528 441 546 465 539 452 b 478 416 517 430 500 422 b 389 403 457 410 427 406 l 307 396 b 217 382 278 393 248 388 b 133 349 186 375 158 365 b 69 287 107 334 86 313 b 44 185 53 260 44 226 b 107 33 44 116 65 66 b 283 -17 149 0 207 -17 b 378 -4 318 -17 349 -13 b 455 31 406 4 432 16 b 512 81 478 45 497 62 b 549 142 528 100 540 120 z m 551 406 l 551 272 b 544 219 551 263 549 245 b 508 137 539 192 527 165 b 428 62 490 109 463 84 b 285 29 393 40 345 29 b 147 67 226 29 181 42 b 97 185 114 93 97 132 b 117 266 97 218 104 245 b 167 315 130 287 147 303 b 238 341 188 327 212 336 b 315 353 263 346 289 350 l 404 361 b 492 374 437 364 466 368 b 551 406 519 379 538 390 z m 339 835 l 394 835 l 556 1029 l 503 1029 l 367 869 l 232 1029 l 179 1029 z "},"Ǐ":{"ha":236,"x_min":0,"x_max":0,"o":"m 88 992 l 88 0 l 149 0 l 149 992 z m 90 1083 l 146 1083 l 307 1278 l 254 1278 l 118 1118 l -17 1278 l -69 1278 z "},"ǐ":{"ha":233,"x_min":0,"x_max":0,"o":"m 90 0 l 143 0 l 143 714 l 90 714 z m 89 818 l 144 818 l 306 1013 l 253 1013 l 117 853 l -18 1013 l -71 1013 z "},"Ǒ":{"ha":1029,"x_min":0,"x_max":0,"o":"m 986 496 b 954 699 986 568 975 636 b 862 865 933 763 902 818 b 714 975 822 911 772 948 b 515 1015 656 1002 589 1015 b 316 975 441 1015 375 1002 b 167 865 257 948 208 911 b 75 699 127 818 96 763 b 43 496 54 636 43 568 b 75 292 43 424 54 356 b 167 127 96 229 127 174 b 316 17 208 80 257 44 b 515 -24 375 -10 441 -24 b 714 17 589 -24 656 -10 b 862 127 772 44 822 80 b 954 292 902 174 933 229 b 986 496 975 356 986 424 z m 104 496 b 132 676 104 560 113 620 b 212 824 150 733 177 782 b 342 925 248 866 291 900 b 515 963 393 950 450 963 b 688 925 580 963 638 950 b 817 824 739 900 781 866 b 897 676 852 782 879 733 b 925 496 916 620 925 560 b 897 315 925 432 916 372 b 817 167 879 259 852 209 b 688 67 781 125 739 92 b 515 29 638 42 580 29 b 342 67 450 29 393 42 b 212 167 291 92 248 125 b 132 315 177 209 150 259 b 104 496 113 372 104 432 z m 486 1083 l 542 1083 l 703 1278 l 650 1278 l 514 1118 l 379 1278 l 326 1278 z "},"ǒ":{"ha":746,"x_min":0,"x_max":0,"o":"m 44 357 b 66 212 44 306 52 258 b 129 94 80 167 101 128 b 232 13 157 60 191 33 b 372 -17 273 -7 319 -17 b 513 13 425 -17 472 -7 b 615 94 553 33 588 60 b 678 212 643 128 664 167 b 700 357 693 258 700 306 b 678 501 700 408 693 456 b 615 619 664 546 643 585 b 513 701 588 654 553 681 b 372 731 472 721 425 731 b 232 701 319 731 273 721 b 129 619 191 681 157 654 b 66 501 101 585 80 546 b 44 357 52 456 44 408 z m 97 357 b 115 480 97 400 103 441 b 168 585 127 519 145 554 b 254 658 191 615 220 640 b 372 685 288 676 328 685 b 490 658 417 685 456 676 b 576 585 525 640 553 615 b 629 480 600 554 617 519 b 647 357 641 441 647 400 b 629 234 647 314 641 273 b 576 129 617 195 600 160 b 490 56 553 99 525 74 b 372 29 456 38 417 29 b 254 56 328 29 288 38 b 168 129 220 74 191 99 b 115 234 145 160 127 195 b 97 357 103 273 97 314 z m 344 835 l 400 835 l 561 1029 l 508 1029 l 372 869 l 238 1029 l 185 1029 z "},"Ǔ":{"ha":933,"x_min":0,"x_max":0,"o":"m 149 992 l 88 992 l 88 397 b 90 320 88 375 88 349 b 106 230 92 291 97 261 b 142 138 114 199 126 168 b 206 56 157 107 179 80 b 310 -1 234 33 268 13 b 460 -24 351 -16 401 -24 b 645 9 534 -24 596 -13 b 764 99 695 31 734 61 b 827 232 794 137 815 181 b 846 397 840 283 846 338 l 846 992 l 785 992 l 785 397 b 768 244 785 341 779 290 b 713 128 757 199 739 160 b 613 55 688 97 654 72 b 460 29 572 38 521 29 b 337 48 412 29 371 35 b 251 98 303 60 275 77 b 197 169 228 119 210 142 b 165 249 183 195 173 222 b 151 329 158 277 153 303 b 149 397 150 355 149 378 z m 439 1083 l 494 1083 l 656 1278 l 603 1278 l 467 1118 l 332 1278 l 279 1278 z "},"ǔ":{"ha":721,"x_min":0,"x_max":0,"o":"m 643 0 l 643 714 l 590 714 l 590 328 b 573 208 590 284 584 244 b 522 113 561 171 544 140 b 441 51 500 87 473 66 b 333 29 409 37 373 29 b 219 56 284 29 246 38 b 159 119 193 73 172 94 b 135 195 146 143 138 169 b 131 263 132 222 131 244 l 131 714 l 78 714 l 78 272 b 79 220 78 257 78 240 b 88 158 80 200 83 180 b 110 95 92 137 100 116 b 154 39 121 74 136 56 b 226 -1 173 22 197 9 b 332 -17 255 -12 290 -17 b 414 -6 360 -17 387 -13 b 488 28 441 2 466 13 b 548 81 511 43 531 60 b 587 153 565 102 578 126 l 590 153 l 590 0 z m 332 818 l 387 818 l 549 1013 l 496 1013 l 360 853 l 225 1013 l 172 1013 z "},"Ǖ":{"ha":933,"x_min":0,"x_max":0,"o":"m 149 992 l 88 992 l 88 397 b 90 320 88 375 88 349 b 106 230 92 291 97 261 b 142 138 114 199 126 168 b 206 56 157 107 179 80 b 310 -1 234 33 268 13 b 460 -24 351 -16 401 -24 b 645 9 534 -24 596 -13 b 764 99 695 31 734 61 b 827 232 794 137 815 181 b 846 397 840 283 846 338 l 846 992 l 785 992 l 785 397 b 768 244 785 341 779 290 b 713 128 757 199 739 160 b 613 55 688 97 654 72 b 460 29 572 38 521 29 b 337 48 412 29 371 35 b 251 98 303 60 275 77 b 197 169 228 119 210 142 b 165 249 183 195 173 222 b 151 329 158 277 153 303 b 149 397 150 355 149 378 z m 546 1096 l 607 1096 l 607 1239 l 546 1239 z m 326 1096 l 388 1096 l 388 1239 l 326 1239 z m 299 1343 l 635 1343 l 635 1389 l 299 1389 z "},"ǖ":{"ha":721,"x_min":0,"x_max":0,"o":"m 643 0 l 643 714 l 590 714 l 590 328 b 573 208 590 284 584 244 b 522 113 561 171 544 140 b 441 51 500 87 473 66 b 333 29 409 37 373 29 b 219 56 284 29 246 38 b 159 119 193 73 172 94 b 135 195 146 143 138 169 b 131 263 132 222 131 244 l 131 714 l 78 714 l 78 272 b 79 220 78 257 78 240 b 88 158 80 200 83 180 b 110 95 92 137 100 116 b 154 39 121 74 136 56 b 226 -1 173 22 197 9 b 332 -17 255 -12 290 -17 b 414 -6 360 -17 387 -13 b 488 28 441 2 466 13 b 548 81 511 43 531 60 b 587 153 565 102 578 126 l 590 153 l 590 0 z m 439 818 l 500 818 l 500 961 l 439 961 z m 219 818 l 281 818 l 281 961 l 219 961 z m 192 1065 l 528 1065 l 528 1111 l 192 1111 z "},"Ǘ":{"ha":933,"x_min":0,"x_max":0,"o":"m 149 992 l 88 992 l 88 397 b 90 320 88 375 88 349 b 106 230 92 291 97 261 b 142 138 114 199 126 168 b 206 56 157 107 179 80 b 310 -1 234 33 268 13 b 460 -24 351 -16 401 -24 b 645 9 534 -24 596 -13 b 764 99 695 31 734 61 b 827 232 794 137 815 181 b 846 397 840 283 846 338 l 846 992 l 785 992 l 785 397 b 768 244 785 341 779 290 b 713 128 757 199 739 160 b 613 55 688 97 654 72 b 460 29 572 38 521 29 b 337 48 412 29 371 35 b 251 98 303 60 275 77 b 197 169 228 119 210 142 b 165 249 183 195 173 222 b 151 329 158 277 153 303 b 149 397 150 355 149 378 z m 546 1096 l 607 1096 l 607 1239 l 546 1239 z m 326 1096 l 388 1096 l 388 1239 l 326 1239 z m 599 1482 l 432 1288 l 483 1288 l 669 1482 z "},"ǘ":{"ha":721,"x_min":0,"x_max":0,"o":"m 643 0 l 643 714 l 590 714 l 590 328 b 573 208 590 284 584 244 b 522 113 561 171 544 140 b 441 51 500 87 473 66 b 333 29 409 37 373 29 b 219 56 284 29 246 38 b 159 119 193 73 172 94 b 135 195 146 143 138 169 b 131 263 132 222 131 244 l 131 714 l 78 714 l 78 272 b 79 220 78 257 78 240 b 88 158 80 200 83 180 b 110 95 92 137 100 116 b 154 39 121 74 136 56 b 226 -1 173 22 197 9 b 332 -17 255 -12 290 -17 b 414 -6 360 -17 387 -13 b 488 28 441 2 466 13 b 548 81 511 43 531 60 b 587 153 565 102 578 126 l 590 153 l 590 0 z m 439 818 l 500 818 l 500 961 l 439 961 z m 219 818 l 281 818 l 281 961 l 219 961 z m 497 1218 l 331 1024 l 382 1024 l 568 1218 z "},"Ǚ":{"ha":933,"x_min":0,"x_max":0,"o":"m 149 992 l 88 992 l 88 397 b 90 320 88 375 88 349 b 106 230 92 291 97 261 b 142 138 114 199 126 168 b 206 56 157 107 179 80 b 310 -1 234 33 268 13 b 460 -24 351 -16 401 -24 b 645 9 534 -24 596 -13 b 764 99 695 31 734 61 b 827 232 794 137 815 181 b 846 397 840 283 846 338 l 846 992 l 785 992 l 785 397 b 768 244 785 341 779 290 b 713 128 757 199 739 160 b 613 55 688 97 654 72 b 460 29 572 38 521 29 b 337 48 412 29 371 35 b 251 98 303 60 275 77 b 197 169 228 119 210 142 b 165 249 183 195 173 222 b 151 329 158 277 153 303 b 149 397 150 355 149 378 z m 546 1096 l 607 1096 l 607 1239 l 546 1239 z m 326 1096 l 388 1096 l 388 1239 l 326 1239 z m 439 1315 l 494 1315 l 656 1510 l 603 1510 l 467 1350 l 332 1510 l 279 1510 z "},"ǚ":{"ha":721,"x_min":0,"x_max":0,"o":"m 643 0 l 643 714 l 590 714 l 590 328 b 573 208 590 284 584 244 b 522 113 561 171 544 140 b 441 51 500 87 473 66 b 333 29 409 37 373 29 b 219 56 284 29 246 38 b 159 119 193 73 172 94 b 135 195 146 143 138 169 b 131 263 132 222 131 244 l 131 714 l 78 714 l 78 272 b 79 220 78 257 78 240 b 88 158 80 200 83 180 b 110 95 92 137 100 116 b 154 39 121 74 136 56 b 226 -1 173 22 197 9 b 332 -17 255 -12 290 -17 b 414 -6 360 -17 387 -13 b 488 28 441 2 466 13 b 548 81 511 43 531 60 b 587 153 565 102 578 126 l 590 153 l 590 0 z m 439 818 l 500 818 l 500 961 l 439 961 z m 219 818 l 281 818 l 281 961 l 219 961 z m 332 1038 l 387 1038 l 549 1232 l 496 1232 l 360 1072 l 225 1232 l 172 1232 z "},"Ǜ":{"ha":933,"x_min":0,"x_max":0,"o":"m 149 992 l 88 992 l 88 397 b 90 320 88 375 88 349 b 106 230 92 291 97 261 b 142 138 114 199 126 168 b 206 56 157 107 179 80 b 310 -1 234 33 268 13 b 460 -24 351 -16 401 -24 b 645 9 534 -24 596 -13 b 764 99 695 31 734 61 b 827 232 794 137 815 181 b 846 397 840 283 846 338 l 846 992 l 785 992 l 785 397 b 768 244 785 341 779 290 b 713 128 757 199 739 160 b 613 55 688 97 654 72 b 460 29 572 38 521 29 b 337 48 412 29 371 35 b 251 98 303 60 275 77 b 197 169 228 119 210 142 b 165 249 183 195 173 222 b 151 329 158 277 153 303 b 149 397 150 355 149 378 z m 546 1096 l 607 1096 l 607 1239 l 546 1239 z m 326 1096 l 388 1096 l 388 1239 l 326 1239 z m 438 1301 l 489 1301 l 322 1496 l 251 1496 z "},"ǜ":{"ha":721,"x_min":0,"x_max":0,"o":"m 643 0 l 643 714 l 590 714 l 590 328 b 573 208 590 284 584 244 b 522 113 561 171 544 140 b 441 51 500 87 473 66 b 333 29 409 37 373 29 b 219 56 284 29 246 38 b 159 119 193 73 172 94 b 135 195 146 143 138 169 b 131 263 132 222 131 244 l 131 714 l 78 714 l 78 272 b 79 220 78 257 78 240 b 88 158 80 200 83 180 b 110 95 92 137 100 116 b 154 39 121 74 136 56 b 226 -1 173 22 197 9 b 332 -17 255 -12 290 -17 b 414 -6 360 -17 387 -13 b 488 28 441 2 466 13 b 548 81 511 43 531 60 b 587 153 565 102 578 126 l 590 153 l 590 0 z m 439 818 l 500 818 l 500 961 l 439 961 z m 219 818 l 281 818 l 281 961 l 219 961 z m 331 1038 l 382 1038 l 215 1232 l 144 1232 z "},"ǝ":{"ha":721,"x_min":0,"x_max":0,"o":"m 622 364 l 46 364 b 45 349 46 360 46 355 b 44 333 45 343 44 338 b 65 198 44 285 51 240 b 124 87 78 156 98 119 b 220 11 150 55 182 30 b 353 -17 259 -7 303 -17 b 494 15 406 -17 454 -6 b 596 98 535 35 569 63 b 656 219 623 133 643 173 b 676 363 670 265 676 313 b 657 508 676 414 670 463 b 598 624 644 553 624 591 b 499 702 572 657 539 683 b 361 731 460 721 414 731 b 153 664 275 731 206 708 b 51 472 101 619 67 556 l 104 472 b 190 628 120 539 149 591 b 360 685 232 666 288 685 b 474 660 403 685 441 676 b 556 592 507 643 534 620 b 606 492 578 563 594 530 b 622 372 617 454 622 414 z m 99 318 l 621 318 b 599 209 618 280 611 244 b 547 117 587 174 569 144 b 465 53 525 91 498 70 b 353 29 433 37 395 29 b 246 52 312 29 276 37 b 167 115 215 67 189 88 b 117 207 146 141 129 172 b 99 318 106 242 100 279 z "},"Ǟ":{"ha":824,"x_min":0,"x_max":0,"o":"m 382 992 l -17 0 l 49 0 l 175 318 l 650 318 l 775 0 l 840 0 l 449 992 z m 631 371 l 194 371 l 415 932 l 418 932 z m 490 1096 l 551 1096 l 551 1239 l 490 1239 z m 271 1096 l 332 1096 l 332 1239 l 271 1239 z m 243 1315 l 579 1315 l 579 1361 l 243 1361 z "},"ǟ":{"ha":694,"x_min":0,"x_max":0,"o":"m 551 142 l 551 104 b 555 63 551 89 553 76 b 568 31 557 51 562 40 b 597 8 575 21 584 14 b 647 0 609 3 626 0 b 690 6 662 0 676 2 l 690 50 b 651 46 674 47 661 46 b 624 53 639 46 630 48 b 610 74 617 59 613 65 b 605 101 607 82 605 91 b 604 132 604 112 604 122 l 604 547 b 545 680 604 602 584 646 b 357 731 506 714 443 731 b 158 672 271 731 204 711 b 82 494 111 632 86 573 l 135 494 b 199 637 138 558 160 606 b 354 685 239 669 290 685 b 446 674 390 685 421 681 b 507 643 471 666 491 656 b 542 599 523 630 534 615 b 553 544 549 582 553 564 b 549 482 553 519 551 499 b 528 441 546 465 539 452 b 478 416 517 430 500 422 b 389 403 457 410 427 406 l 307 396 b 217 382 278 393 248 388 b 133 349 186 375 158 365 b 69 287 107 334 86 313 b 44 185 53 260 44 226 b 107 33 44 116 65 66 b 283 -17 149 0 207 -17 b 378 -4 318 -17 349 -13 b 455 31 406 4 432 16 b 512 81 478 45 497 62 b 549 142 528 100 540 120 z m 551 406 l 551 272 b 544 219 551 263 549 245 b 508 137 539 192 527 165 b 428 62 490 109 463 84 b 285 29 393 40 345 29 b 147 67 226 29 181 42 b 97 185 114 93 97 132 b 117 266 97 218 104 245 b 167 315 130 287 147 303 b 238 341 188 327 212 336 b 315 353 263 346 289 350 l 404 361 b 492 374 437 364 466 368 b 551 406 519 379 538 390 z m 446 835 l 507 835 l 507 978 l 446 978 z m 226 835 l 288 835 l 288 978 l 226 978 z m 199 1054 l 535 1054 l 535 1100 l 199 1100 z "},"Ǡ":{"ha":824,"x_min":0,"x_max":0,"o":"m 382 992 l -17 0 l 49 0 l 175 318 l 650 318 l 775 0 l 840 0 l 449 992 z m 631 371 l 194 371 l 415 932 l 418 932 z m 381 1096 l 442 1096 l 442 1239 l 381 1239 z m 243 1315 l 579 1315 l 579 1361 l 243 1361 z "},"ǡ":{"ha":694,"x_min":0,"x_max":0,"o":"m 551 142 l 551 104 b 555 63 551 89 553 76 b 568 31 557 51 562 40 b 597 8 575 21 584 14 b 647 0 609 3 626 0 b 690 6 662 0 676 2 l 690 50 b 651 46 674 47 661 46 b 624 53 639 46 630 48 b 610 74 617 59 613 65 b 605 101 607 82 605 91 b 604 132 604 112 604 122 l 604 547 b 545 680 604 602 584 646 b 357 731 506 714 443 731 b 158 672 271 731 204 711 b 82 494 111 632 86 573 l 135 494 b 199 637 138 558 160 606 b 354 685 239 669 290 685 b 446 674 390 685 421 681 b 507 643 471 666 491 656 b 542 599 523 630 534 615 b 553 544 549 582 553 564 b 549 482 553 519 551 499 b 528 441 546 465 539 452 b 478 416 517 430 500 422 b 389 403 457 410 427 406 l 307 396 b 217 382 278 393 248 388 b 133 349 186 375 158 365 b 69 287 107 334 86 313 b 44 185 53 260 44 226 b 107 33 44 116 65 66 b 283 -17 149 0 207 -17 b 378 -4 318 -17 349 -13 b 455 31 406 4 432 16 b 512 81 478 45 497 62 b 549 142 528 100 540 120 z m 551 406 l 551 272 b 544 219 551 263 549 245 b 508 137 539 192 527 165 b 428 62 490 109 463 84 b 285 29 393 40 345 29 b 147 67 226 29 181 42 b 97 185 114 93 97 132 b 117 266 97 218 104 245 b 167 315 130 287 147 303 b 238 341 188 327 212 336 b 315 353 263 346 289 350 l 404 361 b 492 374 437 364 466 368 b 551 406 519 379 538 390 z m 336 835 l 397 835 l 397 978 l 336 978 z m 199 1054 l 535 1054 l 535 1100 l 199 1100 z "},"Ǣ":{"ha":1208,"x_min":0,"x_max":0,"o":"m 506 992 l -12 0 l 43 0 l 226 353 l 599 353 l 599 0 l 1188 0 l 1188 53 l 660 53 l 660 489 l 1146 489 l 1146 542 l 660 542 l 660 939 l 1186 939 l 1186 992 z m 599 939 l 599 406 l 254 406 l 533 939 z m 668 1096 l 1004 1096 l 1004 1142 l 668 1142 z "},"ǣ":{"ha":1235,"x_min":0,"x_max":0,"o":"m 618 350 l 1189 350 b 1179 495 1194 401 1190 449 b 1123 616 1168 541 1149 581 b 1022 699 1097 651 1063 678 b 879 731 981 720 934 731 b 712 686 814 731 759 716 b 608 549 665 656 631 611 l 606 549 b 580 638 603 585 594 614 b 524 693 566 661 547 679 b 447 722 502 707 476 717 b 356 731 417 728 387 731 b 160 672 276 731 211 711 b 75 490 109 633 81 573 l 128 490 b 197 639 132 559 156 608 b 356 685 239 669 292 685 b 513 645 426 685 478 672 b 564 518 547 619 564 576 b 545 443 567 484 560 459 b 484 410 530 427 509 416 b 398 399 459 403 430 400 b 304 393 366 399 335 397 b 217 383 276 392 247 389 b 133 351 187 377 159 366 b 69 287 107 335 86 314 b 44 182 53 259 44 225 b 65 92 44 147 51 117 b 122 30 79 67 98 46 b 203 -6 145 14 172 2 b 300 -17 234 -13 267 -17 b 480 39 369 -17 429 2 b 590 190 530 76 567 126 l 593 190 b 694 35 610 121 644 69 b 879 -17 745 0 807 -17 b 1081 50 961 -17 1028 6 b 1181 237 1134 94 1168 157 l 1128 237 b 1047 83 1118 170 1091 118 b 879 29 1003 47 947 29 b 759 55 833 29 793 38 b 676 124 725 72 697 95 b 628 226 654 153 638 187 b 618 350 619 265 615 306 z m 1136 396 l 617 396 b 638 506 619 435 627 472 b 687 598 650 541 666 572 b 767 661 709 624 735 645 b 879 685 798 677 836 685 b 987 661 919 685 955 677 b 1069 598 1020 645 1047 624 b 1120 506 1092 572 1109 541 b 1136 396 1132 472 1137 435 z m 564 401 l 564 279 b 540 181 563 244 555 211 b 482 101 525 150 506 124 b 399 49 458 79 430 62 b 300 29 367 36 334 29 b 226 37 275 29 250 32 b 161 65 202 43 181 52 b 115 112 142 77 126 93 b 97 182 103 131 97 154 b 113 259 97 212 103 238 b 157 310 124 280 138 297 b 222 339 175 323 197 332 b 299 351 246 345 272 350 b 387 358 328 354 358 356 b 466 365 416 360 442 362 b 527 378 490 368 510 372 b 561 401 544 383 556 391 z m 450 835 l 786 835 l 786 881 l 450 881 z "},"Ǧ":{"ha":1029,"x_min":0,"x_max":0,"o":"m 51 490 b 82 290 51 419 62 352 b 172 126 102 227 132 173 b 319 17 212 80 261 44 b 518 -24 377 -10 443 -24 b 644 -7 562 -24 603 -18 b 753 40 684 4 721 20 b 839 113 786 59 815 84 b 893 211 863 142 881 175 l 896 211 l 896 0 l 949 0 l 949 486 l 531 486 l 531 433 l 896 433 b 875 267 899 372 892 317 b 801 140 858 218 834 175 b 681 58 768 105 728 78 b 521 29 633 39 580 29 b 342 66 452 29 393 41 b 215 165 291 91 248 124 b 138 312 181 207 155 256 b 113 490 121 368 113 427 b 139 669 113 552 121 612 b 217 819 156 726 182 776 b 344 924 251 863 294 898 b 521 963 395 950 454 963 b 749 889 613 963 688 938 b 874 685 809 840 850 772 l 932 685 b 882 824 924 737 907 783 b 790 928 857 864 826 899 b 665 993 753 956 712 978 b 519 1015 619 1008 570 1015 b 320 973 444 1015 378 1001 b 174 858 262 945 213 906 b 83 691 134 810 103 754 b 51 490 62 628 51 561 z m 472 1083 l 528 1083 l 689 1278 l 636 1278 l 500 1118 l 365 1278 l 313 1278 z "},"ǧ":{"ha":746,"x_min":0,"x_max":0,"o":"m 668 714 l 615 714 l 615 565 l 613 565 b 510 688 592 618 558 659 b 354 731 463 716 411 731 b 222 702 304 731 260 721 b 125 626 183 683 151 658 b 66 514 99 594 79 556 b 46 379 53 471 46 426 b 65 240 46 329 52 283 b 122 128 77 198 96 160 b 217 53 147 97 179 72 b 354 26 256 35 301 26 b 510 68 415 26 467 40 b 612 189 553 96 587 136 l 615 189 l 615 25 b 603 -66 615 -6 611 -36 b 562 -147 596 -96 582 -123 b 484 -204 543 -170 517 -189 b 361 -226 451 -219 410 -226 b 278 -217 331 -226 304 -223 b 208 -185 252 -210 228 -200 b 157 -131 187 -171 170 -153 b 133 -50 144 -108 136 -81 l 81 -50 b 106 -155 82 -92 91 -127 b 167 -223 122 -183 142 -206 b 254 -260 192 -240 221 -253 b 361 -272 287 -268 323 -272 b 512 -247 422 -272 473 -264 b 606 -178 552 -229 584 -206 b 654 -78 629 -149 645 -116 b 668 38 663 -41 668 -2 z m 354 685 b 468 660 398 685 436 676 b 549 592 500 643 528 621 b 598 494 571 564 587 531 b 614 379 609 457 614 419 b 598 263 614 338 609 300 b 549 165 587 227 571 194 b 468 97 528 137 500 114 b 354 72 436 81 398 72 b 244 97 312 72 276 80 b 163 163 212 113 185 135 b 115 260 141 190 125 223 b 99 379 104 298 99 338 b 115 491 99 417 104 454 b 162 589 125 528 141 560 b 241 658 183 618 209 641 b 354 685 273 676 311 685 z m 329 835 l 385 835 l 546 1029 l 493 1029 l 357 869 l 222 1029 l 169 1029 z "},"Ǩ":{"ha":851,"x_min":0,"x_max":0,"o":"m 88 992 l 88 0 l 149 0 l 149 350 l 354 538 l 803 0 l 879 0 l 399 579 l 851 992 l 772 992 l 149 421 l 149 992 z m 383 1083 l 439 1083 l 600 1278 l 547 1278 l 411 1118 l 276 1278 l 224 1278 z "},"ǩ":{"ha":643,"x_min":0,"x_max":0,"o":"m 81 992 l 81 0 l 133 0 l 133 269 l 296 407 l 600 0 l 672 0 l 338 447 l 650 714 l 574 714 l 133 335 l 133 992 z m 300 1096 l 356 1096 l 517 1290 l 464 1290 l 328 1131 l 193 1290 l 140 1290 z "},"Ǫ":{"ha":1029,"x_min":0,"x_max":0,"o":"m 986 496 b 954 699 986 568 975 636 b 862 865 933 763 902 818 b 714 975 822 911 772 948 b 515 1015 656 1002 589 1015 b 316 975 441 1015 375 1002 b 167 865 257 948 208 911 b 75 699 127 818 96 763 b 43 496 54 636 43 568 b 75 292 43 424 54 356 b 167 127 96 229 127 174 b 316 17 208 80 257 44 b 515 -24 375 -10 441 -24 b 714 17 589 -24 656 -10 b 862 127 772 44 822 80 b 954 292 902 174 933 229 b 986 496 975 356 986 424 z m 104 496 b 132 676 104 560 113 620 b 212 824 150 733 177 782 b 342 925 248 866 291 900 b 515 963 393 950 450 963 b 688 925 580 963 638 950 b 817 824 739 900 781 866 b 897 676 852 782 879 733 b 925 496 916 620 925 560 b 897 315 925 432 916 372 b 817 167 879 259 852 209 b 688 67 781 125 739 92 b 515 29 638 42 580 29 b 342 67 450 29 393 42 b 212 167 291 92 248 125 b 132 315 177 209 150 259 b 104 496 113 372 104 432 z m 572 -24 l 539 -24 b 467 -78 509 -43 485 -61 b 424 -126 448 -96 434 -112 b 403 -167 413 -141 406 -155 b 397 -201 399 -179 397 -190 b 428 -273 397 -234 408 -258 b 511 -296 449 -288 477 -296 b 631 -213 568 -296 607 -268 l 599 -201 b 563 -240 587 -220 575 -233 b 518 -250 550 -247 536 -250 b 476 -235 501 -250 487 -245 b 458 -192 464 -225 458 -210 b 463 -158 458 -181 460 -169 b 481 -122 466 -147 472 -135 b 515 -78 489 -108 500 -94 b 572 -24 530 -62 549 -44 z "},"ǫ":{"ha":746,"x_min":0,"x_max":0,"o":"m 44 357 b 66 212 44 306 52 258 b 129 94 80 167 101 128 b 232 13 157 60 191 33 b 372 -17 273 -7 319 -17 b 513 13 425 -17 472 -7 b 615 94 553 33 588 60 b 678 212 643 128 664 167 b 700 357 693 258 700 306 b 678 501 700 408 693 456 b 615 619 664 546 643 585 b 513 701 588 654 553 681 b 372 731 472 721 425 731 b 232 701 319 731 273 721 b 129 619 191 681 157 654 b 66 501 101 585 80 546 b 44 357 52 456 44 408 z m 97 357 b 115 480 97 400 103 441 b 168 585 127 519 145 554 b 254 658 191 615 220 640 b 372 685 288 676 328 685 b 490 658 417 685 456 676 b 576 585 525 640 553 615 b 629 480 600 554 617 519 b 647 357 641 441 647 400 b 629 234 647 314 641 273 b 576 129 617 195 600 160 b 490 56 553 99 525 74 b 372 29 456 38 417 29 b 254 56 328 29 288 38 b 168 129 220 74 191 99 b 115 234 145 160 127 195 b 97 357 103 273 97 314 z m 431 -17 l 397 -17 b 325 -72 368 -36 344 -54 b 282 -119 306 -89 292 -105 b 261 -160 272 -134 265 -148 b 256 -194 257 -172 256 -183 b 287 -266 256 -227 266 -251 b 369 -289 308 -281 335 -289 b 489 -206 426 -289 466 -261 l 457 -194 b 421 -233 445 -213 433 -226 b 376 -243 409 -240 394 -243 b 334 -228 360 -243 346 -238 b 317 -185 322 -218 317 -203 b 322 -151 317 -174 318 -163 b 339 -115 325 -140 331 -128 b 374 -71 347 -101 359 -87 b 431 -17 388 -55 407 -37 z "},"Ǭ":{"ha":1029,"x_min":0,"x_max":0,"o":"m 986 496 b 954 699 986 568 975 636 b 862 865 933 763 902 818 b 714 975 822 911 772 948 b 515 1015 656 1002 589 1015 b 316 975 441 1015 375 1002 b 167 865 257 948 208 911 b 75 699 127 818 96 763 b 43 496 54 636 43 568 b 75 292 43 424 54 356 b 167 127 96 229 127 174 b 316 17 208 80 257 44 b 515 -24 375 -10 441 -24 b 714 17 589 -24 656 -10 b 862 127 772 44 822 80 b 954 292 902 174 933 229 b 986 496 975 356 986 424 z m 104 496 b 132 676 104 560 113 620 b 212 824 150 733 177 782 b 342 925 248 866 291 900 b 515 963 393 950 450 963 b 688 925 580 963 638 950 b 817 824 739 900 781 866 b 897 676 852 782 879 733 b 925 496 916 620 925 560 b 897 315 925 432 916 372 b 817 167 879 259 852 209 b 688 67 781 125 739 92 b 515 29 638 42 580 29 b 342 67 450 29 393 42 b 212 167 291 92 248 125 b 132 315 177 209 150 259 b 104 496 113 372 104 432 z m 572 -24 l 539 -24 b 467 -78 509 -43 485 -61 b 424 -126 448 -96 434 -112 b 403 -167 413 -141 406 -155 b 397 -201 399 -179 397 -190 b 428 -273 397 -234 408 -258 b 511 -296 449 -288 477 -296 b 631 -213 568 -296 607 -268 l 599 -201 b 563 -240 587 -220 575 -233 b 518 -250 550 -247 536 -250 b 476 -235 501 -250 487 -245 b 458 -192 464 -225 458 -210 b 463 -158 458 -181 460 -169 b 481 -122 466 -147 472 -135 b 515 -78 489 -108 500 -94 b 572 -24 530 -62 549 -44 z m 346 1119 l 682 1119 l 682 1165 l 346 1165 z "},"ǭ":{"ha":746,"x_min":0,"x_max":0,"o":"m 44 357 b 66 212 44 306 52 258 b 129 94 80 167 101 128 b 232 13 157 60 191 33 b 372 -17 273 -7 319 -17 b 513 13 425 -17 472 -7 b 615 94 553 33 588 60 b 678 212 643 128 664 167 b 700 357 693 258 700 306 b 678 501 700 408 693 456 b 615 619 664 546 643 585 b 513 701 588 654 553 681 b 372 731 472 721 425 731 b 232 701 319 731 273 721 b 129 619 191 681 157 654 b 66 501 101 585 80 546 b 44 357 52 456 44 408 z m 97 357 b 115 480 97 400 103 441 b 168 585 127 519 145 554 b 254 658 191 615 220 640 b 372 685 288 676 328 685 b 490 658 417 685 456 676 b 576 585 525 640 553 615 b 629 480 600 554 617 519 b 647 357 641 441 647 400 b 629 234 647 314 641 273 b 576 129 617 195 600 160 b 490 56 553 99 525 74 b 372 29 456 38 417 29 b 254 56 328 29 288 38 b 168 129 220 74 191 99 b 115 234 145 160 127 195 b 97 357 103 273 97 314 z m 431 -17 l 397 -17 b 325 -72 368 -36 344 -54 b 282 -119 306 -89 292 -105 b 261 -160 272 -134 265 -148 b 256 -194 257 -172 256 -183 b 287 -266 256 -227 266 -251 b 369 -289 308 -281 335 -289 b 489 -206 426 -289 466 -261 l 457 -194 b 421 -233 445 -213 433 -226 b 376 -243 409 -240 394 -243 b 334 -228 360 -243 346 -238 b 317 -185 322 -218 317 -203 b 322 -151 317 -174 318 -163 b 339 -115 325 -140 331 -128 b 374 -71 347 -101 359 -87 b 431 -17 388 -55 407 -37 z m 204 835 l 540 835 l 540 881 l 204 881 z "},"ǰ":{"ha":233,"x_min":0,"x_max":0,"o":"m 143 714 l 90 714 l 90 -72 b 85 -140 90 -99 88 -122 b 67 -183 81 -158 75 -172 b 35 -205 58 -193 48 -201 b -12 -211 22 -209 6 -211 b -32 -210 -20 -211 -26 -211 b -47 -208 -37 -210 -43 -209 l -47 -254 b -36 -256 -44 -255 -40 -256 l -25 -256 l -3 -256 b 72 -241 28 -256 53 -251 b 116 -202 91 -231 105 -218 b 138 -145 127 -186 134 -167 b 143 -76 141 -123 143 -100 z m 86 818 l 142 818 l 303 1013 l 250 1013 l 114 853 l -21 1013 l -74 1013 z "},"Ǳ":{"ha":1672,"x_min":0,"x_max":0,"o":"m 88 992 l 88 0 l 410 0 b 616 38 489 0 558 13 b 760 143 674 64 722 99 b 844 301 798 188 826 240 b 871 497 862 361 871 427 b 849 681 871 560 864 621 b 775 839 835 740 810 793 b 634 950 740 885 693 922 b 413 992 575 978 501 992 z m 415 53 l 149 53 l 149 939 l 403 939 b 484 934 427 939 454 937 b 574 914 514 931 544 924 b 662 870 604 904 634 889 b 737 792 690 851 715 825 b 790 671 759 759 776 719 b 810 497 803 623 810 565 b 774 283 810 411 798 340 b 682 147 751 226 720 180 b 555 74 644 113 602 89 b 415 53 508 60 462 53 z m 965 992 l 965 939 l 1594 939 l 925 53 l 925 0 l 1674 0 l 1674 53 l 989 53 l 1661 939 l 1661 992 z "},"ǲ":{"ha":1518,"x_min":0,"x_max":0,"o":"m 88 992 l 88 0 l 410 0 b 616 38 489 0 558 13 b 760 143 674 64 722 99 b 844 301 798 188 826 240 b 871 497 862 361 871 427 b 849 681 871 560 864 621 b 775 839 835 740 810 793 b 634 950 740 885 693 922 b 413 992 575 978 501 992 z m 415 53 l 149 53 l 149 939 l 403 939 b 484 934 427 939 454 937 b 574 914 514 931 544 924 b 662 870 604 904 634 889 b 737 792 690 851 715 825 b 790 671 759 759 776 719 b 810 497 803 623 810 565 b 774 283 810 411 798 340 b 682 147 751 226 720 180 b 555 74 644 113 602 89 b 415 53 508 60 462 53 z m 1506 46 l 1003 46 l 1483 664 l 1483 714 l 976 714 l 976 668 l 1418 668 l 939 50 l 939 0 l 1506 0 z "},"ǳ":{"ha":1364,"x_min":0,"x_max":0,"o":"m 629 153 l 629 0 l 682 0 l 682 992 l 629 992 l 629 554 l 626 554 b 586 629 617 582 604 607 b 524 685 569 651 548 670 b 447 719 501 700 475 711 b 362 731 419 727 391 731 b 222 701 309 731 262 721 b 123 622 182 682 149 656 b 64 503 97 589 77 549 b 44 356 51 458 44 408 b 62 215 44 306 50 259 b 118 96 75 170 93 130 b 214 14 143 62 175 34 b 353 -17 253 -6 299 -17 b 515 26 417 -17 471 -3 b 626 153 560 54 597 96 z m 364 29 b 244 56 318 29 278 38 b 162 129 211 74 184 99 b 113 234 140 160 124 195 b 97 356 103 273 97 314 b 112 479 97 398 102 439 b 159 585 122 519 137 554 b 242 658 181 615 208 640 b 362 685 275 676 315 685 b 481 657 408 685 447 675 b 564 583 515 638 543 614 b 612 477 585 552 601 516 b 628 356 622 438 628 397 b 612 235 628 315 622 275 b 563 131 601 196 585 161 b 481 57 541 100 514 75 b 364 29 448 38 409 29 z m 1351 46 l 849 46 l 1329 664 l 1329 714 l 822 714 l 822 668 l 1264 668 l 785 50 l 785 0 l 1351 0 z "},"Ǵ":{"ha":1029,"x_min":0,"x_max":0,"o":"m 51 490 b 82 290 51 419 62 352 b 172 126 102 227 132 173 b 319 17 212 80 261 44 b 518 -24 377 -10 443 -24 b 644 -7 562 -24 603 -18 b 753 40 684 4 721 20 b 839 113 786 59 815 84 b 893 211 863 142 881 175 l 896 211 l 896 0 l 949 0 l 949 486 l 531 486 l 531 433 l 896 433 b 875 267 899 372 892 317 b 801 140 858 218 834 175 b 681 58 768 105 728 78 b 521 29 633 39 580 29 b 342 66 452 29 393 41 b 215 165 291 91 248 124 b 138 312 181 207 155 256 b 113 490 121 368 113 427 b 139 669 113 552 121 612 b 217 819 156 726 182 776 b 344 924 251 863 294 898 b 521 963 395 950 454 963 b 749 889 613 963 688 938 b 874 685 809 840 850 772 l 932 685 b 882 824 924 737 907 783 b 790 928 857 864 826 899 b 665 993 753 956 712 978 b 519 1015 619 1008 570 1015 b 320 973 444 1015 378 1001 b 174 858 262 945 213 906 b 83 691 134 810 103 754 b 51 490 62 628 51 561 z m 665 1314 l 499 1119 l 550 1119 l 736 1314 z "},"ǵ":{"ha":746,"x_min":0,"x_max":0,"o":"m 668 714 l 615 714 l 615 565 l 613 565 b 510 688 592 618 558 659 b 354 731 463 716 411 731 b 222 702 304 731 260 721 b 125 626 183 683 151 658 b 66 514 99 594 79 556 b 46 379 53 471 46 426 b 65 240 46 329 52 283 b 122 128 77 198 96 160 b 217 53 147 97 179 72 b 354 26 256 35 301 26 b 510 68 415 26 467 40 b 612 189 553 96 587 136 l 615 189 l 615 25 b 603 -66 615 -6 611 -36 b 562 -147 596 -96 582 -123 b 484 -204 543 -170 517 -189 b 361 -226 451 -219 410 -226 b 278 -217 331 -226 304 -223 b 208 -185 252 -210 228 -200 b 157 -131 187 -171 170 -153 b 133 -50 144 -108 136 -81 l 81 -50 b 106 -155 82 -92 91 -127 b 167 -223 122 -183 142 -206 b 254 -260 192 -240 221 -253 b 361 -272 287 -268 323 -272 b 512 -247 422 -272 473 -264 b 606 -178 552 -229 584 -206 b 654 -78 629 -149 645 -116 b 668 38 663 -41 668 -2 z m 354 685 b 468 660 398 685 436 676 b 549 592 500 643 528 621 b 598 494 571 564 587 531 b 614 379 609 457 614 419 b 598 263 614 338 609 300 b 549 165 587 227 571 194 b 468 97 528 137 500 114 b 354 72 436 81 398 72 b 244 97 312 72 276 80 b 163 163 212 113 185 135 b 115 260 141 190 125 223 b 99 379 104 298 99 338 b 115 491 99 417 104 454 b 162 589 125 528 141 560 b 241 658 183 618 209 641 b 354 685 273 676 311 685 z m 510 1029 l 343 835 l 394 835 l 581 1029 z "},"Ǹ":{"ha":942,"x_min":0,"x_max":0,"o":"m 88 992 l 88 0 l 149 0 l 149 917 l 151 917 l 782 0 l 854 0 l 854 992 l 793 992 l 793 82 l 790 82 l 164 992 z m 539 1096 l 590 1096 l 424 1290 l 353 1290 z "},"ǹ":{"ha":721,"x_min":0,"x_max":0,"o":"m 78 714 l 78 0 l 131 0 l 131 386 b 148 506 131 430 136 470 b 199 601 159 543 176 574 b 279 662 221 627 248 648 b 388 685 311 677 347 685 b 501 658 436 685 473 676 b 562 595 528 641 548 620 b 586 518 575 571 583 545 b 590 451 589 491 590 469 l 590 0 l 643 0 l 643 442 b 642 494 643 456 643 474 b 633 556 641 514 638 534 b 610 619 629 577 621 598 b 567 675 600 640 585 658 b 495 715 548 692 524 705 b 389 731 466 725 431 731 b 307 719 361 731 334 727 b 233 686 280 712 255 701 b 173 633 210 671 190 653 b 133 561 156 612 143 588 l 131 561 l 131 714 z m 428 835 l 479 835 l 313 1029 l 242 1029 z "},"Ǻ":{"ha":824,"x_min":0,"x_max":0,"o":"m 482 1318 l 369 1188 l 421 1188 l 553 1318 z m 531 1054 b 499 1134 531 1087 520 1113 b 418 1165 477 1155 450 1165 b 338 1134 386 1165 359 1155 b 306 1054 316 1113 306 1087 b 322 993 306 1030 311 1010 b 367 954 333 976 348 963 l -17 0 l 49 0 l 175 318 l 650 318 l 775 0 l 840 0 l 464 951 b 513 992 484 961 500 974 b 531 1054 525 1009 531 1030 z m 418 1131 b 472 1108 439 1131 457 1123 b 494 1054 487 1094 494 1075 b 473 999 494 1032 487 1014 b 418 978 459 985 440 978 b 364 1000 397 978 379 985 b 342 1054 349 1015 342 1033 b 363 1109 342 1076 349 1095 b 418 1131 378 1123 396 1131 z m 631 371 l 194 371 l 415 935 l 418 935 z "},"ǻ":{"ha":694,"x_min":0,"x_max":0,"o":"m 551 142 l 551 104 b 555 63 551 89 553 76 b 568 31 557 51 562 40 b 597 8 575 21 584 14 b 647 0 609 3 626 0 b 690 6 662 0 676 2 l 690 50 b 651 46 674 47 661 46 b 624 53 639 46 630 48 b 610 74 617 59 613 65 b 605 101 607 82 605 91 b 604 132 604 112 604 122 l 604 547 b 545 680 604 602 584 646 b 357 731 506 714 443 731 b 158 672 271 731 204 711 b 82 494 111 632 86 573 l 135 494 b 199 637 138 558 160 606 b 354 685 239 669 290 685 b 446 674 390 685 421 681 b 507 643 471 666 491 656 b 542 599 523 630 534 615 b 553 544 549 582 553 564 b 549 482 553 519 551 499 b 528 441 546 465 539 452 b 478 416 517 430 500 422 b 389 403 457 410 427 406 l 307 396 b 217 382 278 393 248 388 b 133 349 186 375 158 365 b 69 287 107 334 86 313 b 44 185 53 260 44 226 b 107 33 44 116 65 66 b 283 -17 149 0 207 -17 b 378 -4 318 -17 349 -13 b 455 31 406 4 432 16 b 512 81 478 45 497 62 b 549 142 528 100 540 120 z m 551 406 l 551 272 b 544 219 551 263 549 245 b 508 137 539 192 527 165 b 428 62 490 109 463 84 b 285 29 393 40 345 29 b 147 67 226 29 181 42 b 97 185 114 93 97 132 b 117 266 97 218 104 245 b 167 315 130 287 147 303 b 238 341 188 327 212 336 b 315 353 263 346 289 350 l 404 361 b 492 374 437 364 466 368 b 551 406 519 379 538 390 z m 219 914 b 259 816 219 875 233 842 b 357 776 285 790 318 776 b 455 816 396 776 428 790 b 494 914 481 842 494 875 b 455 1012 494 953 481 985 b 357 1051 428 1038 396 1051 b 259 1012 318 1051 285 1038 b 219 914 233 985 219 953 z m 257 914 b 286 985 257 942 267 965 b 357 1014 306 1004 329 1014 b 428 985 385 1014 408 1004 b 457 914 447 965 457 942 b 428 843 457 886 447 863 b 357 814 408 824 385 814 b 286 843 329 814 306 824 b 257 914 267 863 257 886 z m 476 1278 l 310 1083 l 361 1083 l 547 1278 z "},"Ǽ":{"ha":1208,"x_min":0,"x_max":0,"o":"m 506 992 l -12 0 l 43 0 l 226 353 l 599 353 l 599 0 l 1188 0 l 1188 53 l 660 53 l 660 489 l 1146 489 l 1146 542 l 660 542 l 660 939 l 1186 939 l 1186 992 z m 599 939 l 599 406 l 254 406 l 533 939 z m 900 1278 l 733 1083 l 785 1083 l 971 1278 z "}}}
